<?xml version="1.0" standalone="no"?>
<!DOCTYPE svg PUBLIC "-//W3C//DTD SVG 1.1//EN" "http://www.w3.org/Graphics/SVG/1.1/DTD/svg11.dtd" >
<svg>
<metadata>
Created by FontForge 20090914 at Thu Jul 18 15:06:34 2019
 By www-data
Copyright 2011 The Lora Project Authors (https://github.com/cyrealtype/Lora-Cyrillic), with Reserved Font Name "Lora".
</metadata>
<defs>
<font id="Lora-Regular" horiz-adv-x="0" >
  <font-face 
    font-family="Lora"
    font-weight="400"
    font-stretch="normal"
    units-per-em="1000"
    panose-1="0 0 5 0 0 0 0 0 0 0"
    ascent="800"
    descent="-200"
    x-height="499.998"
    cap-height="700"
    bbox="-775 -271 1258 1114"
    underline-thickness="50"
    underline-position="-50"
    unicode-range="U+000D-U+FB02"
  />
<missing-glyph horiz-adv-x="529" 
d="M50 500h414v-500h-414v500zM381 38v424h-248v-424h248z" />
    <glyph glyph-name="fi" unicode="fi" horiz-adv-x="623" 
d="M50 30c19.333 0 33.167 4.83301 41.5 14.5s13.333 22 15 37s2.5 38.5 2.5 70.5l-2 305l-82 -2v45h82v2c0 81.333 20.833 144.666 62.5 189.999s107.834 68 198.501 68c45.333 0 83.5 -8.16699 114.5 -24.5s46.5 -37.5 46.5 -63.5c0 -14 -4 -25.333 -12 -34
s-19 -13 -33 -13s-24.667 4.5 -32 13.5s-11 18.5 -11 28.5c0 11.333 1.66699 20.333 5 27c-25.333 18.667 -58 28 -98 28c-47.333 0 -85 -15.667 -113 -47s-42 -77.333 -42 -138v-37h229c20.667 0 38.167 1 52.5 3s22.833 4.33301 25.5 7h29v-404
c0 -30 -1.33301 -52.667 -4 -68l63 3v-41h-204v30c19.333 0 33.166 4.83301 41.499 14.5s13.333 22 15 37s2.5 38.5 2.5 70.5v248c0 19.333 1.33301 41 4 65l-254 -6l1 -354c0 -29.333 -1.33301 -51.666 -4 -66.999l63 3v-41h-203v30z" />
    <glyph glyph-name="fl" unicode="fl" horiz-adv-x="637" 
d="M49 30c19.333 0 33.167 4.83301 41.5 14.5s13.333 22 15 37s2.5 38.5 2.5 70.5l-1 305l-82 -2v45h82v31c0 73.333 16.667 129.833 50 169.5s78 59.5 134 59.5c20 0 37.667 -1.16699 53 -3.5s33.333 -5.5 54 -9.5c28 -5.33301 47.333 -8 58 -8c20 0 39.333 5.33301 58 16
h29v-649v-28c0 -14 -1 -27.333 -3 -40l63 3v-41h-204v30c19.333 0 33.166 4.83301 41.499 14.5s13.333 22 15 37s2.5 38.5 2.5 70.5v530c-19.333 12 -43.166 21 -71.499 27s-53.5 9 -75.5 9c-43.333 0 -73.833 -11.833 -91.5 -35.5s-26.5 -59.167 -26.5 -106.5v-76h135v-39
l-135 -3l1 -352c0 -30 -1.33301 -52.667 -4 -68l63 3v-41h-204v30z" />
    <glyph glyph-name=".notdef" horiz-adv-x="529" 
d="M50 500h414v-500h-414v500zM381 38v424h-248v-424h248z" />
    <glyph glyph-name="NULL" 
 />
    <glyph glyph-name="NULL" 
 />
    <glyph glyph-name="nonmarkingreturn" unicode="&#xd;" horiz-adv-x="263" 
 />
    <glyph glyph-name="space" unicode=" " horiz-adv-x="263" 
 />
    <glyph glyph-name="exclam" unicode="!" horiz-adv-x="266" 
d="M75 643c-1.33301 18.667 3.16699 35.5 13.5 50.5s25.166 22.5 44.499 22.5c20 0 34.833 -7.33301 44.5 -22s13.834 -31.667 12.501 -51l-39 -413h-37zM91 2.5c-11.333 12.333 -17 27.5 -17 45.5s5.83301 33.333 17.5 46s25.5 19 41.5 19c16.667 0 30.5 -6.33301 41.5 -19
s16.5 -28 16.5 -46s-5.83301 -33.167 -17.5 -45.5s-25.5 -18.5 -41.5 -18.5s-29.667 6.16699 -41 18.5z" />
    <glyph glyph-name="quotedbl" unicode="&#x22;" horiz-adv-x="346" 
d="M61.6592 716h78.1201l-8.37012 -225h-61.3799zM204.659 716h78.1201l-8.37012 -225h-61.3799z" />
    <glyph glyph-name="numbersign" unicode="#" horiz-adv-x="830" 
d="M199 178h-166l16 60h164l55 231h-169l16 60h167l44 187h66l-43 -187h213l44 187h66l-43 -187h167v-1l-15 -59h-166l-52 -231h167l-16 -60h-164l-44 -194h-72l45 194h-209l-44 -194h-72zM493 238l54 231h-212l-52 -231h210z" />
    <glyph glyph-name="dollar" unicode="$" horiz-adv-x="529" 
d="M244 -16c-22.667 0.666992 -46.6641 4.99805 -71.9971 12.998s-47.333 18 -66 30l5 -40h-54v211h35c3.33301 -59.333 20.833 -103.333 52.5 -132s75.167 -43 130.5 -43c38.667 0 70.5 11.667 95.5 35s37.5 53.333 37.5 90c0 27.333 -7.33301 51 -22 71
s-32.834 37.167 -54.501 51.5s-50.834 30.833 -87.501 49.5c-42 22 -75.833 41.667 -101.5 59s-47.5 39.5 -65.5 66.5s-27 59.167 -27 96.5c0 24 6.5 49.333 19.5 76s33.667 49.5 62 68.5s64.166 28.833 107.499 29.5v117h54l-1 -117
c42.667 -4.66699 79.667 -18.667 111 -42l-4 42h50v-218h-37c-7.33301 120 -60.333 180 -159 180c-39.333 0 -69.5 -11.667 -90.5 -35s-31.5 -51 -31.5 -83c0 -25.333 7.16699 -47.666 21.5 -66.999s32.333 -36 54 -50s50.834 -30.667 87.501 -50
c43.333 -22.667 78 -42.667 104 -60s48.167 -39.5 66.5 -66.5s27.5 -59.167 27.5 -96.5c0 -49.333 -16.833 -91.666 -50.5 -126.999s-81.834 -55 -144.501 -59v-137h-52z" />
    <glyph glyph-name="percent" unicode="%" horiz-adv-x="870" 
d="M119 361c-27.333 17.333 -48 40.3291 -62 68.9961s-21 59.334 -21 92.001s7.33301 64 22 94s36.167 54.167 64.5 72.5s61.833 27.5 100.5 27.5c38 0 70.5 -8.66699 97.5 -26s47.167 -40.166 60.5 -68.499s20 -58.166 20 -89.499c0 -34 -8.33301 -66.167 -25 -96.5
s-39 -54.666 -67 -72.999s-58.667 -27.5 -92 -27.5c-38 0 -70.667 8.66699 -98 26zM123 17.9961l564 698l45 -40l-567 -693zM292.5 417.496c15 28.333 22.499 61.167 22.499 98.5c0 42 -7.66699 80 -23 114s-40 51 -74 51c-33.333 0 -57.666 -15.333 -72.999 -46
s-23 -62.667 -23 -96c0 -41.333 7.5 -79 22.5 -113s40.167 -51 75.5 -51c33.333 0 57.5 14.167 72.5 42.5zM550.999 10.4971c-27.333 17.667 -47.832 40.6689 -61.499 69.002s-20.5 58.166 -20.5 89.499c0 34 8.33301 66 25 96s39.167 54.167 67.5 72.5
s59.166 27.5 92.499 27.5c38 0 70.667 -8.66699 98 -26s48 -40.333 62 -69s21 -59.334 21 -92.001c0 -32 -7.33301 -63 -22 -93s-36 -54.333 -64 -73s-61 -28 -99 -28c-38.667 0 -71.667 8.83301 -99 26.5zM727 65.499c14.667 30.333 22.001 62.5 22.001 96.5
c0 41.333 -7.5 79 -22.5 113s-40.167 51 -75.5 51c-33.333 0 -57.5 -14.167 -72.5 -42.5s-22.5 -61.166 -22.5 -98.499c0 -40.667 8.16699 -78.334 24.5 -113.001s41.166 -52 74.499 -52s57.333 15.167 72 45.5z" />
    <glyph glyph-name="ampersand" unicode="&#x26;" horiz-adv-x="695" 
d="M155.5 4.5c-35.667 13.667 -64.5 35.166 -86.5 64.499s-33 66.333 -33 111c0 42 13.833 79.833 41.5 113.5s66.167 61.167 115.5 82.5c-26.667 34 -46 65.167 -58 93.5s-18 58.166 -18 89.499c0.666992 47.333 18.167 85.333 52.5 114s78.5 43 132.5 43
c32.667 0 61.667 -6.16699 87 -18.5s45 -29.166 59 -50.499s21 -45 21 -71c0 -38.667 -12.833 -74.167 -38.5 -106.5s-67.5 -63.166 -125.5 -92.499l80 -84c28.667 -30 63.667 -64.333 105 -103c6.66699 22.667 10 44 10 64c0 26.667 -5.83301 49.667 -17.5 69
s-31.167 29.666 -58.5 30.999v33h175v-41l-83 4c20.667 -18 31 -48 31 -90c0 -33.333 -6.66699 -67.666 -20 -102.999l20 -18l30 -27c28.667 -26 54 -45.667 76 -59s38.667 -20 50 -20v-33h-93c-7.33301 0 -22 7 -44 21s-48.667 34.667 -80 62
c-51.333 -66 -123 -99 -215 -99c-41.333 0 -79.833 6.83301 -115.5 20.5zM365 481.999c18.667 30 28 60.333 28 91c0 32.667 -8.5 59.334 -25.5 80.001s-40.5 31 -70.5 31c-28 0 -51 -10.333 -69 -31s-27 -49.334 -27 -86.001c0 -50 27.333 -105.333 82 -166
c36 24 63.333 51 82 81zM454 110.999c-13.333 12 -23 21 -29 27l-15 14l-83.5 82.5c-45.667 45 -81.5 82.5 -107.5 112.5c-28.667 -17.333 -49.667 -40.5 -63 -69.5s-20 -56.5 -20 -82.5c0 -53.333 15.333 -93.5 46 -120.5s67.667 -40.5 111 -40.5
c68 0 121.667 25.667 161 77z" />
    <glyph glyph-name="quotesingle" unicode="'" horiz-adv-x="208" 
d="M62 716h84l-9 -225h-66z" />
    <glyph glyph-name="parenleft" unicode="(" horiz-adv-x="305" 
d="M288 737c-50.667 -67.333 -88.5 -143.162 -113.5 -227.495s-37.5 -174.5 -37.5 -270.5c0 -190.667 50.333 -353 151 -487l-25 -23c-36 33.333 -71.333 76.166 -106 128.499s-63.5 111.666 -86.5 177.999s-34.5 134.166 -34.5 203.499s11.5 138.166 34.5 206.499
s51.833 129.666 86.5 183.999s70 97.833 106 130.5z" />
    <glyph glyph-name="parenright" unicode=")" horiz-adv-x="305" 
d="M18 -248c50.667 67.333 88.5 143.162 113.5 227.495s37.5 174.5 37.5 270.5c0 190.667 -50.333 353 -151 487l25 23c36 -33.333 71.333 -76.166 106 -128.499s63.5 -111.666 86.5 -177.999s34.5 -134.166 34.5 -203.499s-11.5 -138.166 -34.5 -206.499
s-51.833 -129.666 -86.5 -183.999s-70 -97.833 -106 -130.5z" />
    <glyph glyph-name="asterisk" unicode="*" horiz-adv-x="520" 
d="M111 330c0 16.667 9.00586 35.333 27.0059 56l50 51.5c17.333 17.667 33.333 31.834 48 42.501c-26.667 1.33301 -72.334 8 -137.001 20c-39.333 8.66699 -59 24 -59 46c0 5.33301 0.666992 9.66602 2 12.999c5.33301 16 17.333 24 36 24c14.667 0 30 -4 46 -12
c21.333 -9.33301 43.166 -19.666 65.499 -30.999s40.833 -22 55.5 -32c-8 26.667 -15.667 72 -23 136c-0.666992 4 -1 9.66699 -1 17c0 15.333 3 28.333 9 39s16 16 30 16c13.333 0 22.833 -4.83301 28.5 -14.5s8.5 -22.167 8.5 -37.5c0 -9.33301 -0.333008 -16 -1 -20
c-7.33301 -64 -15 -109.333 -23 -136c20 12.667 43.667 25.667 71 39s44 21.333 50 24c16 8 31 12 45 12c19.333 0 31.666 -8 36.999 -24c1.33301 -3.33301 2 -7.66602 2 -12.999c0 -21.333 -19.667 -36.666 -59 -45.999
c-4.66699 -0.666992 -22.334 -3.83398 -53.001 -9.50098s-58.334 -9.16699 -83.001 -10.5c24 -18.667 56.667 -50 98 -94c18.667 -20 28 -38.333 28 -55c0 -12 -5 -21.667 -15 -29c-6.66699 -4.66699 -13.334 -7 -20.001 -7c-16.667 0 -34 14.333 -52 43
c-2.66699 5.33301 -11.667 22 -27 50s-27 53 -35 75c-10 -24.667 -30.667 -66.334 -62 -125.001c-16.667 -28.667 -34 -43 -52 -43c-7.33301 0 -14.333 2.33301 -21 7c-9.33301 7.33301 -14 16.666 -14 27.999z" />
    <glyph glyph-name="plus" unicode="+" horiz-adv-x="515" 
d="M225 288l-190 -1v60l190 -1v197h65v-197l190 -1v-56l-190 -1v-206h-65v206z" />
    <glyph glyph-name="comma" unicode="," horiz-adv-x="253" 
d="M91 -159c11.333 14.667 22 35.333 32 62s15 53 15 79c0 8 -0.333008 14 -1 18c-8.66699 -4 -17 -6 -25 -6c-13.333 0 -24.333 4.66699 -33 14s-13 21 -13 35c0 18 5.33301 32.167 16 42.5s23.667 15.5 39 15.5c22 0 39.333 -8.5 52 -25.5s19 -38.833 19 -65.5
c0 -27.333 -7.16699 -60.333 -21.5 -99s-31.833 -68.667 -52.5 -90z" />
    <glyph glyph-name="hyphen" unicode="-" horiz-adv-x="489" 
d="M67 355h355v-66l-355 -4v70z" />
    <glyph glyph-name="period" unicode="." horiz-adv-x="246" 
d="M81 2.5c-11.333 12.333 -17 27.5 -17 45.5s5.83301 33.333 17.5 46s25.5 19 41.5 19c16.667 0 30.5 -6.33301 41.5 -19s16.5 -28 16.5 -46s-5.83301 -33.167 -17.5 -45.5s-25.5 -18.5 -41.5 -18.5s-29.667 6.16699 -41 18.5z" />
    <glyph glyph-name="slash" unicode="/" horiz-adv-x="690" 
d="M21 -235l584 995l65 -41l-591 -990z" />
    <glyph glyph-name="zero" unicode="0" horiz-adv-x="621" 
d="M114 90c-38.667 70.667 -58 156.335 -58 257.002c0 60.667 9.16699 119.167 27.5 175.5s46.833 102.666 85.5 138.999s87.334 54.5 146.001 54.5c60.667 0 109.667 -17.833 147 -53.5s64 -80.834 80 -135.501s24 -113 24 -175c0 -60 -8.83301 -118 -26.5 -174
s-45.667 -102.333 -84 -139s-86.5 -55 -144.5 -55c-92.667 0 -158.334 35.333 -197.001 106zM429 112.501c22.667 59.667 34 132.499 34 218.499c0 96 -11.5 177.833 -34.5 245.5s-61.5 101.5 -115.5 101.5c-53.333 0 -92.333 -30.333 -117 -91s-37 -133.667 -37 -219
c0 -89.333 11.833 -169.166 35.5 -239.499s64.5 -105.5 122.5 -105.5c52 0 89.333 29.833 112 89.5z" />
    <glyph glyph-name="one" unicode="1" horiz-adv-x="364" 
d="M74 33c32.667 1.33301 55.333 11.333 68 30s19 46.667 19 84l-1 472h-2l-120 -77l-20 29l195 145h34l1 -607c0 -33.333 -1 -56.333 -3 -69l84 4v-44h-255v33z" />
    <glyph glyph-name="two" unicode="2" horiz-adv-x="537" 
d="M66.5 102c13.667 30 30.498 56.502 50.498 79.502s48.667 51.833 86 86.5c26 24 39.333 36.333 40 37c42.667 40.667 73.834 78.667 93.501 114s29.5 69.666 29.5 102.999c0 44 -9.5 80.833 -28.5 110.5s-50.5 44.5 -94.5 44.5c-27.333 0 -51.666 -6.66699 -72.999 -20
s-35.666 -30.333 -42.999 -51c12 -12.667 18 -27.334 18 -44.001c0 -11.333 -4 -22 -12 -32s-19.667 -15 -35 -15c-14.667 0 -26.334 5.16699 -35.001 15.5s-13 23.5 -13 39.5c0 20.667 8.16699 42.334 24.5 65.001s40.333 41.834 72 57.501s69.167 23.5 112.5 23.5
c60 0 110 -14.5 150 -43.5s60 -74.833 60 -137.5c0 -35.333 -15.5 -75 -46.5 -119s-80.833 -94 -149.5 -150c-46.667 -38.667 -84.167 -74.334 -112.5 -107.001s-44.833 -60.334 -49.5 -83.001l177 -5c14.667 -0.666992 34.667 -1 60 -1c36.667 0 63.667 4.66699 81 14
s26 28 26 56h30l-6 -140h-433c0 38 6.83301 72 20.5 102z" />
    <glyph glyph-name="three" unicode="3" horiz-adv-x="557" 
d="M139.5 5c-31.667 14 -55.5 31.332 -71.5 51.999s-24 41.667 -24 63c0 16 4.33301 29.167 13 39.5s20.667 15.5 36 15.5s26.5 -4.83301 33.5 -14.5s10.5 -19.834 10.5 -30.501s-3.66699 -24 -11 -40c6 -21.333 20.333 -37.333 43 -48s49 -16 79 -16
c48 0 86 13.167 114 39.5s42 63.833 42 112.5c0 51.333 -12.333 92.666 -37 123.999s-69 47 -133 47c-6.66699 0 -21.334 -0.666992 -44.001 -2v45h41c32.667 0 59.334 7.5 80.001 22.5s35.667 33.5 45 55.5s14 43.333 14 64c0 44.667 -9 79.667 -27 105s-48.667 38 -92 38
c-28 0 -53 -7.5 -75 -22.5s-36 -31.5 -42 -49.5c10.667 -11.333 16 -25 16 -41c0 -10 -3.66699 -19.667 -11 -29s-18.333 -14 -33 -14c-14 0 -25 4.83301 -33 14.5s-12 21.834 -12 36.501c0 20 7.83301 41.167 23.5 63.5s39 41.333 70 57s67.833 23.5 110.5 23.5
c58.667 0 107 -14.167 145 -42.5s57 -72.166 57 -131.499c0 -34.667 -13 -66.667 -39 -96s-67.667 -53 -125 -71c63.333 -7.33301 113.166 -27.833 149.499 -61.5s54.5 -76.5 54.5 -128.5c0 -43.333 -11.5 -80.166 -34.5 -110.499s-53.667 -53 -92 -68
s-80.166 -22.5 -125.499 -22.5s-83.833 7 -115.5 21z" />
    <glyph glyph-name="four" unicode="4" horiz-adv-x="542" 
d="M229 33l7 -0.000976562c32 2 53.333 13.333 64 34s16 51.334 16 92.001v34h-304v49l362 474h33v-463l101 -1v-59h-101v-84c0 -34 -1.33301 -57.667 -4 -71l77 3v-41h-251v33zM316 573.999h-2l-236 -316l238 -3v319z" />
    <glyph glyph-name="five" unicode="5" horiz-adv-x="544" 
d="M147.5 5c-31 14 -54.667 31.499 -71 52.499s-24.5 41.833 -24.5 62.5c0 16 4.33301 29.167 13 39.5s20.667 15.5 36 15.5s26.5 -4.83301 33.5 -14.5s10.5 -19.834 10.5 -30.501c0 -11.333 -3.66699 -24.333 -11 -39c4 -22 18 -38.833 42 -50.5s49.333 -17.5 76 -17.5
c47.333 0 83.166 16.333 107.499 49s36.5 72.667 36.5 120c0 131.333 -51.667 197 -155 197c-18.667 0 -41.334 -3.33301 -68.001 -10s-48 -15 -64 -25l-28 26l-2 320h259c37.333 0 63.333 5 78 15s22 26.667 22 50h27l-6 -132l-334 -7v-220
c18.667 8 40.834 14.667 66.501 20s51.834 8 78.501 8c52 0 95.167 -10.667 129.5 -32s59.666 -49 75.999 -83s24.5 -70.333 24.5 -109c0 -47.333 -11.167 -88.166 -33.5 -122.499s-52.166 -60.166 -89.499 -77.499s-78.333 -26 -123 -26c-40 0 -75.5 7 -106.5 21z" />
    <glyph glyph-name="six" unicode="6" horiz-adv-x="578" 
d="M111.5 72.5c-37 59 -55.5049 144.502 -55.5049 256.502c0 51.333 7.66699 106.5 23 165.5s43.333 110.667 84 155s95.667 66.5 165 66.5c37.333 0 69.333 -6.83301 96 -20.5s46.834 -30.334 60.501 -50.001s20.5 -38.5 20.5 -56.5
c0 -14.667 -3.66699 -26.834 -11 -36.501s-18 -14.834 -32 -15.501c-15.333 -0.666992 -26.666 3.5 -33.999 12.5s-11 18.833 -11 29.5c0 14 4 28 12 42c-4 14 -15.167 27.167 -33.5 39.5s-40.166 18.5 -65.499 18.5c-66.667 0 -112.667 -34.833 -138 -104.5
s-39.333 -143.5 -42 -221.5c18 24.667 41.333 44.834 70 60.501s61.334 23.5 98.001 23.5c50 0 90.833 -11 122.5 -33s54.334 -50 68.001 -84s20.5 -69.667 20.5 -107c0 -41.333 -10.167 -79.5 -30.5 -114.5s-48.333 -62.833 -84 -83.5s-75.5 -31 -119.5 -31
c-85.333 0 -146.5 29.5 -183.5 88.5zM395.495 71.002c21.667 32 32.5 72.001 32.5 120.001c0 51.333 -9.5 97.666 -28.5 138.999s-53.167 62 -102.5 62c-30.667 0 -60.167 -11 -88.5 -33s-47.5 -47.667 -57.5 -77c4 -74.667 17.333 -136.5 40 -185.5s58 -73.5 106 -73.5
c44 0 76.833 16 98.5 48z" />
    <glyph glyph-name="seven" unicode="7" horiz-adv-x="461" 
d="M160 28c0 16 4.66797 37.501 14.001 64.501s22.666 61.5 39.999 103.5l14 36l13 33l83.5 207c21.667 52.667 45.167 105.667 70.5 159l-264 -1c-56.667 -1.33301 -85 -27.333 -85 -78h-24v148h419v-68c-30.667 -62.667 -56.5 -123.167 -77.5 -181.5
s-38.833 -114.833 -53.5 -169.5s-34.667 -133.334 -60 -236.001c-10.667 -40.667 -28 -61 -52 -61c-25.333 0 -38 14.667 -38 44z" />
    <glyph glyph-name="eight" unicode="8" horiz-adv-x="562" 
d="M174.5 0.5c-33 11 -60.501 28.832 -82.501 53.499s-33 56.667 -33 96c0 74 50.667 142.333 152 205c-92 55.333 -138 115.333 -138 180c0 40 10.167 73.5 30.5 100.5s46.833 47.167 79.5 60.5s66.667 20 102 20c34.667 0 66.834 -6.33301 96.501 -19
s53.5 -31.167 71.5 -55.5s27 -53.166 27 -86.499c0 -37.333 -12.5 -70.833 -37.5 -100.5s-57.5 -54.5 -97.5 -74.5c49.333 -28.667 89.5 -61.5 120.5 -98.5s46.5 -75.5 46.5 -115.5c0 -59.333 -22.5 -104.5 -67.5 -135.5s-101.167 -46.5 -168.5 -46.5
c-34.667 0 -68.5 5.5 -101.5 16.5zM378.499 469.999c15.667 26 23.499 52.001 23.499 78.001c0 41.333 -10.5 73.166 -31.5 95.499s-49.5 33.5 -85.5 33.5c-37.333 0 -66.5 -11.833 -87.5 -35.5s-31.5 -51.834 -31.5 -84.501c0 -35.333 13.333 -66.666 40 -93.999
s61.334 -48.333 104.001 -63c30 20.667 52.833 44 68.5 70zM378.998 56.5c23.333 21.667 35.001 51.834 35.001 90.501c0 80 -55 143.333 -165 190c-36.667 -26 -63.5 -55.333 -80.5 -88s-25.5 -63.334 -25.5 -92.001c0 -40 12.667 -72.167 38 -96.5
s58.666 -36.5 99.999 -36.5c42 0 74.667 10.833 98 32.5z" />
    <glyph glyph-name="nine" unicode="9" horiz-adv-x="578" 
d="M155 2.5c-27.333 12.333 -47.5029 28.001 -60.5029 47.001s-19.5 38.167 -19.5 57.5c0 14.667 3.83301 27 11.5 37s18.5 15.333 32.5 16c14.667 0.666992 25.834 -3.66602 33.501 -12.999s11.5 -19.333 11.5 -30c0 -14 -4.66699 -27.667 -14 -41
c4.66699 -16 15.334 -29 32.001 -39s40 -15 70 -15c66.667 0 112.334 33.5 137.001 100.5s36.667 141.5 36 223.5c-18 -24.667 -41.333 -44.834 -70 -60.501s-61.334 -23.5 -98.001 -23.5c-50 0 -90.667 11 -122 33s-53.666 49.833 -66.999 83.5s-20 69.167 -20 106.5
c0 43.333 9.66699 82.5 29 117.5s47 62.667 83 83s77.333 30.5 124 30.5c87.333 0 148.333 -31.333 183 -94s52 -150.334 52 -263.001c0 -99.333 -18.5 -186.5 -55.5 -261.5s-105.833 -112.833 -206.5 -113.5c-40.667 0 -74.667 6.16699 -102 18.5zM366.497 340.001
c28.333 22 47.499 47.665 57.499 76.998c-4 74.667 -17.167 136.834 -39.5 186.501s-58.166 74.5 -107.499 74.5c-40.667 0 -72.5 -16.667 -95.5 -50s-34.5 -73.666 -34.5 -120.999c0 -51.333 9.5 -97.5 28.5 -138.5s53.167 -61.5 102.5 -61.5c30.667 0 60.167 11 88.5 33z
" />
    <glyph glyph-name="colon" unicode=":" horiz-adv-x="250" 
d="M84 2.5c-11.333 12.333 -17 27.5 -17 45.5s5.83301 33.333 17.5 46s25.5 19 41.5 19c16.667 0 30.5 -6.33301 41.5 -19s16.5 -28 16.5 -46s-5.83301 -33.167 -17.5 -45.5s-25.5 -18.5 -41.5 -18.5s-29.667 6.16699 -41 18.5zM84 405.5c-11.333 12.333 -17 27.5 -17 45.5
s5.83301 33.333 17.5 46s25.5 19 41.5 19c16.667 0 30.5 -6.33301 41.5 -19s16.5 -28 16.5 -46s-5.83301 -33.167 -17.5 -45.5s-25.5 -18.5 -41.5 -18.5s-29.667 6.16699 -41 18.5z" />
    <glyph glyph-name="semicolon" unicode=";" horiz-adv-x="263" 
d="M95 -159c11.333 14.667 22 35.333 32 62s15 53 15 79c0 8 -0.333008 14 -1 18c-8.66699 -4 -17 -6 -25 -6c-13.333 0 -24.333 4.66699 -33 14s-13 21 -13 35c0 18 5.33301 32.167 16 42.5s23.667 15.5 39 15.5c22 0 39.333 -8.5 52 -25.5s19 -38.833 19 -65.5
c0 -27.333 -7.16699 -60.333 -21.5 -99s-31.833 -68.667 -52.5 -90zM87 405.499c-11.333 12.333 -17 27.5 -17 45.5s5.83301 33.333 17.5 46s25.5 19 41.5 19c16.667 0 30.5 -6.33301 41.5 -19s16.5 -28 16.5 -46s-5.83301 -33.167 -17.5 -45.5s-25.5 -18.5 -41.5 -18.5
s-29.667 6.16699 -41 18.5z" />
    <glyph glyph-name="less" unicode="&#x3c;" horiz-adv-x="542" 
d="M34 279v67l445 198v-62l-377 -166l377 -167v-64z" />
    <glyph glyph-name="equal" unicode="=" horiz-adv-x="592" 
d="M73 437l446 -2v-58l-446 -2v62zM73 249l446 -2v-58l-446 -2v62z" />
    <glyph glyph-name="greater" unicode="&#x3e;" horiz-adv-x="541" 
d="M508 350v-67l-445 -198v62l377 166l-377 167v64z" />
    <glyph glyph-name="question" unicode="?" horiz-adv-x="474" 
d="M169.5 204.5c-15.667 11 -23.5 27.8311 -23.5 50.498c0 17.333 6.33301 33.5 19 48.5s32.334 34.167 59.001 57.5c24.667 20.667 44.834 39.167 60.501 55.5s29.167 35.833 40.5 58.5s17 48 17 76c0 38 -9.66699 68.5 -29 91.5s-50.333 34.5 -93 34.5
c-18 0 -35.167 -3.66699 -51.5 -11s-29.666 -16.5 -39.999 -27.5s-16.5 -21.833 -18.5 -32.5c8 -12.667 12 -25.667 12 -39c0 -10 -4 -19.833 -12 -29.5s-19.333 -14.167 -34 -13.5c-14 0.666992 -24.667 5.83398 -32 15.501s-11 22.167 -11 37.5
c0 20 8.33301 40.833 25 62.5s40.5 39.834 71.5 54.501s66.167 22 105.5 22c46.667 0 85.167 -7.83301 115.5 -23.5s52.333 -36 66 -61s20.5 -51.833 20.5 -80.5c0 -26 -6.83301 -50.333 -20.5 -73s-29.834 -42.5 -48.501 -59.5s-43 -36.833 -73 -59.5
c-29.333 -23.333 -50.333 -41.333 -63 -54s-19 -25.334 -19 -38.001c0 -9.33301 3.5 -17.166 10.5 -23.499s17.5 -9.5 31.5 -9.5c13.333 0 25.666 2.33301 36.999 7l12 -35c-10 -6 -22.333 -10.5 -37 -13.5s-28.334 -4.5 -41.001 -4.5c-22 0 -40.833 5.5 -56.5 16.5z
M194.5 0.498047c-11 11 -16.502 25.167 -16.502 42.5c0 16 5.5 29.833 16.5 41.5s23.5 17.5 37.5 17.5c14.667 0 27.334 -5.83301 38.001 -17.5s16 -25.5 16 -41.5c0 -16.667 -5.16699 -30.667 -15.5 -42s-23.166 -17 -38.499 -17c-14 0 -26.5 5.5 -37.5 16.5z" />
    <glyph glyph-name="at" unicode="@" horiz-adv-x="796" 
d="M211.5 -47.5c-53.667 31.667 -94.001 74.165 -121.001 127.498s-40.5 112.333 -40.5 177c0 61.333 13.833 121.166 41.5 179.499s69.667 106.333 126 144s124.833 56.5 205.5 56.5c69.333 0 129 -15.333 179 -46s87.833 -70.5 113.5 -119.5s38.5 -100.167 38.5 -153.5
c0 -59.333 -10.333 -108 -31 -146s-45.667 -65.5 -75 -82.5s-57.666 -25.5 -84.999 -25.5c-4.66699 0 -11 0.666992 -19 2c-27.333 4.66699 -46.666 15.334 -57.999 32.001s-17 37.667 -17 63c0 17.333 3.33301 44.666 10 81.999h-2c-22 -68 -45.833 -113.833 -71.5 -137.5
s-52.5 -35.5 -80.5 -35.5c-30.667 0 -56 11.667 -76 35s-30 58 -30 104c0 50 9.16699 95.667 27.5 137s45.166 74.333 80.499 99s77.666 37 126.999 37c40 0 76 -4.33301 108 -13l-10 -83c-10.667 -77.333 -17.334 -134.666 -20.001 -171.999
c-0.666992 -7.33301 -1 -18 -1 -32c0 -49.333 12.333 -76.666 37 -81.999c2.66699 -0.666992 6.66699 -1 12 -1c18 0 34.833 8 50.5 24s28.334 38.667 38.001 68s14.5 63 14.5 101c0 102 -24 178 -72 228s-111.333 75 -190 75c-13.333 0 -23.666 -0.333008 -30.999 -1
c-53.333 -4 -99.833 -21.5 -139.5 -52.5s-70.167 -71 -91.5 -120s-32 -101.833 -32 -158.5c0 -71.333 14.167 -130.5 42.5 -177.5s65.333 -81.667 111 -104s95.5 -33.5 149.5 -33.5c96.667 0 171.334 31 224.001 93l24 -25c-32.667 -37.333 -72 -65.166 -118 -83.499
s-97 -27.5 -153 -27.5c-76.667 0 -141.834 15.833 -195.501 47.5zM410.999 161.498c23.333 35.667 42.499 79.999 57.499 132.999s22.5 102.5 22.5 148.5c-16 6 -36.667 9 -62 9c-29.333 0 -54.666 -11.667 -75.999 -35s-37.333 -53.166 -48 -89.499s-16 -72.833 -16 -109.5
c0 -34 4.66699 -60.833 14 -80.5s22.333 -29.5 39 -29.5c22.667 0 45.667 17.833 69 53.5z" />
    <glyph glyph-name="A" unicode="A" horiz-adv-x="626" 
d="M-6 33c16.667 0 30.002 3.83203 40.002 11.499s18.167 17.667 24.5 30s13.833 30.833 22.5 55.5l10 28l206 561h24l223 -569c7.33301 -18 13.666 -37.5 18.999 -58.5s7.66602 -38.167 6.99902 -51.5l68 4v-44h-229v33c39.333 0.666992 59 16.667 59 48
c0 12.667 -3.33301 28.334 -10 47.001l-35 94l-260 -6c-10 -27.333 -21.667 -63 -35 -107c-6.66699 -22 -15 -45 -25 -69l78 4v-44h-187v33zM409.002 258.999l-71 191l-45 123h-2l-42 -113l-54 -152l-17 -49h231z" />
    <glyph glyph-name="B" unicode="B" horiz-adv-x="622" 
d="M55 33c23.333 0.666992 40.001 6 50.001 16s15.667 22.167 17 36.5s2 39.5 2 75.5v420c0 36 1 62.333 3 79l-72 -4v44c97.333 1.33301 172.666 2 225.999 2c78.667 0 139.167 -13.833 181.5 -41.5s63.5 -69.5 63.5 -125.5c0 -36 -14.167 -69.167 -42.5 -99.5
s-69.166 -50.166 -122.499 -59.499v-2c71.333 0 126.166 -16.333 164.499 -49s57.5 -75.667 57.5 -129c0 -40 -10.167 -74.833 -30.5 -104.5s-48.333 -52.334 -84 -68.001s-76.167 -23.5 -121.5 -23.5h-292v33zM284.001 385c52.667 0.666992 91.001 15.168 115.001 43.501
s36 63.166 36 104.499c0 50 -14.5 84.667 -43.5 104s-64.167 29 -105.5 29c-21.333 0 -37.333 -3 -48 -9s-17.834 -15.667 -21.501 -29s-5.5 -33 -5.5 -59v-186zM439.502 77.501c31 26.333 46.5 63.833 46.5 112.5c0 56.667 -15.833 97 -47.5 121s-73.167 36 -124.5 36
c-36.667 0 -71 -1 -103 -3v-226c0 -34.667 -1 -60.667 -3 -78c12.667 -1.33301 36.667 -2 72 -2h34c52.667 0 94.5 13.167 125.5 39.5z" />
    <glyph glyph-name="C" unicode="C" horiz-adv-x="699" 
d="M210.5 31c-51.667 31.333 -91.998 74 -120.998 128s-43.5 114 -43.5 180c0 65.333 13.167 126.666 39.5 183.999s65.666 103.833 117.999 139.5s115.5 53.5 189.5 53.5c73.333 0 140.666 -20.333 201.999 -61l-5 54h54v-232h-36c-6.66699 62 -28.5 110.5 -65.5 145.5
s-84.5 52.5 -142.5 52.5c-47.333 0 -90.5 -13.167 -129.5 -39.5s-69.833 -63.833 -92.5 -112.5s-34 -105 -34 -169c0 -61.333 12 -116.166 36 -164.499s56.333 -86 97 -113s85.667 -40.5 135 -40.5c44.667 0 87.667 10 129 30s75.333 48.333 102 85l26 -21
c-38.667 -54 -83 -91.833 -133 -113.5s-100 -32.5 -150 -32.5c-65.333 0 -123.833 15.667 -175.5 47z" />
    <glyph glyph-name="D" unicode="D" horiz-adv-x="745" 
d="M55 33c23.333 0.666992 40 5.99902 50 15.999s15.667 21.833 17 35.5s2 37.5 2 71.5v432c0 28 1 52 3 72l-72 -4v44l236 1c125.333 0.666992 224.666 -28.666 297.999 -87.999s110 -147.333 110 -264c0 -62.667 -14.667 -120.667 -44 -174
s-72.666 -95.833 -129.999 -127.5s-126.333 -47.5 -207 -47.5h-263v33zM464 78.999c43.333 27.333 76.999 65 100.999 113s36 101.667 36 161c0 97.333 -26.667 173.5 -80 228.5s-133.666 82.5 -240.999 82.5c-23.333 0 -40 -4.66699 -50 -14s-15.667 -20.833 -17 -34.5
s-2 -37.5 -2 -71.5v-426c0 -34.667 -1 -60.667 -3 -78c23.333 -1.33301 59 -2 107 -2c56 0 105.667 13.667 149 41z" />
    <glyph glyph-name="E" unicode="E" horiz-adv-x="622" 
d="M55 33c23.333 0.666992 40.001 6 50.001 16s15.667 21.833 17 35.5s2 37.5 2 71.5v432c0 28 1 52 3 72l-72 -4v44h481l5 -175h-33c0 54.667 -11.833 92 -35.5 112s-56.834 29.333 -99.501 28l-86 -2c-24 -0.666992 -41.333 -5.16699 -52 -13.5s-17.334 -20 -20.001 -35
s-4 -38.5 -4 -70.5v-160l188 -1l-7 86h44v-210h-33c0 24.667 -3 43.5 -9 56.5s-15.167 21.667 -27.5 26s-29.5 6.5 -51.5 6.5l-31 -1l-73 -3v-229c0 -34.667 -1 -60.667 -3 -78l191 3c46.667 0.666992 82.334 12.5 107.001 35.5s37 62.833 37 119.5h34l-6 -195h-516v33z" />
    <glyph glyph-name="F" unicode="F" horiz-adv-x="548" 
d="M55 33c23.333 0.666992 40.002 5.99805 50.002 15.998s15.667 21.833 17 35.5s2 37.5 2 71.5v432c0 28 1 52 3 72l-72 -4v44h464l5 -175h-33c0 54.667 -12.333 92 -37 112s-58.334 29.333 -101.001 28l-73 -2c-23.333 -0.666992 -39.833 -6 -49.5 -16
s-15.334 -22.167 -17.001 -36.5s-2.5 -37.833 -2.5 -70.5v-172l174 -1l-7 87h44v-211h-32c0 25.333 -2.83301 44.333 -8.5 57s-14.5 21.334 -26.5 26.001s-28.667 7 -50 7c-14.667 0 -26 -0.333008 -34 -1l-60 -3v-210c0 -35.333 -1 -61.666 -3 -78.999l102 4v-44h-255v33z
" />
    <glyph glyph-name="G" unicode="G" horiz-adv-x="761" 
d="M210 26.5c-51.333 28.333 -91.333 68.832 -120 121.499s-43 115 -43 187c0 65.333 13.167 127 39.5 185s65.833 105.167 118.5 141.5s116 54.5 190 54.5c36 0 72.5 -4.83301 109.5 -14.5s69.5 -23.167 97.5 -40.5l-4 48h55v-229h-36
c-4.66699 61.333 -26.834 109.333 -66.501 144s-89.167 52 -148.5 52c-47.333 0 -90.5 -13.667 -129.5 -41s-70 -65.166 -93 -113.499s-34.5 -102.833 -34.5 -163.5c0 -62.667 11.333 -118.667 34 -168s54.334 -88 95.001 -116s87 -42 139 -42
c28.667 0 58.167 4.16699 88.5 12.5s57.833 20.833 82.5 37.5v219l-70 -4v44h226v-33c-32 0 -52 -12.167 -60 -36.5s-12 -51.833 -12 -82.5v-153h-27c-28 0 -64 -8.66699 -108 -26c-20 -8 -43.667 -14.333 -71 -19s-52.333 -7 -75 -7c-66.667 0 -125.667 14.167 -177 42.5z
" />
    <glyph glyph-name="H" unicode="H" horiz-adv-x="780" 
d="M55 33c23.333 0.666992 40 5.99805 50 15.998s15.667 21.833 17 35.5s2 37.5 2 71.5v432c0 28 1 52 3 72l-72 -4v44h225v-33c-23.333 -0.666992 -40 -6 -50 -16s-15.667 -21.833 -17 -35.5s-2 -37.5 -2 -71.5v-166h358v210c0 28 1 52 3 72l-72 -4v44h225v-33
c-23.333 -0.666992 -40 -6 -50 -16s-15.667 -21.833 -17 -35.5s-2 -37.5 -2 -71.5v-425c0 -35.333 -1 -61.666 -3 -78.999l72 4v-44h-225v33c23.333 0.666992 40 6 50 16s15.667 21.833 17 35.5s2 37.5 2 71.5v182l-358 -4v-215c0 -35.333 -1 -61.666 -3 -78.999l72 4v-44
h-225v33z" />
    <glyph glyph-name="I" unicode="I" horiz-adv-x="335" 
d="M55 33c23.333 0.666992 40 5.99902 50 15.999s15.667 21.833 17 35.5s2 37.5 2 71.5v432c0 28 1 52 3 72l-72 -4v44h225v-33c-23.333 -0.666992 -40 -6 -50 -16s-15.667 -21.833 -17 -35.5s-2 -37.5 -2 -71.5v-425c0 -35.333 -1 -61.666 -3 -78.999l72 4v-44h-225v33z
" />
    <glyph glyph-name="J" unicode="J" horiz-adv-x="373" 
d="M29 3.5c-20.667 13 -30.998 30.165 -30.998 51.498c0 14.667 4 27 12 37s19.667 15 35 15c13.333 0 23.333 -4.5 30 -13.5s10 -19.167 10 -30.5c0 -9.33301 -1.33301 -16.666 -4 -21.999c3.33301 -6 9.16602 -10.333 17.499 -13s15.5 -3.66699 21.5 -3
c20.667 0.666992 35.667 9.83398 45 27.501s14 46.5 14 86.5v521l-102 -4v44h266v-33c-30.667 0 -51.167 -8.5 -61.5 -25.5s-15.5 -41.5 -15.5 -73.5v-324c0 -63.333 -5.5 -113.833 -16.5 -151.5s-28.333 -65.167 -52 -82.5s-54.834 -26 -93.501 -26
c-29.333 0 -54.333 6.5 -75 19.5z" />
    <glyph glyph-name="K" unicode="K" horiz-adv-x="683" 
d="M55 33c23.333 0.666992 39.999 5.99902 49.999 15.999s15.667 21.833 17 35.5s2 37.5 2 71.5v432c0 28 1 52 3 72l-72 -4v44h225v-33c-23.333 -0.666992 -40 -6 -50 -16s-15.667 -21.833 -17 -35.5s-2 -37.5 -2 -71.5v-164h75l125 197
c24.667 37.333 48.334 65.333 71.001 84l-61 -2v41h215v-33c-30.667 -2.66699 -56.5 -7.66699 -77.5 -15s-41.5 -20.333 -61.5 -39s-41 -45.667 -63 -81l-98 -156c14.667 -9.33301 27.334 -19.5 38.001 -30.5s20.167 -22 28.5 -33l16.5 -21.5l112 -149
c24.667 -32.667 45.167 -56.667 61.5 -72s30.5 -25.333 42.5 -30s26.333 -7 43 -7v-33h-122c-17.333 0 -51 32.667 -101 98l-120 162c-16 20.667 -29.833 37.667 -41.5 51s-22.834 23.333 -33.501 30l-49 -1v-221c0 -35.333 -1 -61.666 -3 -78.999l72 4v-44h-225v33z" />
    <glyph glyph-name="L" unicode="L" horiz-adv-x="578" 
d="M55 33c23.333 0.666992 40 6 50 16s15.667 21.833 17 35.5s2 37.5 2 71.5v432c0 28 1 52 3 72l-72 -4v44h225v-33c-23.333 -0.666992 -40 -6 -50 -16s-15.667 -21.833 -17 -35.5s-2 -37.5 -2 -71.5v-429c0 -34.667 -1 -60.667 -3 -78l187 3
c42.667 0.666992 74.667 14.167 96 40.5s32 68.5 32 126.5h34l-6 -207h-496v33z" />
    <glyph glyph-name="M" unicode="M" horiz-adv-x="918" 
d="M376 115l-118 266.497c-28 65 -55.333 133.5 -82 205.5l-1 -44c-6 -195.333 -9.66699 -334.666 -11 -417.999c0 -10 -0.333008 -17.333 -1 -22c0 -22.667 -1 -43.667 -3 -63l75 4v-44h-191v33c28 0.666992 46.167 8.5 54.5 23.5s13.166 37.833 14.499 68.5l22 535l-72 -3
v43h153l136 -314l114 -264h2l51 129l87 211l98 238h148v-33c-24 0.666992 -41.667 -5.83301 -53 -19.5s-17 -36.834 -17 -69.501l1 -20l26 -455c1.33301 -15.333 2 -36 2 -62l73 3v-44h-224v33c26 0.666992 43.667 8.16699 53 22.5s14 36.833 14 67.5
c0 12.667 -0.333008 22.334 -1 29.001l-26 426c-1.33301 -3.33301 -3.16602 -7.66602 -5.49902 -12.999s-4.83301 -11.666 -7.5 -18.999l-225 -556h-30z" />
    <glyph glyph-name="N" unicode="N" horiz-adv-x="762" 
d="M168 567h-1l3 -428c0 -44.667 -0.666992 -77.667 -2 -99l72 4v-44h-183v33c26.667 0 44.334 7.66699 53.001 23s13 34 13 56l1 548l-67 -4v44h119l426 -570h1l1 458c0 28 1 52 3 72l-72 -4v44h184v-33c-20 -0.666992 -34.833 -4.5 -44.5 -11.5
s-15.834 -16.5 -18.501 -28.5s-4 -28 -4 -48v-35l-2 -560h-48z" />
    <glyph glyph-name="O" unicode="O" horiz-adv-x="794" 
d="M202 37c-53.333 35.333 -92.6689 80.832 -118.002 136.499s-38 114.5 -38 176.5c0 59.333 13.167 117 39.5 173s65.666 102.167 117.999 138.5s115.833 54.5 190.5 54.5c76.667 0 141.834 -18.167 195.501 -54.5s93.834 -82.5 120.501 -138.5s40 -113.667 40 -173
c0 -58.667 -13.167 -116.167 -39.5 -172.5s-65.666 -102.666 -117.999 -138.999s-115.833 -54.5 -190.5 -54.5c-80 0 -146.667 17.667 -200 53zM537.497 69.499c37 29.667 65.001 67.832 84.001 114.499s28.5 95.667 28.5 147c0 56.667 -10.333 111.5 -31 164.5
s-50.667 96.333 -90 130s-85.333 50.5 -138 50.5c-52 0 -96.667 -14.833 -134 -44.5s-65.5 -68.167 -84.5 -115.5s-28.5 -96.666 -28.5 -147.999c0 -52.667 9.66699 -105.5 29 -158.5s48.666 -97 87.999 -132s87 -52.5 143 -52.5c52 0 96.5 14.833 133.5 44.5z" />
    <glyph glyph-name="P" unicode="P" horiz-adv-x="606" 
d="M55 33c23.333 0.666992 40.001 5.99805 50.001 15.998s15.667 21.833 17 35.5s2 37.5 2 71.5v432c0 28 1 52 3 72l-72 -4v44c93.333 1.33301 167.666 2 222.999 2c99.333 0 174.5 -17.333 225.5 -52s76.5 -85.667 76.5 -153c0 -38.667 -10.167 -75.667 -30.5 -111
s-55.333 -64.666 -105 -87.999s-115.5 -35 -197.5 -35c-15.333 0 -27.333 0.333008 -36 1v-145c0 -35.333 -1 -61.666 -3 -78.999l92 5v-45h-245v33zM380.501 324.498c31.667 15 56.667 36.667 75 65s27.5 61.5 27.5 99.5c0 60 -18.333 104 -55 132s-87.334 42 -152.001 42
c-22.667 0 -38.5 -4.66699 -47.5 -14s-14.167 -20.5 -15.5 -33.5s-2 -36.833 -2 -71.5v-239c16.667 -2 38.334 -3 65.001 -3c38 0 72.833 7.5 104.5 22.5z" />
    <glyph glyph-name="Q" unicode="Q" horiz-adv-x="796" 
d="M707.5 -145.5c15 -13 28.666 -22.833 40.999 -29.5s24.833 -10 37.5 -10v-33h-32c-29.333 0 -51.666 0.833008 -66.999 2.5s-31.166 6.5 -47.499 14.5s-34.5 21 -54.5 39c-18.667 16.667 -41.334 39 -68.001 67c-28.667 28.667 -51.167 49 -67.5 61s-34.5 18 -54.5 18
c-78.667 1.33301 -144.167 19.833 -196.5 55.5s-90.833 81 -115.5 136s-37 113.167 -37 174.5c0 59.333 13.167 117 39.5 173s65.666 102.167 117.999 138.5s115.833 54.5 190.5 54.5c76.667 0 141.834 -18.167 195.501 -54.5s93.834 -82.5 120.501 -138.5
s40 -113.667 40 -173c0 -50.667 -10 -101.167 -30 -151.5s-50.167 -94 -90.5 -131s-89.166 -61.833 -146.499 -74.5c27.333 -0.666992 51.166 -5 71.499 -13s44.166 -25 71.499 -51c39.333 -36.667 66.5 -61.5 81.5 -74.5zM172.999 209.5
c19.333 -53 48.667 -97.002 88 -132.002s87 -52.5 143 -52.5c52 0 96.5 14.833 133.5 44.5s65 67.834 84 114.501s28.5 95.667 28.5 147c0 56.667 -10.333 111.5 -31 164.5s-50.667 96.333 -90 130s-85.333 50.5 -138 50.5c-52 0 -96.667 -14.833 -134 -44.5
s-65.5 -68.167 -84.5 -115.5s-28.5 -96.666 -28.5 -147.999c0 -52.667 9.66699 -105.5 29 -158.5z" />
    <glyph glyph-name="R" unicode="R" horiz-adv-x="628" 
d="M55 33c23.333 0.666992 40 5.99707 50 15.9971s15.667 21.833 17 35.5s2 37.5 2 71.5v432c0 28 1 52 3 72l-72 -4v44c69.333 1.33301 121.666 2 156.999 2c32 0 56 -0.333008 72 -1c94 -1.33301 162.833 -17.166 206.5 -47.499s65.5 -74.166 65.5 -131.499
c0.666992 -46 -13 -87.333 -41 -124s-76.667 -62 -146 -76c11.333 -8.66699 21.666 -19 30.999 -31s22 -30.667 38 -56l68 -107c14.667 -23.333 26.834 -41.166 36.501 -53.499s21.334 -22.333 35.001 -30s30.5 -11.5 50.5 -11.5v-33h-126
c-18 15.333 -33.167 31.166 -45.5 47.499s-26.833 37.5 -43.5 63.5l-67 107l-13 21c-10.667 18 -20 32.667 -28 44s-16.667 21.333 -26 30c-6 -0.666992 -15.333 -1 -28 -1c-18 0 -31.333 0.333008 -40 1v-194c0 -35.333 -1 -61.666 -3 -78.999l72 4v-44h-225v33z
M459 510.997c0 50.667 -14.667 88.666 -44 113.999s-74.333 38 -135 38c-23.333 0 -40 -4.66699 -50 -14s-15.667 -20.666 -17 -33.999s-2 -37 -2 -71v-192c20 -1.33301 34.667 -2 44 -2c136 0 204 53.667 204 161z" />
    <glyph glyph-name="S" unicode="S" horiz-adv-x="567" 
d="M194.5 -3c-31.667 8.66699 -59.501 21.333 -83.501 38l5 -43h-52l-6 213h39c3.33301 -57.333 23 -101.5 59 -132.5s81.667 -46.5 137 -46.5c40.667 0 74.834 11.167 102.501 33.5s41.5 52.833 41.5 91.5c0 28.667 -7.83301 53.167 -23.5 73.5s-35 37.333 -58 51
s-54.167 29.5 -93.5 47.5c-44.667 21.333 -80.167 40 -106.5 56s-48.833 37.167 -67.5 63.5s-28 58.833 -28 97.5c0 26.667 6.16699 53.334 18.5 80.001s33.666 49.334 63.999 68.001s70.5 28 120.5 28c30 0 60.167 -3.83301 90.5 -11.5s58.166 -20.834 83.499 -39.501
l-4 43h51v-220h-36c-3.33301 52.667 -20.166 97.167 -50.499 133.5s-72.833 54.5 -127.5 54.5c-40 0 -71.333 -11.167 -94 -33.5s-34 -50.166 -34 -83.499c0 -26.667 7.66699 -49.667 23 -69s34 -35.333 56 -48s53 -28.334 93 -47.001
c45.333 -20.667 81.833 -39.334 109.5 -56.001s51.167 -38.5 70.5 -65.5s29 -60.167 29 -99.5c0 -37.333 -9.16699 -70.333 -27.5 -99s-45.166 -51 -80.499 -67s-77.333 -24 -126 -24c-31.333 0 -62.833 4.33301 -94.5 13z" />
    <glyph glyph-name="T" unicode="T" horiz-adv-x="640" 
d="M208 33c28.667 1.33301 47.168 9.33105 55.501 23.998s12.5 37.334 12.5 68.001v31l1 507l-103 -1c-41.333 0 -70.833 -13.833 -88.5 -41.5s-26.5 -71.5 -26.5 -131.5h-37l6 211h583l6 -211h-38c-0.666992 42 -4.83398 75.5 -12.501 100.5s-20.667 43.667 -39 56
s-44.5 18.5 -78.5 18.5h-85l-1 -545c0 -35.333 -1 -61.666 -3 -78.999l83 4v-44h-235v33z" />
    <glyph glyph-name="U" unicode="U" horiz-adv-x="752" 
d="M213.5 21.5c-41 25 -70.332 63.3311 -87.999 114.998s-26.5 119.834 -26.5 204.501v203c0 42.667 1.33301 81.334 4 116.001l-72 -3v43h224v-33c-29.333 0 -48 -7.66699 -56 -23s-12 -34 -12 -56v-252c0 -58 5.16699 -108.167 15.5 -150.5s30.666 -77 60.999 -104
s73.833 -40.5 130.5 -40.5c69.333 0 120.833 23.833 154.5 71.5s51.167 112.5 52.5 194.5l3 281c0 28 1 52 3 72l-71 -4v44h186v-33c-24 -0.666992 -41 -6 -51 -16s-15.667 -21.833 -17 -35.5s-2 -37.5 -2 -71.5l-2 -232c-0.666992 -96.667 -22.167 -175.5 -64.5 -236.5
s-110.5 -91.5 -204.5 -91.5c-70.667 0 -126.5 12.5 -167.5 37.5z" />
    <glyph glyph-name="V" unicode="V" horiz-adv-x="653" 
d="M95 522c-24 56.667 -38.333 101.999 -43 135.999l-56 -2v44h232v-33l-1 -1c-22 -1.33301 -38.167 -6.16602 -48.5 -14.499s-15.5 -20.5 -15.5 -36.5c0 -15.333 4.66699 -34.333 14 -57l26 -64l30.5 -76l38.5 -93l26 -61c26 -59.333 44.333 -103.333 55 -132h2l37 107
l13 36l88 247l23 64c12.667 36 22.334 60.667 29.001 74l-77 -4v44h203v-33c-29.333 -1.33301 -51.833 -9 -67.5 -23s-29.834 -39 -42.501 -75l-211 -579h-28z" />
    <glyph glyph-name="W" unicode="W" horiz-adv-x="995" 
d="M105 522l-13 38.998c-16 50 -25.667 82.333 -29 97l-56 -2v44h243v-33c-27.333 -1.33301 -46.666 -5.83301 -57.999 -13.5s-17 -20.167 -17 -37.5c0 -16 3.33301 -35.333 10 -58c12 -44.667 28 -94.667 48 -150l12 -35.5l16 -47.5c4 -14 9 -29.333 15 -46l13 -36
c13.333 -36 23.333 -64.667 30 -86h2c13.333 45.333 27 89.333 41 132l79 245c30 90 48 146 54 168h32c8 -27.333 21.667 -70.166 41 -128.499l42 -126.5c20 -57.333 33.667 -98 41 -122c5.33301 -18 14 -45 26 -81c13.333 -38.667 24 -71.667 32 -99h3l41 129
c34 96.667 61.667 180 83 250c7.33301 24.667 14 45.334 20 62.001c12.667 34 23 58.333 31 73l-80 -3v44h203v-33c-24 -2.66699 -42.167 -7.66699 -54.5 -15s-23.333 -20.5 -33 -39.5s-21.834 -50.167 -36.501 -93.5l-51 -152c-53.333 -162 -96.333 -287.667 -129 -377h-30
l-187 535l-176 -535h-29z" />
    <glyph glyph-name="X" unicode="X" horiz-adv-x="649" 
d="M12 33c20 4 37.5039 11.0039 52.5039 21.0039s28.167 22.167 39.5 36.5s26.333 35.166 45 62.499l130 186l-45.5 63l-34.5 48c-52 72.667 -85.333 120.167 -100 142.5s-26.334 44.166 -35.001 65.499l-55 -2v44h259v-33l-44 -2c-32 -0.666992 -48 -9.66699 -48 -27
c0 -6.66699 2 -14 6 -22s10.333 -18.667 19 -32c17.333 -28.667 58.666 -88.334 123.999 -179.001l96 139l50 70c16.667 22.667 29.667 38 39 46l-84 -4v44h197v-33c-28.667 -4 -54.834 -18 -78.501 -42s-49.834 -56.333 -78.501 -97l-113 -160l144 -191l32 -42l69 -93l58 2
v-44h-245v33c40 -2 60 8 60 30c0 12 -6 26.333 -18 43l-33 43c-39.333 49.333 -77.333 99.666 -114 150.999l-99 -147l-29.5 -45c-16.333 -24.667 -33.833 -47.667 -52.5 -69l83 5v-44h-196v33z" />
    <glyph glyph-name="Y" unicode="Y" horiz-adv-x="634" 
d="M215 33c28.667 1.33301 47.166 9.33105 55.499 23.998s12.5 37.334 12.5 68.001v31l1 114l-174 275c-30.667 47.333 -48.667 85 -54 113l-62 -2v44h258v-33c-52 0 -78 -14.667 -78 -44c0 -17.333 8.33301 -39 25 -65l31 -49c42.667 -69.333 79.667 -125.666 111 -168.999
h2l107 204l21 39c19.333 36.667 35.333 62 48 76l-79 -3v44h204v-33c-31.333 -2 -57.5 -12.667 -78.5 -32s-43.833 -51.666 -68.5 -96.999l-126 -238c-0.666992 -32.667 -1.16699 -67.334 -1.5 -104.001s-0.166016 -62.334 0.500977 -77.001
c0 -35.333 -1 -61.666 -3 -78.999l83 4v-44h-235v33z" />
    <glyph glyph-name="Z" unicode="Z" horiz-adv-x="610" 
d="M43 46l12.002 17.001c116.667 160.667 231 330.667 343 510c25.333 39.333 46.666 69.333 63.999 90l-255 -4c-40 -1.33301 -69.667 -15.333 -89 -42s-29 -68 -29 -124h-34l6 207h496v-35l-359 -545c-24.667 -36.667 -47.334 -64.334 -68.001 -83.001l243 4
c46.667 0.666992 84.167 14.667 112.5 42s42.5 68 42.5 122h34l-6 -205h-513v46z" />
    <glyph glyph-name="bracketleft" unicode="[" horiz-adv-x="359" 
d="M80 755h265v-60l-190 -3l-5 -884l197 -3v-60h-268z" />
    <glyph glyph-name="backslash" unicode="\" horiz-adv-x="690" 
d="M670 -235l-584 995l-65 -41l591 -990z" />
    <glyph glyph-name="bracketright" unicode="]" horiz-adv-x="359" 
d="M279 -255h-265v60l190 3l5 884l-197 3v60h268z" />
    <glyph glyph-name="asciicircum" unicode="^" horiz-adv-x="823" 
d="M409 681l-267 -240h-82l308 275h89l306 -279h-88z" />
    <glyph glyph-name="underscore" unicode="_" horiz-adv-x="729" 
d="M57 -50l615 -4v-57h-615v61z" />
    <glyph glyph-name="grave" unicode="`" horiz-adv-x="252" 
d="M67 686c-14 14.667 -21.001 29 -21.001 43c0 10.667 4 20 12 28c8 5.33301 16 8 24 8c14.667 0 28.334 -9 41.001 -27l84 -135l-28 -23z" />
    <glyph glyph-name="a" unicode="a" horiz-adv-x="516" 
d="M72.5 17c-25.667 22 -38.4961 50.667 -38.4961 86c0 38.667 15.5 71.334 46.5 98.001s70 46.5 117 59.5s94.167 19.167 141.5 18.5v62c0 43.333 -6.33301 77.166 -19 101.499s-39.667 36.5 -81 36.5c-20.667 0 -40.334 -4.33301 -59.001 -13s-32.334 -21.667 -41.001 -39
c8.66699 -9.33301 13 -22 13 -38c0 -10 -3.66699 -19.5 -11 -28.5s-18 -13.5 -32 -13.5s-25 4.5 -33 13.5s-12 20.833 -12 35.5c0 22 8.5 42.167 25.5 60.5s40.667 32.833 71 43.5s64.166 16 101.499 16c56 0 97.333 -14.833 124 -44.5s39.667 -76.5 39 -140.5l-1 -225
c0 -21.333 -1.33301 -44 -4 -68l71 4v-42h-143c-2 10 -4.33301 29 -7 57c-48.667 -48.667 -101 -73 -157 -73c-48.667 0 -85.834 11 -111.501 33zM276.004 55.5c20.667 9.66699 41.667 24.5 63 44.5c-0.666992 10 -1 27 -1 51l1 94
c-54.667 -2 -103.334 -13.167 -146.001 -33.5s-64 -51.5 -64 -93.5c0 -24.667 7.33301 -43.667 22 -57s33.334 -20 56.001 -20c25.333 0 48.333 4.83301 69 14.5z" />
    <glyph glyph-name="b" unicode="b" horiz-adv-x="582" 
d="M201 -2c-26 9.33301 -48.6709 25.001 -68.0039 47.001l-24 -45h-35l2 625c0 25.333 1 47 3 65l-71 -4v42c40 0 68.5 2.33301 85.5 7s30.167 11.334 39.5 20.001h29v-298c18.667 18.667 40.834 33.167 66.501 43.5s53.834 15.5 84.501 15.5
c42.667 0 81.334 -10.333 116.001 -31s61.834 -50.334 81.501 -89.001s29.5 -83.334 29.5 -134.001c0 -55.333 -12 -104 -36 -146s-56 -74.5 -96 -97.5s-82.667 -34.5 -128 -34.5c-26.667 0 -53 4.66699 -79 14zM394.496 83.501c28.333 39 42.5 90.166 42.5 153.499
c0 70 -13 125.833 -39 167.5s-64.333 62.5 -115 62.5c-22 0 -43.833 -5.16699 -65.5 -15.5s-40.167 -24.166 -55.5 -41.499v-253c0 -88 39.333 -132 118 -132c48 0 86.167 19.5 114.5 58.5z" />
    <glyph glyph-name="c" unicode="c" horiz-adv-x="532" 
d="M163.5 15c-37.667 20.667 -67.5 50.332 -89.5 88.999s-33 84.334 -33 137.001c0 46.667 11.167 91.167 33.5 133.5s53.333 76.5 93 102.5s84.5 39 134.5 39c36 0 68 -5.66699 96 -17s49.833 -26.333 65.5 -45s23.5 -39 23.5 -61c0 -15.333 -4.33301 -28 -13 -38
s-20.667 -15 -36 -15c-14.667 0 -25.667 4.83301 -33 14.5s-11 19.834 -11 30.501c0 16.667 5 30 15 40c-7.33301 20.667 -21.5 34.834 -42.5 42.501s-41.833 11.5 -62.5 11.5c-30.667 0 -58.167 -8.33301 -82.5 -25s-43.5 -41 -57.5 -73s-21 -70.333 -21 -115
s7.16699 -84.334 21.5 -119.001s34.5 -61.834 60.5 -81.501s56 -29.5 90 -29.5c30 0 59.5 8.16699 88.5 24.5s51.833 36.833 68.5 61.5l26 -20c-24.667 -38.667 -56.5 -68 -95.5 -88s-77.167 -30 -114.5 -30c-45.333 0 -86.833 10.333 -124.5 31z" />
    <glyph glyph-name="d" unicode="d" horiz-adv-x="598" 
d="M147 15c-32.667 20.667 -58.335 49.999 -77.002 87.999s-28 82.333 -28 133c0 53.333 11 101.333 33 144s52.5 76 91.5 100s83.167 36 132.5 36c20.667 0 41.834 -2.83301 63.501 -8.5s39.5 -12.167 53.5 -19.5v137c0 25.333 1 47 3 65l-71 -4v42
c39.333 0 67.5 2.33301 84.5 7s30.167 11.334 39.5 20.001h29v-649c0 -21.333 -1.33301 -44 -4 -68l71 4v-42h-143c-3.33301 18 -5.66602 35.333 -6.99902 52c-19.333 -21.333 -42.833 -38 -70.5 -50s-57.5 -18 -89.5 -18c-41.333 0 -78.333 10.333 -111 31zM359.499 51.499
c22.333 12.333 41.168 28.167 56.501 47.5c-0.666992 10.667 -1 29 -1 55l1 288c-31.333 23.333 -68.333 35 -111 35c-48 0 -86.667 -19.833 -116 -59.5s-44 -92.167 -44 -157.5c0 -68 13 -122.833 39 -164.5s62.667 -62.5 110 -62.5c21.333 0 43.166 6.16699 65.499 18.5z
" />
    <glyph glyph-name="e" unicode="e" horiz-adv-x="542" 
d="M161.5 16.5c-37 21.667 -66.166 52.668 -87.499 93.001s-32 86.833 -32 139.5c0 46.667 10.667 90.5 32 131.5s51.166 73.833 89.499 98.5s81.833 37 130.5 37c38 0 72.333 -8.33301 103 -25s55 -41.5 73 -74.5s27 -73.5 27 -121.5l-352 -6
c-0.666992 -80 12.5 -142.333 39.5 -187s68.833 -67 125.5 -67c30.667 0 62.167 8 94.5 24s57.166 35.667 74.499 59l24 -20c-25.333 -38.667 -58.166 -67.334 -98.499 -86.001s-79.833 -28 -118.5 -28c-46 0 -87.5 10.833 -124.5 32.5zM403.001 331.001
c0 40 -9 74.333 -27 103s-45 43 -81 43c-82.667 0 -131.667 -48.667 -147 -146h255z" />
    <glyph glyph-name="f" unicode="f" horiz-adv-x="338" 
d="M49 30c19.333 0 33.168 4.83301 41.501 14.5s13.333 22 15 37s2.5 38.5 2.5 70.5l-1 305l-82 -2v45h82v21c0 77.333 14.167 136.5 42.5 177.5s74.166 61.5 137.499 61.5c25.333 0 49.5 -6.33301 72.5 -19s34.5 -31 34.5 -55c0 -13.333 -3.83301 -24.166 -11.5 -32.499
s-18.167 -12.5 -31.5 -12.5s-23.5 4.5 -30.5 13.5s-10.5 18.167 -10.5 27.5s1.66699 17.666 5 24.999c-4.66699 5.33301 -11 9.5 -19 12.5s-16 4.5 -24 4.5c-28.667 0 -49 -11.5 -61 -34.5s-18 -51.167 -18 -84.5v-105h135v-39l-135 -3l1 -352
c0 -30 -1.33301 -52.667 -4 -68l63 3v-41h-204v30z" />
    <glyph glyph-name="g" unicode="g" horiz-adv-x="553" 
d="M143 -252c-37.333 12.667 -64.6641 29.3301 -81.9971 49.9971s-26 42.667 -26 66c0 28 9.33301 52.5 28 73.5s40 36.5 64 46.5c-22.667 7.33301 -39.834 17.333 -51.501 30s-17.5 29 -17.5 49c0 24 9.5 46 28.5 66s42.833 32.333 71.5 37
c-31.333 14.667 -56 35.167 -74 61.5s-27 56.5 -27 90.5c0 38.667 10.167 73 30.5 103s46.666 53.333 78.999 70s66.166 25 101.499 25c45.333 0 87.666 -12.333 126.999 -37c10 28.667 26.167 52 48.5 70s46.5 27 72.5 27c16.667 0 29.667 -4.5 39 -13.5
s14 -21.167 14 -36.5c0 -9.33301 -3.5 -18.5 -10.5 -27.5s-17.167 -13.5 -30.5 -13.5c-11.333 0 -21 3.33301 -29 10s-13 15 -15 25c-16 -2 -28.667 -9.16699 -38 -21.5s-16 -27.166 -20 -44.499c16.667 -15.333 29.667 -33.333 39 -54s14 -42.334 14 -65.001
c0 -36.667 -9.66699 -69.667 -29 -99s-45.166 -52.333 -77.499 -69s-67.166 -25 -104.499 -25c-8.66699 0 -19.667 0.666992 -33 2c-10 2 -21.333 3 -34 3c-22 0 -40.5 -4.83301 -55.5 -14.5s-22.5 -21.5 -22.5 -35.5c0 -19.333 12.167 -32.166 36.5 -38.499
s65.833 -10.5 124.5 -12.5c82 -4 143.5 -17.167 184.5 -39.5s61.5 -59.166 61.5 -110.499c0 -34 -11.833 -63.667 -35.5 -89s-54.334 -44.666 -92.001 -57.999s-76.834 -20 -117.501 -20c-57.333 0 -104.666 6.33301 -141.999 19zM353.502 215.996
c19 25.333 28.5 58.333 28.5 99c0 46.667 -10.167 86 -30.5 118s-48.833 48 -85.5 48c-35.333 0 -63 -13.167 -83 -39.5s-30 -60.166 -30 -101.499c0 -48.667 10.5 -87.834 31.5 -117.501s49.833 -44.5 86.5 -44.5c36 0 63.5 12.667 82.5 38zM380.502 -217.504
c27.667 9.66699 48.8311 22.668 63.498 39.001s22 34.166 22 53.499c0 34 -16.167 57.333 -48.5 70s-80.166 20 -143.499 22c-42 1.33301 -76.333 4 -103 8c-18 -12 -32 -26.667 -42 -44s-15 -35.666 -15 -54.999c0 -32.667 15.5 -58.834 46.5 -78.501
s72.167 -29.5 123.5 -29.5c36.667 0 68.834 4.83301 96.501 14.5z" />
    <glyph glyph-name="h" unicode="h" horiz-adv-x="599" 
d="M34 30c19.333 0 33.335 4.83496 42.002 14.502s13.834 22.167 15.501 37.5s2.5 38.666 2.5 69.999v473c0 25.333 1 47 3 65l-71 -4v42c40 0 68.5 2.33301 85.5 7s30.167 11.334 39.5 20.001h29v-305c23.333 19.333 49.666 35.166 78.999 47.499s57.666 18.5 84.999 18.5
c57.333 0 99 -18 125 -54s39.333 -92.667 40 -170l1 -186c0 -30 -1.33301 -52.667 -4 -68l63 3v-41h-204v30c19.333 0 33.166 4.83301 41.499 14.5s13.333 22 15 37s2.5 38.5 2.5 70.5v140c0 57.333 -9 100.166 -27 128.499s-46.333 42.5 -85 42.5
c-24.667 0 -49.167 -5.83301 -73.5 -17.5s-43.833 -26.5 -58.5 -44.5v-295c0 -26 -1.66699 -48.667 -5 -68l63 3v-41h-204v30z" />
    <glyph glyph-name="i" unicode="i" horiz-adv-x="281" 
d="M106 626.5c-10.667 11.667 -15.999 25.501 -15.999 41.501s5.5 30 16.5 42s23.5 18 37.5 18c15.333 0 28.166 -5.83301 38.499 -17.5s15.5 -25.834 15.5 -42.501c0 -16 -5.5 -29.833 -16.5 -41.5s-23.833 -17.5 -38.5 -17.5c-14 0 -26.333 5.83301 -37 17.5z
M44.001 30.001c19.333 0 33.167 4.83203 41.5 14.499s13.333 22 15 37s2.5 38.5 2.5 70.5v228c0 19.333 1.33301 41 4 65l-71 -4v42c39.333 0 67.5 2.33301 84.5 7s30.167 11.334 39.5 20.001h29v-404c0 -30 -1.33301 -52.667 -4 -68l63 3v-41h-204v30z" />
    <glyph glyph-name="j" unicode="j" horiz-adv-x="218" 
d="M95 626.5c-10.667 11.667 -15.999 25.501 -15.999 41.501s5.5 30 16.5 42s23.5 18 37.5 18c15.333 0 28.166 -5.83301 38.499 -17.5s15.5 -25.834 15.5 -42.501c0 -16 -5.5 -29.833 -16.5 -41.5s-23.833 -17.5 -38.5 -17.5c-14 0 -26.333 5.83301 -37 17.5z
M-67.999 -254.999c-13.333 10.667 -19.998 23.998 -19.998 39.998c0 13.333 4.16699 24.5 12.5 33.5s19.166 13.5 32.499 13.5c14 0 24.5 -4.5 31.5 -13.5s10.5 -18.5 10.5 -28.5c0 -4 -0.333008 -7 -1 -9c9.33301 -4 18 -6 26 -6c15.333 0 28.666 5.66699 39.999 17
c19.333 18.667 29 59.334 29 122.001l2 466c0 25.333 1 47 3 65l-71 -4v42c40 0 68.5 2.33301 85.5 7s30.167 11.334 39.5 20.001h29v-513c0 -89.333 -17.333 -156.333 -52 -201s-80.667 -67 -138 -67c-26 0 -45.667 5.33301 -59 16z" />
    <glyph glyph-name="k" unicode="k" horiz-adv-x="537" 
d="M35 30c19.333 0 33.168 4.82812 41.501 14.4951s13.166 21.834 14.499 36.501s2 38.334 2 71.001c0 6.66699 0.166992 43 0.5 109s0.5 187.333 0.5 364c0 25.333 1 47 3 65l-71 -4v42c39.333 0 67.5 2.33301 84.5 7s30.167 11.334 39.5 20.001h29v-473h40l122 128
c25.333 26.667 45 44.334 59 53.001l-68 -3v40h182v-30c-29.333 -3.33301 -56 -14 -80 -32s-50.667 -42.333 -80 -73l-78 -82c12 -5.33301 22.5 -12.166 31.5 -20.499s19.167 -19.5 30.5 -33.5l71 -91c1.33301 -1.33301 8.83301 -11.5 22.5 -30.5s30 -36.667 49 -53
s35.5 -24.5 49.5 -24.5v-30h-91c-16 0 -31 7 -45 21s-34.333 38.333 -61 73l-39 55l-41.5 57.5c-13 17.667 -23.833 30.5 -32.5 38.5l-41 -2v-137c0 -30 -1.33301 -52.667 -4 -68l64 3v-41h-204v30z" />
    <glyph glyph-name="l" unicode="l" horiz-adv-x="272" 
d="M34 30c19.333 0 33.167 4.83203 41.5 14.499s13.333 22 15 37s2.5 38.5 2.5 70.5v473c0 25.333 1 47 3 65l-71 -4v42c40 0 68.5 2.33301 85.5 7s30.167 11.334 39.5 20.001h29l1 -649c0 -26 -1.66699 -48.667 -5 -68l63 3v-41h-204v30z" />
    <glyph glyph-name="m" unicode="m" horiz-adv-x="894" 
d="M44 30c19.333 0 33.1699 4.83691 41.5029 14.5039s13.333 22 15 37s2.5 38.5 2.5 70.5v228c0 28 1.33301 49.667 4 65l-71 -4v42c39.333 0 66.333 2.16699 81 6.5s27 11.166 37 20.499h29c1.33301 -10 2.66602 -27.667 3.99902 -53c20.667 18 44 32.333 70 43
s51.667 16 77 16c32.667 0 60.5 -5.83301 83.5 -17.5s40.833 -28.167 53.5 -49.5c24 19.333 50.833 35.333 80.5 48s58.167 19 85.5 19c58.667 0 101.5 -17.833 128.5 -53.5s39.833 -92.5 38.5 -170.5l-1 -186c0 -30 -1.33301 -52.667 -4 -68l63 3v-41h-204v30
c19.333 0 33.166 4.83301 41.499 14.5s13.333 22 15 37s2.5 38.5 2.5 70.5v140c0 57.333 -9 100.166 -27 128.499s-46.333 42.5 -85 42.5c-20.667 0 -41.5 -4.5 -62.5 -13.5s-39.5 -20.833 -55.5 -35.5c6.66699 -20.667 10 -45 10 -73l-2 -235
c0 -30 -1.33301 -52.667 -4 -68l63 3v-41h-204v30c19.333 0 33.166 4.83301 41.499 14.5s13.166 21.667 14.499 36s2.33301 38.166 3 71.499l1 140c0.666992 58 -7.66602 101.333 -24.999 130s-45 43 -83 43c-20.667 0 -41.167 -4.33301 -61.5 -13
s-37.833 -20.334 -52.5 -35.001l1 -54v-257c0 -30 -1.33301 -52.667 -4 -68l63 3v-41h-204v30z" />
    <glyph glyph-name="n" unicode="n" horiz-adv-x="607" 
d="M44 30c19.333 0 33.1699 4.83496 41.5029 14.502s13.166 21.667 14.499 36s2.33301 38.166 3 71.499l1 228c0 28 1.33301 49.667 4 65l-71 -4v42c39.333 0 66.333 2.16699 81 6.5s27 11.166 37 20.499h29c1.33301 -12.667 2.66602 -33 3.99902 -61
c22.667 20 48.5 36.167 77.5 48.5s57.5 18.5 85.5 18.5c58 0 100.333 -18.167 127 -54.5s40 -92.833 40 -169.5v-186c0 -30 -1.33301 -52.667 -4 -68l63 3v-41h-204v30c19.333 0 33.166 4.83301 41.499 14.5s13.333 22 15 37s2.5 38.5 2.5 70.5v140
c-0.666992 57.333 -10 100.5 -28 129.5s-46.333 43.5 -85 43.5c-24 0 -47.833 -6 -71.5 -18s-43.167 -27.667 -58.5 -47c0.666992 -7.33301 1 -20.333 1 -39l-1 -255c0 -30 -1.33301 -52.667 -4 -68l63 3v-41h-204v30z" />
    <glyph glyph-name="o" unicode="o" horiz-adv-x="585" 
d="M165.5 16.5c-38.333 21.667 -68.668 51.835 -91.001 90.502s-33.5 82.334 -33.5 131.001c0 52 11 99.167 33 141.5s52.167 75.666 90.5 99.999s80.833 36.5 127.5 36.5c46 0 88.333 -11.167 127 -33.5s69.167 -52.833 91.5 -91.5s33.5 -81.667 33.5 -129
c0 -50.667 -11.167 -97.334 -33.5 -140.001s-52.666 -76.334 -90.999 -101.001s-80.833 -37 -127.5 -37c-46 0 -88.167 10.833 -126.5 32.5zM407.498 84.001c23 40 34.499 89.667 34.499 149c0 67.333 -12.5 125 -37.5 173s-62.5 72 -112.5 72
c-49.333 0 -86.5 -20.333 -111.5 -61s-37.5 -90.667 -37.5 -150c0 -42.667 5.83301 -82.5 17.5 -119.5s29.334 -66.833 53.001 -89.5s52.5 -34 86.5 -34c48.667 0 84.5 20 107.5 60z" />
    <glyph glyph-name="p" unicode="p" horiz-adv-x="597" 
d="M35 -225c19.333 0 33.1699 4.83496 41.5029 14.502s13.166 21.667 14.499 36s2.33301 38.166 3 71.499l2 483c0 28 1.33301 49.667 4 65l-71 -4v42c39.333 0 66.333 2.16699 81 6.5s26.667 11.166 36 20.499h30c2.66699 -32.667 4 -50.667 4 -54c20 18 44 32.5 72 43.5
s55.667 16.5 83 16.5c39.333 0 75.666 -10.167 108.999 -30.5s60.166 -49.333 80.499 -87s30.5 -81.167 30.5 -130.5c0 -55.333 -11.667 -104.5 -35 -147.5s-54.5 -76.5 -93.5 -100.5s-81.167 -36 -126.5 -36c-46 0 -86 11 -120 33v-166c0 -30 -1.33301 -52.667 -4 -68l63 3
v-41h-204v30zM379.504 53.002c23 19.333 40.834 46.333 53.501 81s19 74 19 118c0 60 -12.833 110.833 -38.5 152.5s-63.834 62.5 -114.501 62.5c-22 0 -43.333 -5.33301 -64 -16s-38.667 -24 -54 -40c0.666992 -4.66699 1 -25 1 -61l-1 -287c34 -26 73 -39 117 -39
c31.333 0 58.5 9.66699 81.5 29z" />
    <glyph glyph-name="q" unicode="q" horiz-adv-x="576" 
d="M357 -225c19.333 0 33.167 4.83203 41.5 14.499s13.333 22 15 37s2.5 38.5 2.5 70.5v150c-36.667 -42 -86.667 -63 -150 -63c-42 0 -80 10.5 -114 31.5s-60.833 50.833 -80.5 89.5s-29.5 83.334 -29.5 134.001c0 54 11.5 102.167 34.5 144.5s54 75 93 98
s82.167 34.5 129.5 34.5c20.667 0 49 -4.33301 85 -13c22.667 -6 39.667 -9 51 -9c15.333 0 28 5.33301 38 16h28l1 -659c0 -30 -1.33301 -52.667 -4 -68l63 3v-41h-204v30zM364.501 50.499c20.333 11.667 37.5 27.167 51.5 46.5v262c0 41.333 -8.66699 71.666 -26 90.999
s-47 29 -89 29c-48 0 -86 -19.667 -114 -59s-42 -91.666 -42 -156.999c0 -43.333 6.33301 -82.333 19 -117s30.834 -62.167 54.501 -82.5s51.5 -30.5 83.5 -30.5c21.333 0 42.166 5.83301 62.499 17.5z" />
    <glyph glyph-name="r" unicode="r" horiz-adv-x="433" 
d="M44 30c19.333 0 33.166 4.83691 41.499 14.5039s13.333 22 15 37s2.5 38.5 2.5 70.5v228c0 28 1.33301 49.667 4 65l-71 -3v41h31c25.333 0 43.666 2.16699 54.999 6.5s22 11.166 32 20.499h29c2.66699 -26 4.33398 -59 5.00098 -99
c16.667 27.333 40.5 51.666 71.5 72.999s63.167 32 96.5 32c20 0 36.667 -5.33301 50 -16s20 -26.334 20 -47.001c0 -10.667 -4.16699 -21.334 -12.5 -32.001s-20.166 -16 -35.499 -16c-14.667 0 -26.667 5.5 -36 16.5s-13 24.167 -11 39.5
c-25.333 0.666992 -50.833 -9 -76.5 -29s-47.5 -46.667 -65.5 -80l1 -246c0 -30 -1.33301 -52.667 -4 -68l63 3v-41h-205v30z" />
    <glyph glyph-name="s" unicode="s" horiz-adv-x="463" 
d="M163 -3.5c-26 8.33301 -48.3369 18.8281 -67.0039 31.4951l4 -35h-42l-6 172h31c1.33301 -27.333 8.83301 -51.666 22.5 -72.999s31.667 -38.166 54 -50.499s46.166 -18.5 71.499 -18.5c28.667 0 54.167 6.83301 76.5 20.5s33.5 33.167 33.5 58.5
c0 18.667 -5.5 34.334 -16.5 47.001s-24.667 23.167 -41 31.5s-39.166 18.166 -68.499 29.499c-35.333 13.333 -63.666 25.833 -84.999 37.5s-39.666 27.5 -54.999 47.5s-23 45.333 -23 76c0 22 5.33301 44 16 66s28.667 40.667 54 56s59 23 101 23
c20.667 0 41.834 -3.33301 63.501 -10s41.834 -17.667 60.501 -33l-2 38h42v-175h-32c-2 38.667 -13.833 72.167 -35.5 100.5s-52.167 42.5 -91.5 42.5c-30 0 -53.833 -7.5 -71.5 -22.5s-26.5 -32.833 -26.5 -53.5c0 -19.333 5.83301 -35.666 17.5 -48.999
s26.167 -24.666 43.5 -33.999s40.666 -19.666 69.999 -30.999c34.667 -14 62.667 -27 84 -39s39.5 -27.833 54.5 -47.5s22.5 -43.5 22.5 -71.5c0 -32 -8.16699 -59 -24.5 -81s-37.666 -38.5 -63.999 -49.5s-54.5 -16.5 -84.5 -16.5c-31.333 0 -60 4.16699 -86 12.5z" />
    <glyph glyph-name="t" unicode="t" horiz-adv-x="387" 
d="M96 168l1.99902 289.999l-77 -1v43c32 0.666992 59.167 15.167 81.5 43.5s38.833 60.5 49.5 96.5h34v-140h168v-39l-168 -2c-0.666992 -102 -1.16699 -172.667 -1.5 -212s-0.5 -61.333 -0.5 -66c0 -47.333 5.66699 -82.5 17 -105.5s31 -34.5 59 -34.5
c17.333 0 34.5 5.33301 51.5 16s31.833 25.334 44.5 44.001l27 -22c-26 -38.667 -51.667 -64.167 -77 -76.5s-50 -18.5 -74 -18.5c-91.333 0 -136.666 61.333 -135.999 184z" />
    <glyph glyph-name="u" unicode="u" horiz-adv-x="597" 
d="M130.5 33c-26.333 32.667 -39.501 88.999 -39.501 168.999v178c0 28 1.33301 49.667 4 65l-69 -3v41h31c26 0 45.667 2.33301 59 7s24.666 11.334 33.999 20.001h29v-305c0 -58.667 8.16699 -101.667 24.5 -129s43.5 -41 81.5 -41c24.667 0 48.834 7.33301 72.501 22
s42.834 33 57.501 55v257c0 31.333 1.66699 56.666 5 75.999l-72 -3v41h31c26 0 45.667 2.33301 59 7s24.666 11.334 33.999 20.001h29l-1 -378c0 -38.667 -1.33301 -70 -4 -94l72 4v-42h-143c-3.33301 20.667 -5.66602 40.667 -6.99902 60
c-22 -22 -47.667 -40.167 -77 -54.5s-58 -21.5 -86 -21.5c-56.667 0 -98.167 16.333 -124.5 49z" />
    <glyph glyph-name="v" unicode="v" horiz-adv-x="505" 
d="M91 323c-26.667 61.333 -40.667 107.667 -42 139l-43 -3v41h184v-30c-29.333 0 -44 -12.333 -44 -37c0 -18 7 -42.667 21 -74l77 -176l30 -74h1c2 6.66699 4.66699 14 8 22l15 43l80 219c6.66699 19.333 16.667 42.333 30 69l-64 -3v41h158v-30
c-14 0 -26 -4.83301 -36 -14.5s-19.167 -23.167 -27.5 -40.5s-19.5 -44 -33.5 -80l-131 -338h-40z" />
    <glyph glyph-name="w" unicode="w" horiz-adv-x="801" 
d="M85 381c-12.667 36 -21.3311 62.998 -25.998 80.998l-53 -3v41h212v-30c-34 -0.666992 -51 -16 -51 -46c0 -15.333 4.33301 -36 13 -62l78 -237l30 89l96 286h41l133 -382l96 277c11.333 34 21.333 56.333 30 67l-58 -3v41h174v-30
c-22 -1.33301 -39.333 -5.16602 -52 -11.499s-22.334 -14.666 -29.001 -24.999s-13.334 -24.5 -20.001 -42.5l-144 -394h-40l-131 378l-130 -378h-38z" />
    <glyph glyph-name="x" unicode="x" horiz-adv-x="530" 
d="M24 30c18.667 4.66699 33.6641 12.334 44.9971 23.001s28 30 50 58l100 130l-32.5 43l-28.5 39l-38 51c-23.333 30.667 -40.333 59.667 -51 87l-47 -2v41h206v-30c-17.333 -0.666992 -30.166 -3 -38.499 -7s-12.5 -10.333 -12.5 -19c0 -14 10.667 -35.667 32 -65l58 -79
l91 110l16 20c14.667 17.333 24.334 28.333 29.001 33l-69 -4v41h164v-30c-25.333 -7.33301 -45.333 -17.5 -60 -30.5s-37.667 -38.5 -69 -76.5l-77 -92l138 -171c2.66699 -4 8.66699 -12 18 -24s18 -24.667 26 -38l45 3v-41h-193v30c24.667 0 37 7 37 21
c0 7.33301 -4.33301 16.666 -13 27.999l-105 130l-84 -115c-17.333 -23.333 -32.666 -42 -45.999 -56l77 3v-41h-168v30z" />
    <glyph glyph-name="y" unicode="y" horiz-adv-x="528" 
d="M67 -255c-14 10.667 -20.9951 25.6631 -20.9951 44.9961c0 12.667 4.16699 23.834 12.5 33.501s19.166 14.5 32.499 14.5s23.166 -4.66699 29.499 -14s9.5 -19 9.5 -29c0 -6 -0.333008 -10.667 -1 -14c2 -1.33301 5.66699 -2 11 -2c8.66699 0 17.5 3.33301 26.5 10
s17.167 16.334 24.5 29.001c15.333 25.333 38.666 82.333 69.999 171l-156 334c-28 60 -45.667 106 -53 138l-48 -2v41h207v-30h-4c-31.333 -2 -47 -15.333 -47 -40c0 -16.667 8 -42.667 24 -78l117 -251l86 251c22.667 66 39 103 49 111l-69 -4v41h157v-30
c-22.667 -8.66699 -40.167 -22.5 -52.5 -41.5s-25.833 -48.5 -40.5 -88.5l-125 -349c-24 -67.333 -43.833 -118.166 -59.5 -152.499s-33.334 -61.166 -53.001 -80.499s-43.834 -29 -72.501 -29c-22 0 -40 5.33301 -54 16z" />
    <glyph glyph-name="z" unicode="z" horiz-adv-x="511" 
d="M40 41l279 359.002l32 40.5c10.667 13 19 21.167 25 24.5l-188 -3c-34 -0.666992 -57.833 -12.834 -71.5 -36.501s-23.834 -58.5 -30.501 -104.5h-31l12 179h392v-32l-282 -371l-23.5 -28.5c-7.66699 -9 -17.167 -18.167 -28.5 -27.5l193 -3
c38 -0.666992 65.833 11.666 83.5 36.999s29.834 61 36.501 107h29l-12 -182h-415v41z" />
    <glyph glyph-name="braceleft" unicode="{" horiz-adv-x="334" 
d="M155.5 -219.5c-26.333 34.333 -39.499 88.498 -39.499 162.498c0 14.667 0.666992 33.167 2 55.5s2.33301 37.833 3 46.5c3.33301 38 5 68.333 5 91c0 35.333 -7 61 -21 77s-39 24 -75 24h-23v52h23c36 0 61 7.5 75 22.5s21 39.833 21 74.5c0 22.667 -1.66699 49 -5 79
c-0.666992 6.66699 -1.66699 19.334 -3 38.001s-2 35.667 -2 51c0 48.667 5.5 87.834 16.5 117.501s29.333 51.834 55 66.501s61.167 22 106.5 22h28v-34c-34 0.666992 -60.333 -4.16602 -79 -14.499s-31.667 -26.833 -39 -49.5s-11 -54 -11 -94c0 -14.667 2 -42.667 6 -84
c4.66699 -36 7 -65 7 -87c0 -38.667 -10.667 -69 -32 -91s-48 -36 -80 -42v-2c31.333 -6 57.833 -20.667 79.5 -44s32.5 -54.333 32.5 -93c0 -22 -2.33301 -55.333 -7 -100c-4 -49.333 -6 -81.333 -6 -96c0 -60.667 9.16699 -104.834 27.5 -132.501
s52.166 -40.834 101.499 -39.501v-28h-28c-66 0 -112.167 17.167 -138.5 51.5z" />
    <glyph glyph-name="bar" unicode="|" horiz-adv-x="231" 
d="M79 760h75l-4 -1031h-68z" />
    <glyph glyph-name="braceright" unicode="}" horiz-adv-x="334" 
d="M178.5 -219.5c26.333 34.333 39.499 88.498 39.499 162.498c0 14.667 -0.666992 33.167 -2 55.5s-2.33301 37.833 -3 46.5c-3.33301 38 -5 68.333 -5 91c0 35.333 7 61 21 77s39 24 75 24h23v52h-23c-36 0 -61 7.5 -75 22.5s-21 39.833 -21 74.5
c0 22.667 1.66699 49 5 79c0.666992 6.66699 1.66699 19.334 3 38.001s2 35.667 2 51c0 48.667 -5.5 87.834 -16.5 117.501s-29.333 51.834 -55 66.501s-61.167 22 -106.5 22h-28v-34c34 0.666992 60.333 -4.16602 79 -14.499s31.667 -26.833 39 -49.5s11 -54 11 -94
c0 -14.667 -2 -42.667 -6 -84c-4.66699 -36 -7 -65 -7 -87c0 -38.667 10.667 -69 32 -91s48 -36 80 -42v-2c-31.333 -6 -57.833 -20.667 -79.5 -44s-32.5 -54.333 -32.5 -93c0 -22 2.33301 -55.333 7 -100c4 -49.333 6 -81.333 6 -96
c0 -60.667 -9.16699 -104.834 -27.5 -132.501s-52.166 -40.834 -101.499 -39.501v-28h28c66 0 112.167 17.167 138.5 51.5z" />
    <glyph glyph-name="asciitilde" unicode="~" horiz-adv-x="580" 
d="M333.5 241.5c-16.333 7 -34.1641 17.168 -53.4971 30.501c-18 11.333 -33.167 19.833 -45.5 25.5s-26.833 8.5 -43.5 8.5c-24.667 0 -45.667 -3.83301 -63 -11.5s-37.333 -19.834 -60 -36.501v63c23.333 18.667 44.166 32.167 62.499 40.5s39.833 12.5 64.5 12.5
c25.333 0 46.166 -3.5 62.499 -10.5s34.166 -17.5 53.499 -31.5c16 -11.333 30 -19.833 42 -25.5s26.667 -8.5 44 -8.5c41.333 0 79.666 16 114.999 48v-63c-31.333 -34.667 -71 -52 -119 -52c-23.333 0 -43.166 3.5 -59.499 10.5z" />
    <glyph glyph-name="uni00A0" unicode="&#xa0;" horiz-adv-x="263" 
 />
    <glyph glyph-name="exclamdown" unicode="&#xa1;" horiz-adv-x="243" 
d="M179 -143c1.33301 -18.667 -3.16699 -35.5 -13.5 -50.5s-25.166 -22.5 -44.499 -22.5c-20 0 -34.833 7.33301 -44.5 22s-13.834 31.667 -12.501 51l39 413h37zM163 497.5c11.333 -12.333 17 -27.5 17 -45.5s-5.83301 -33.333 -17.5 -46s-25.5 -19 -41.5 -19
c-16.667 0 -30.5 6.33301 -41.5 19s-16.5 28 -16.5 46s5.83301 33.167 17.5 45.5s25.5 18.5 41.5 18.5s29.667 -6.16699 41 -18.5z" />
    <glyph glyph-name="cent" unicode="&#xa2;" horiz-adv-x="531" 
d="M249 -16c-40.667 5.33301 -76.9971 18.998 -108.997 40.998s-57.333 51.5 -76 88.5s-28 79.5 -28 127.5c0 41.333 9 81.833 27 121.5s43.333 73.334 76 101.001s69.667 45.167 111 52.5v106h65l-1 -106c33.333 -2 62.666 -8.83301 87.999 -20.5s45 -26.334 59 -44.001
s21 -36.834 21 -57.501c0 -15.333 -4.33301 -28 -13 -38s-20.334 -15 -35.001 -15s-25.834 4.83301 -33.501 14.5s-11.5 19.834 -11.5 30.501c0 16 5 29.333 15 40c-7.33301 20.667 -21.5 34.834 -42.5 42.501s-41.833 11.5 -62.5 11.5
c-30.667 0 -58.167 -8.33301 -82.5 -25s-43.5 -41.167 -57.5 -73.5s-21 -70.833 -21 -115.5s7.16699 -84.5 21.5 -119.5s34.5 -62.333 60.5 -82s56 -29.5 90 -29.5c30 0 59.5 8.33301 88.5 25s51.833 37.334 68.5 62.001l26 -20c-22 -34.667 -49.833 -62 -83.5 -82
s-67.5 -32 -101.5 -36l-1 -118h-58v118z" />
    <glyph glyph-name="sterling" unicode="&#xa3;" horiz-adv-x="548" 
d="M57 -5c-6.66699 7.33301 -9.99707 16.0049 -9.99707 26.0049c0 18 8.16699 35.167 24.5 51.5s37.166 28.166 62.499 35.499c17.333 28.667 26 59 26 91c0 19.333 -1.5 37.666 -4.5 54.999s-7.5 36.666 -13.5 57.999h-79v48h66c-12 45.333 -18 91 -18 137
c0 43.333 7.83301 81.666 23.5 114.999s37.5 59 65.5 77s60 27 96 27c36.667 0 66.667 -6.16699 90 -18.5s40.166 -27.333 50.499 -45s15.5 -35.167 15.5 -52.5c0 -12.667 -3.66699 -23.167 -11 -31.5s-17.666 -12.5 -30.999 -12.5c-12.667 0 -22.167 4.16699 -28.5 12.5
s-9.5 17.166 -9.5 26.499c0 13.333 4.33301 24.666 13 33.999c-4.66699 14 -13.834 25.667 -27.501 35s-31.5 14 -53.5 14c-36 0 -64 -13.667 -84 -41s-30 -60.666 -30 -99.999c0 -24 1.5 -46.833 4.5 -68.5s7.5 -46.834 13.5 -75.501l6 -33h152v-48h-143
c4 -32 6 -56.667 6 -74c0 -38 -17.333 -78.333 -52 -121c14 2.66699 31.333 4 52 4c22 0 43 -3.16699 63 -9.5s42.667 -15.5 68 -27.5c19.333 -8.66699 33.5 -14.667 42.5 -18s17.833 -5 26.5 -5c15.333 0 27.666 5.33301 36.999 16s14.666 26.334 15.999 47.001h32
c-1.33301 -42 -10.833 -75.833 -28.5 -101.5s-42.167 -38.5 -73.5 -38.5c-18 0 -35.667 3.83301 -53 11.5s-38.333 19.5 -63 35.5c-26.667 16.667 -49 29 -67 37s-37.333 12 -58 12c-7.33301 0 -12.666 -0.333008 -15.999 -1c-3.33301 -26 -12 -48.333 -26 -67
s-29 -28 -45 -28c-11.333 0 -20.333 3.66699 -27 11z" />
    <glyph glyph-name="currency" unicode="&#xa4;" horiz-adv-x="535" 
d="M416 139l58.999 -67l-40 -32l-51 65c-32 -25.333 -70.667 -38 -116 -38s-83.666 12.333 -114.999 37l-51 -64l-41 32l59 67c-24 33.333 -36 71.666 -36 114.999c0 45.333 13 85.333 39 120l-62 70l41 33l54 -68c31.333 26 68.666 39 111.999 39
c42.667 0 80.334 -13 113.001 -39l54 68l40 -33l-62 -70c26 -34.667 39 -74.667 39 -120c0 -43.333 -12 -81.666 -36 -114.999zM343.499 157.5c15 34.333 22.5 72.166 22.5 113.499c0 19.333 -3.16699 40 -9.5 62s-16.833 40.833 -31.5 56.5s-33.667 23.5 -57 23.5
s-42.333 -7.83301 -57 -23.5s-25.167 -34.5 -31.5 -56.5s-9.5 -42.667 -9.5 -62c0 -41.333 7.5 -79.166 22.5 -113.499s40.167 -51.5 75.5 -51.5s60.5 17.167 75.5 51.5z" />
    <glyph glyph-name="yen" unicode="&#xa5;" horiz-adv-x="705" 
d="M249 33c28.667 1.33301 47.167 9.3291 55.5 23.9961s12.5 37.334 12.5 68.001v31v7l-128 -1v47l128 -1v63l-128 -1v47l99 -1l-144 229c-30.667 47.333 -48.667 85 -54 113l-62 -2v44h258v-33c-52 0 -78 -14.667 -78 -44c0 -17.333 8.33301 -39 25 -65l31 -49
c42.667 -69.333 79.667 -125.666 111 -168.999h2l107 204l21 39c19.333 36.667 35.333 62 48 76l-79 -3v44h204v-33c-31.333 -2 -57.5 -12.667 -78.5 -32s-43.833 -51.666 -68.5 -96.999l-118 -223h121v-43l-130 -1c0 -27.333 -0.333008 -48.333 -1 -63l131 -1v-43l-131 -1
c0 -29.333 0.333008 -44 1 -44c0 -35.333 -1 -61.666 -3 -78.999l83 4v-44h-235v33z" />
    <glyph glyph-name="brokenbar" unicode="&#xa6;" horiz-adv-x="243" 
d="M84 760h75l-4 -375h-68zM84 101h75l-4 -372h-68z" />
    <glyph glyph-name="section" unicode="&#xa7;" horiz-adv-x="533" 
d="M165 -209c-26.667 12.667 -46.998 28.832 -60.998 48.499s-21 39.834 -21 60.501c0 13.333 4.16699 25.166 12.5 35.499s18.833 15.5 31.5 15.5c14 0 24.333 -4.33301 31 -13s10 -19.334 10 -32.001c0 -4 -1 -9.16699 -3 -15.5s-4.66699 -11.5 -8 -15.5
c1.33301 -16.667 12 -31.5 32 -44.5s42.667 -19.5 68 -19.5c42 0 73 10.833 93 32.5s30 45.834 30 72.501c0 21.333 -6.5 40.666 -19.5 57.999s-29.167 32.833 -48.5 46.5s-45.666 30.167 -78.999 49.5c-41.333 24 -75 45.5 -101 64.5s-48.167 42.667 -66.5 71
s-27.5 61.166 -27.5 98.499c0 28 7.83301 56.833 23.5 86.5s37.167 56.167 64.5 79.5c-28 32 -42 70.667 -42 116c0 26 6.5 52.333 19.5 79s33.5 49.167 61.5 67.5s63.667 27.5 107 27.5c34 0 64.667 -6 92 -18s48.666 -27.667 63.999 -47s23 -39 23 -59
c0 -13.333 -3.83301 -24.5 -11.5 -33.5s-18.167 -13.5 -31.5 -13.5s-23.333 4.5 -30 13.5s-10 18.167 -10 27.5c0 5.33301 1 11.5 3 18.5s5 12.167 9 15.5c-6.66699 16.667 -19.5 30.5 -38.5 41.5s-40.833 16.5 -65.5 16.5c-28.667 0 -52.167 -5.66699 -70.5 -17
s-31.666 -25.333 -39.999 -42s-12.5 -33.334 -12.5 -50.001c0 -21.333 6.5 -40.666 19.5 -57.999s29.167 -32.833 48.5 -46.5s45.666 -30.167 78.999 -49.5c41.333 -23.333 75.166 -44.666 101.499 -63.999s48.666 -43.166 66.999 -71.499s27.5 -61.166 27.5 -98.499
c0 -28.667 -7.83301 -58 -23.5 -88s-37.167 -56.333 -64.5 -79c27.333 -32 41 -69 41 -111c0 -24.667 -6.33301 -50.5 -19 -77.5s-33 -50 -61 -69s-64 -28.5 -108 -28.5c-37.333 0 -69.333 6.33301 -96 19zM411.502 130.498c5.66699 19 8.49902 38.1699 8.49902 57.5029
c0 30.667 -7.33301 57.167 -22 79.5s-32.667 41 -54 56s-50.666 33.167 -87.999 54.5c-25.333 14 -46 26 -62 36s-31 21 -45 33c-11.333 -14.667 -19.833 -31.334 -25.5 -50.001s-8.5 -37.334 -8.5 -56.001c0 -30.667 7.33301 -57.334 22 -80.001s32.834 -41.667 54.501 -57
s50.834 -33 87.501 -53c19.333 -10.667 38.666 -22 57.999 -34s35.666 -24 48.999 -36c11.333 14 19.833 30.5 25.5 49.5z" />
    <glyph glyph-name="dieresis" unicode="&#xa8;" horiz-adv-x="387" 
d="M75 628c-10 11.333 -15 25.334 -15 42.001c0 16 5 30 15 42s21.667 18 35 18c14 0 25.833 -5.83301 35.5 -17.5s14.5 -25.834 14.5 -42.501c0 -16 -5 -29.833 -15 -41.5s-21.667 -17.5 -35 -17.5s-25 5.66699 -35 17zM242 628.001c-10 11.333 -15 25.334 -15 42.001
c0 16 5 30 15 42s21.667 18 35 18c14 0 25.833 -5.83301 35.5 -17.5s14.5 -25.834 14.5 -42.501c0 -16 -5 -29.833 -15 -41.5s-21.667 -17.5 -35 -17.5s-25 5.66699 -35 17z" />
    <glyph glyph-name="copyright" unicode="&#xa9;" horiz-adv-x="877" 
d="M232 1c-60 34 -106.33 81.333 -138.997 142s-49 129 -49 205c0 73.333 17 140.666 51 201.999s81.167 110 141.5 146s128.166 54 203.499 54s143.166 -18 203.499 -54s107.333 -84.667 141 -146s50.5 -128.666 50.5 -201.999c0 -72 -17.667 -138.5 -53 -199.5
s-83.333 -109.333 -144 -145s-127.334 -53.5 -200.001 -53.5c-77.333 0 -146 17 -206 51zM612.003 48c50 32 88.668 74.5 116.001 127.5s41 110.5 41 172.5s-14 120 -42 174s-67.167 97.333 -117.5 130s-107.5 49 -171.5 49c-63.333 0 -119.833 -16.333 -169.5 -49
s-88.334 -76 -116.001 -130s-41.5 -112 -41.5 -174s13.5 -119.5 40.5 -172.5s65.5 -95.5 115.5 -127.5s108 -48 174 -48c64 0 121 16 171 48zM320.504 134.5c-37 21.667 -66.001 51.001 -87.001 88.001s-31.5 78.167 -31.5 123.5c0 41.333 9.5 81.333 28.5 120
s47.167 70.5 84.5 95.5s81.333 37.5 132 37.5c24 0 47.333 -3.66699 70 -11s43 -17.333 61 -30l-4 36h50v-168h-40c-5.33301 41.333 -19.666 71.5 -42.999 90.5s-53.333 28.5 -90 28.5c-26 0 -51 -7.33301 -75 -22s-43.333 -36 -58 -64s-22 -61.667 -22 -101
c0 -36.667 7.5 -69.667 22.5 -99s35.833 -52.333 62.5 -69s57.334 -25 92.001 -25c23.333 0 48.666 6.83301 75.999 20.5s50 31.5 68 53.5l30 -35c-26.667 -36.667 -58.5 -62.834 -95.5 -78.501s-72.833 -23.5 -107.5 -23.5c-45.333 0 -86.5 10.833 -123.5 32.5z" />
    <glyph glyph-name="ordfeminine" unicode="&#xaa;" horiz-adv-x="409" 
d="M79.5 400.5c-17 13.667 -25.4961 31.8369 -25.4961 54.5039c0 25.333 9.83301 46.666 29.5 63.999s44.667 30.166 75 38.499s60.833 12.166 91.5 11.499v35c0 25.333 -3.83301 44.833 -11.5 58.5s-24.5 20.5 -50.5 20.5c-13.333 0 -25.833 -3.66699 -37.5 -11
s-19.834 -16.333 -24.501 -27c6 -6.66699 9 -15 9 -25c0 -7.33301 -2.83301 -14.5 -8.5 -21.5s-13.834 -10.167 -24.501 -9.5c-10 0 -17.833 3.33301 -23.5 10s-8.5 15 -8.5 25c0 15.333 5.66699 30.166 17 44.499s27 25.833 47 34.5s42 13 66 13
c75.333 0 112.666 -39.667 111.999 -119l-1 -112c0 -21.333 2.33301 -36.666 7 -45.999s11.667 -14 21 -14c5.33301 0 11.333 3 18 9l11 -19c-6 -8.66699 -15.333 -16.334 -28 -23.001s-24.667 -10 -36 -10c-29.333 0 -47.333 14.333 -54 43
c-26.667 -30 -59.334 -45 -98.001 -45c-31.333 0 -55.5 6.83301 -72.5 20.5zM170.004 422.003c26 0 52 12.333 78 37l2 79c-33.333 0 -62.5 -6.33301 -87.5 -19s-37.5 -30.667 -37.5 -54c0 -12.667 3.83301 -22.5 11.5 -29.5s15.5 -11.167 23.5 -12.5z" />
    <glyph glyph-name="guillemotleft" unicode="&#xab;" horiz-adv-x="530" 
d="M337 24l-197 253v2l195 238l-32 31l-271 -271v-4l274 -280zM475 106l-121 163v2l119 164l-32 29l-196 -190v-3l198 -194z" />
    <glyph glyph-name="logicalnot" unicode="&#xac;" horiz-adv-x="592" 
d="M464 284l-391 -2v62l446 -2v-185h-52z" />
    <glyph glyph-name="uni00AD" unicode="&#xad;" horiz-adv-x="293" 
d="M67 355h355v-66l-355 -4v70z" />
    <glyph glyph-name="registered" unicode="&#xae;" horiz-adv-x="878" 
d="M231.5 1c-59.667 34 -105.83 81.1699 -138.497 141.503s-49 128.833 -49 205.5c0 73.333 17 140.666 51 201.999s81.167 110 141.5 146s128.166 54 203.499 54c76 0 144.167 -17.833 204.5 -53.5s107.166 -84.167 140.499 -145.5s50 -129 50 -203
c0 -72.667 -17.667 -139.334 -53 -200.001s-83.333 -108.834 -144 -144.501s-127.334 -53.5 -200.001 -53.5c-78 0 -146.833 17 -206.5 51zM612.504 48.5029c49.667 31.667 88.165 74.0029 115.498 127.003s41 110.5 41 172.5s-13.833 120.167 -41.5 174.5
s-66.834 97.666 -117.501 129.999s-108 48.5 -172 48.5c-63.333 0 -119.833 -16.167 -169.5 -48.5s-88.167 -75.5 -115.5 -129.5s-41 -112.333 -41 -175s13.333 -120.334 40 -173.001s64.834 -94.834 114.501 -126.501s107.834 -47.5 174.501 -47.5
c64.667 0 121.834 15.833 171.501 47.5zM547.002 155.006c-11.333 12.667 -26.001 31.668 -44.001 57.001l-75 111c-3.33301 -0.666992 -11 -1 -23 -1c-17.333 0 -28 0.333008 -32 1v-98c0 -18 -0.666992 -35 -2 -51l48 2l2 -40h-170v34c15.333 0 26.5 3.33301 33.5 10
s11.167 15 12.5 25s2 25 2 45v261c0 23.333 0.666992 39.333 2 48l-50 -5v42c84 3.33301 145.667 4.66602 185 3.99902c61.333 -1.33301 107.5 -14.333 138.5 -39s46.5 -55.667 46.5 -93c0 -26.667 -9.66699 -52.834 -29 -78.501s-50 -44.5 -92 -56.5v-1
c12.667 -6 26.667 -19.667 42 -41c24.667 -37.333 44.167 -64.833 58.5 -82.5s26 -29.167 35 -34.5s18.833 -8 29.5 -8v-34h-87c-9.33301 2.66699 -19.666 10.334 -30.999 23.001zM505.501 390.507c25 16.333 37.501 41.168 37.501 74.501
c0 29.333 -10.833 52.166 -32.5 68.499s-47.834 24.5 -78.501 24.5c-19.333 0 -33.166 -3.33301 -41.499 -10s-13.333 -15.167 -15 -25.5s-2.5 -26.833 -2.5 -49.5v-108h1c21.333 -1.33301 37.666 -1.66602 48.999 -0.999023c30 1.33301 57.5 10.166 82.5 26.499z" />
    <glyph glyph-name="macron" unicode="&#xaf;" horiz-adv-x="355" 
d="M45 700h265v-56l-265 -4v60z" />
    <glyph glyph-name="degree" unicode="&#xb0;" horiz-adv-x="405" 
d="M120 425c-23.333 14 -41.333 32.835 -54 56.502s-19 50.167 -19 79.5c0 28 7.16699 53.833 21.5 77.5s33.5 42.5 57.5 56.5s50 21 78 21c30.667 0 57.667 -6.83301 81 -20.5s41.333 -32.334 54 -56.001s19 -49.834 19 -78.501s-7.16699 -55 -21.5 -79
s-33.5 -43 -57.5 -57s-50 -21 -78 -21c-30.667 0 -57.667 7 -81 21zM269 487.002c17.333 20.667 26 45.334 26 74.001c0 28 -8.66699 52.667 -26 74s-39.666 32 -66.999 32c-26.667 0 -48.667 -10.667 -66 -32s-26 -46 -26 -74c0 -28.667 8.66699 -53.334 26 -74.001
s39.666 -31 66.999 -31c26.667 0 48.667 10.333 66 31z" />
    <glyph glyph-name="plusminus" unicode="&#xb1;" horiz-adv-x="576" 
d="M255 300h-190v60l190 -1v157h64v-157l191 -1v-56l-191 -1v-166h-64v165zM65 55l445 4v-56h-445v52z" />
    <glyph glyph-name="uni00B2" unicode="&#xb2;" horiz-adv-x="385" 
d="M91 403.5c20 27.667 48.999 57.1689 86.999 88.502c42.667 35.333 64 74 64 116c0 22 -5.5 39.5 -16.5 52.5s-26.5 19.5 -46.5 19.5c-16 0 -29.667 -3.83301 -41 -11.5s-18.333 -17.167 -21 -28.5c6 -4.66699 9 -12.334 9 -23.001c0 -6.66699 -2.5 -13.334 -7.5 -20.001
s-12.5 -9.66699 -22.5 -9c-8.66699 0 -15.5 3.16699 -20.5 9.5s-7.5 13.833 -7.5 22.5c0 14 5 28.5 15 43.5s24.333 27.5 43 37.5s40.667 15 66 15c34 0 62.5 -9.16699 85.5 -27.5s34.5 -44.833 34.5 -79.5c0 -22.667 -7.83301 -45.667 -23.5 -69s-46.834 -52 -93.501 -86
c-45.333 -34 -71.666 -64.667 -78.999 -92l84 -2l36 -1c20.667 0 35.834 2.66699 45.501 8s14.5 16.333 14.5 33h25l-4 -94h-256c0 37.333 10 69.833 30 97.5z" />
    <glyph glyph-name="uni00B3" unicode="&#xb3;" horiz-adv-x="370" 
d="M111 318c-18.667 8.66699 -32.833 20.002 -42.5 34.002s-14.5 28.333 -14.5 43c0 9.33301 2.66699 17.666 8 24.999s12.666 11 21.999 11c10.667 0.666992 18.667 -2.33301 24 -9s8 -14.334 8 -23.001c0 -8 -2.66699 -15.333 -8 -22c2 -12 9.16699 -21.333 21.5 -28
s26.5 -10 42.5 -10c24.667 0 43.834 8.33301 57.501 25s20.5 36.334 20.5 59.001c0 22 -6 41.833 -18 59.5s-33.667 26.834 -65 27.501c-10 0 -19 -0.333008 -27 -1v32h11c34 0 56.333 7.5 67 22.5s16 31.5 16 49.5c0 18.667 -4.83301 35 -14.5 49s-25.167 21 -46.5 21
c-16 0 -29.5 -3.83301 -40.5 -11.5s-17.5 -17.167 -19.5 -28.5c6 -4.66699 9 -12 9 -22c0 -6.66699 -2.5 -13.334 -7.5 -20.001s-12.5 -9.66699 -22.5 -9c-8.66699 0 -15.5 3.16699 -20.5 9.5s-7.5 14.166 -7.5 23.499c0 12.667 4.66699 26.167 14 40.5s23 26.333 41 36
s39.333 14.5 64 14.5c34 0 61.5 -8.83301 82.5 -26.5s31.5 -41.167 31.5 -70.5c0 -18 -7.5 -35.667 -22.5 -53s-35.5 -29.333 -61.5 -36v-1c33.333 -2.66699 59 -14 77 -34s27 -44 27 -72c0 -34 -12.667 -62.167 -38 -84.5s-59.333 -33.5 -102 -33.5
c-25.333 0 -47.333 4.33301 -66 13z" />
    <glyph glyph-name="acute" unicode="&#xb4;" horiz-adv-x="252" 
d="M45 603l83.999 135c12.667 18 26.334 27 41.001 27c8 0 16 -2.66699 24 -8c8 -8 12 -17.333 12 -28c0 -14 -7 -28.333 -21 -43l-112 -106z" />
    <glyph glyph-name="uni00B5" unicode="&#xb5;" horiz-adv-x="614" 
d="M94 -173l1 672.999h84v-264c0 -64 7.66699 -113.5 23 -148.5s43.333 -52.5 84 -52.5c23.333 0 45.666 6.66699 66.999 20s39 30.333 53 51v394h85l-1 -359c0 -33.333 3.83301 -57.166 11.5 -71.499s18.834 -21.5 33.501 -21.5c12 0 26 5.66699 42 17l11 -15
c-10 -14.667 -24.167 -27.667 -42.5 -39s-37.833 -17 -58.5 -17c-41.333 0 -66.666 20.667 -75.999 62c-20 -20.667 -44 -37.834 -72 -51.501s-55.667 -20.5 -83 -20.5c-24 0 -45.5 7 -64.5 21s-35.167 34 -48.5 60c6 -61.333 12.167 -108.166 18.5 -140.499
s13.166 -60.5 20.499 -84.5c6 -18 9 -33.333 9 -46c0 -14 -4 -26.5 -12 -37.5s-19 -16.5 -33 -16.5c-34.667 0 -52 29 -52 87z" />
    <glyph glyph-name="paragraph" unicode="&#xb6;" horiz-adv-x="501" 
d="M174 409c-38.667 2.66699 -71.834 15.833 -99.501 39.5s-41.5 59.167 -41.5 106.5c0 30 6.66699 56 20 78s30.833 38.667 52.5 50s44.834 17 69.501 17h227l-2 -955h-70l2 914l-87 -3l-3 -911h-70z" />
    <glyph glyph-name="periodcentered" unicode="&#xb7;" horiz-adv-x="250" 
d="M84 282.5c-11.333 12.333 -17 27.5 -17 45.5s5.83301 33.333 17.5 46s25.5 19 41.5 19c16.667 0 30.5 -6.33301 41.5 -19s16.5 -28 16.5 -46s-5.83301 -33.167 -17.5 -45.5s-25.5 -18.5 -41.5 -18.5s-29.667 6.16699 -41 18.5z" />
    <glyph glyph-name="cedilla" unicode="&#xb8;" horiz-adv-x="292" 
d="M45 -208c36.667 6.66699 65.833 16.5 87.5 29.5s32.5 28.833 32.5 47.5c0 20 -10.667 30 -32 30c-15.333 0 -30.333 -5 -45 -15l-34 16l29 108h56l-27 -82c19.333 11.333 42 17 68 17c20.667 0 37 -6 49 -18s18 -28 18 -48c0 -35.333 -20 -62 -60 -80
s-85.333 -30.667 -136 -38z" />
    <glyph glyph-name="uni00B9" unicode="&#xb9;" horiz-adv-x="283" 
d="M76 329c18.667 0 31.5 6.5 38.5 19.5s10.5 31.167 10.5 54.5v241h-2l-62 -37l-16 28l111 81h25l1 -344c0 -18.667 -0.666992 -31.667 -2 -39l51 2v-34h-155v28z" />
    <glyph glyph-name="ordmasculine" unicode="&#xba;" horiz-adv-x="419" 
d="M127 400.5c-24.667 13.667 -44 32.832 -58 57.499s-21 52.334 -21 83.001c0 32.667 7.16699 62.334 21.5 89.001s34 47.667 59 63s52.833 23 83.5 23c46.667 0 85 -15.333 115 -46s45 -70.334 45 -119.001c0 -32.667 -7 -62 -21 -88s-33.5 -46.333 -58.5 -61
s-52.833 -22 -83.5 -22c-30 0 -57.333 6.83301 -82 20.5zM278.5 450.498c15.667 23 23.499 52.167 23.499 87.5c0 40.667 -7.5 75 -22.5 103s-37.833 42 -68.5 42c-28 0 -50 -11.667 -66 -35s-24 -53 -24 -89c0 -41.333 7.83301 -75.5 23.5 -102.5
s38.834 -40.5 69.501 -40.5c27.333 0 48.833 11.5 64.5 34.5z" />
    <glyph glyph-name="guillemotright" unicode="&#xbb;" horiz-adv-x="530" 
d="M193 24l197 253v2l-195 238l32 31l271 -271v-4l-274 -280zM55 106l121 163v2l-119 164l32 29l196 -190v-3l-198 -194z" />
    <glyph glyph-name="onequarter" unicode="&#xbc;" horiz-adv-x="757" 
d="M76 329c18.667 0 31.5 6.5 38.5 19.5s10.5 31.167 10.5 54.5v241h-2l-62 -37l-16 28l111 81h25l1 -344c0 -18.667 -0.666992 -31.667 -2 -39l51 2v-34h-155v28zM127 10l467 706l44 -31l-473 -701zM553 29c19.333 0.666992 32.333 6.5 39 17.5s10 27.167 10 48.5v10h-169
v30l199 276h26l1 -269l56 -1v-36h-56v-73l41 2v-34h-147v29zM602 314h-1l-121 -169l122 -2v171z" />
    <glyph glyph-name="onehalf" unicode="&#xbd;" horiz-adv-x="785" 
d="M76 329c18.667 0 31.5 6.5 38.5 19.5s10.5 31.167 10.5 54.5v241h-2l-62 -37l-16 28l111 81h25l1 -344c0 -18.667 -0.666992 -31.667 -2 -39l51 2v-34h-155v28zM127 10l467 706l44 -31l-473 -701zM514 98.5c20 27.667 48.999 57.1689 86.999 88.502
c42.667 35.333 64 74 64 116c0 22 -5.5 39.5 -16.5 52.5s-26.5 19.5 -46.5 19.5c-16 0 -29.667 -3.83301 -41 -11.5s-18.333 -17.167 -21 -28.5c6 -4.66699 9 -12.334 9 -23.001c0 -6.66699 -2.5 -13.334 -7.5 -20.001s-12.5 -9.66699 -22.5 -9
c-8.66699 0 -15.5 3.16699 -20.5 9.5s-7.5 13.833 -7.5 22.5c0 14 5 28.5 15 43.5s24.333 27.5 43 37.5s40.667 15 66 15c34 0 62.5 -9.16699 85.5 -27.5s34.5 -44.833 34.5 -79.5c0 -22.667 -7.83301 -45.667 -23.5 -69s-46.834 -52 -93.501 -86
c-45.333 -34 -71.666 -64.667 -78.999 -92l84 -2l36 -1c20.667 0 35.834 2.66699 45.501 8s14.5 16.333 14.5 33h25l-4 -94h-256c0 37.333 10 69.833 30 97.5z" />
    <glyph glyph-name="threequarters" unicode="&#xbe;" horiz-adv-x="796" 
d="M111 318c-18.667 8.66699 -32.833 20.002 -42.5 34.002s-14.5 28.333 -14.5 43c0 9.33301 2.66699 17.666 8 24.999s12.666 11 21.999 11c10.667 0.666992 18.667 -2.33301 24 -9s8 -14.334 8 -23.001c0 -8 -2.66699 -15.333 -8 -22c2 -12 9.16699 -21.333 21.5 -28
s26.5 -10 42.5 -10c24.667 0 43.834 8.33301 57.501 25s20.5 36.334 20.5 59.001c0 22 -6 41.833 -18 59.5s-33.667 26.834 -65 27.501c-10 0 -19 -0.333008 -27 -1v32h11c34 0 56.333 7.5 67 22.5s16 31.5 16 49.5c0 18.667 -4.83301 35 -14.5 49s-25.167 21 -46.5 21
c-16 0 -29.5 -3.83301 -40.5 -11.5s-17.5 -17.167 -19.5 -28.5c6 -4.66699 9 -12 9 -22c0 -6.66699 -2.5 -13.334 -7.5 -20.001s-12.5 -9.66699 -22.5 -9c-8.66699 0 -15.5 3.16699 -20.5 9.5s-7.5 14.166 -7.5 23.499c0 12.667 4.66699 26.167 14 40.5s23 26.333 41 36
s39.333 14.5 64 14.5c34 0 61.5 -8.83301 82.5 -26.5s31.5 -41.167 31.5 -70.5c0 -18 -7.5 -35.667 -22.5 -53s-35.5 -29.333 -61.5 -36v-1c33.333 -2.66699 59 -14 77 -34s27 -44 27 -72c0 -34 -12.667 -62.167 -38 -84.5s-59.333 -33.5 -102 -33.5
c-25.333 0 -47.333 4.33301 -66 13zM166.001 10.002l467 706l44 -31l-473 -701zM592.001 29.002c19.333 0.666992 32.333 6.5 39 17.5s10 27.167 10 48.5v10h-169v30l199 276h26l1 -269l56 -1v-36h-56v-73l41 2v-34h-147v29zM641.001 314.002h-1l-121 -169l122 -2v171z" />
    <glyph glyph-name="questiondown" unicode="&#xbf;" horiz-adv-x="467" 
d="M300.5 295.5c15.667 -11 23.5 -27.8311 23.5 -50.498c0 -17.333 -6.33301 -33.5 -19 -48.5s-32.334 -34.167 -59.001 -57.5c-24.667 -20.667 -44.834 -39.167 -60.501 -55.5s-29.167 -35.833 -40.5 -58.5s-17 -48 -17 -76c0 -38 9.66699 -68.5 29 -91.5
s50.333 -34.5 93 -34.5c18 0 35.167 3.66699 51.5 11s29.666 16.5 39.999 27.5s16.5 21.833 18.5 32.5c-8 12.667 -12 25.667 -12 39c0 10 4 19.833 12 29.5s19.333 14.167 34 13.5c14 -0.666992 24.667 -5.83398 32 -15.501s11 -22.167 11 -37.5
c0 -20 -8.33301 -40.833 -25 -62.5s-40.5 -39.834 -71.5 -54.501s-66.167 -22 -105.5 -22c-46.667 0 -85.167 7.83301 -115.5 23.5s-52.333 36 -66 61s-20.5 51.833 -20.5 80.5c0 26 6.83301 50.333 20.5 73s29.834 42.5 48.501 59.5s43 36.833 73 59.5
c29.333 23.333 50.333 41.333 63 54s19 25.334 19 38.001c0 9.33301 -3.5 17.166 -10.5 23.499s-17.5 9.5 -31.5 9.5c-13.333 0 -25.666 -2.33301 -36.999 -7l-12 35c10 6 22.333 10.5 37 13.5s28.334 4.5 41.001 4.5c22 0 40.833 -5.5 56.5 -16.5zM275.5 499.502
c11 -11 16.502 -25.167 16.502 -42.5c0 -16 -5.5 -29.833 -16.5 -41.5s-23.5 -17.5 -37.5 -17.5c-14.667 0 -27.334 5.83301 -38.001 17.5s-16 25.5 -16 41.5c0 16.667 5.16699 30.667 15.5 42s23.166 17 38.499 17c14 0 26.5 -5.5 37.5 -16.5z" />
    <glyph glyph-name="Agrave" unicode="&#xc0;" horiz-adv-x="626" 
d="M-6 33c16.667 0 30.002 3.83203 40.002 11.499s18.167 17.667 24.5 30s13.833 30.833 22.5 55.5l10 28l206 561h24l223 -569c7.33301 -18 13.666 -37.5 18.999 -58.5s7.66602 -38.167 6.99902 -51.5l68 4v-44h-229v33c39.333 0.666992 59 16.667 59 48
c0 12.667 -3.33301 28.334 -10 47.001l-35 94l-260 -6c-10 -27.333 -21.667 -63 -35 -107c-6.66699 -22 -15 -45 -25 -69l78 4v-44h-187v33zM409.002 258.999l-71 191l-45 123h-2l-42 -113l-54 -152l-17 -49h231zM204.002 848.999c-21.333 13.333 -32 28 -32 44
c0 8.66699 2 15.667 6 21c2 2.66699 5.5 5.5 10.5 8.5s10.833 4.5 17.5 4.5c12 0 25 -6 39 -18l126 -120l-22 -29z" />
    <glyph glyph-name="Aacute" unicode="&#xc1;" horiz-adv-x="626" 
d="M-6 33c16.667 0 30.002 3.83203 40.002 11.499s18.167 17.667 24.5 30s13.833 30.833 22.5 55.5l10 28l206 561h24l223 -569c7.33301 -18 13.666 -37.5 18.999 -58.5s7.66602 -38.167 6.99902 -51.5l68 4v-44h-229v33c39.333 0.666992 59 16.667 59 48
c0 12.667 -3.33301 28.334 -10 47.001l-35 94l-260 -6c-10 -27.333 -21.667 -63 -35 -107c-6.66699 -22 -15 -45 -25 -69l78 4v-44h-187v33zM409.002 258.999l-71 191l-45 123h-2l-42 -113l-54 -152l-17 -49h231zM422.002 848.999c21.333 13.333 32 28 32 44
c0 8.66699 -2 15.667 -6 21c-2 2.66699 -5.5 5.5 -10.5 8.5s-10.833 4.5 -17.5 4.5c-12 0 -25 -6 -39 -18l-126 -120l22 -29z" />
    <glyph glyph-name="Acircumflex" unicode="&#xc2;" horiz-adv-x="626" 
d="M-6 33c16.667 0 30.002 3.83203 40.002 11.499s18.167 17.667 24.5 30s13.833 30.833 22.5 55.5l10 28l206 561h24l223 -569c7.33301 -18 13.666 -37.5 18.999 -58.5s7.66602 -38.167 6.99902 -51.5l68 4v-44h-229v33c39.333 0.666992 59 16.667 59 48
c0 12.667 -3.33301 28.334 -10 47.001l-35 94l-260 -6c-10 -27.333 -21.667 -63 -35 -107c-6.66699 -22 -15 -45 -25 -69l78 4v-44h-187v33zM409.002 258.999l-71 191l-45 123h-2l-42 -113l-54 -152l-17 -49h231zM315.002 843.999h-2l-170 -87l-20 32l194 142h2l184 -141
l-22 -34z" />
    <glyph glyph-name="Atilde" unicode="&#xc3;" horiz-adv-x="626" 
d="M-6 33c16.667 0 30.002 3.83203 40.002 11.499s18.167 17.667 24.5 30s13.833 30.833 22.5 55.5l10 28l206 561h24l223 -569c7.33301 -18 13.666 -37.5 18.999 -58.5s7.66602 -38.167 6.99902 -51.5l68 4v-44h-229v33c39.333 0.666992 59 16.667 59 48
c0 12.667 -3.33301 28.334 -10 47.001l-35 94l-260 -6c-10 -27.333 -21.667 -63 -35 -107c-6.66699 -22 -15 -45 -25 -69l78 4v-44h-187v33zM409.002 258.999l-71 191l-45 123h-2l-42 -113l-54 -152l-17 -49h231zM336.502 787.999
c-14.333 7.33301 -30.835 17.668 -49.502 31.001c-13.333 10 -24.166 17.333 -32.499 22s-17.166 7 -26.499 7c-13.333 0 -25.5 -4.83301 -36.5 -14.5s-23.5 -24.834 -37.5 -45.501l-34 19c12 30 29 54.667 51 74s43.667 29 65 29c18.667 0 34.667 -3.33301 48 -10
s28.666 -16.667 45.999 -30c12.667 -10 23.667 -17.5 33 -22.5s19.333 -7.5 30 -7.5c16.667 0 31.5 5.83301 44.5 17.5s25.167 27.5 36.5 47.5l32 -16c-13.333 -38.667 -30.5 -67 -51.5 -85s-43.5 -27 -67.5 -27c-19.333 0 -36.166 3.66699 -50.499 11z" />
    <glyph glyph-name="Adieresis" unicode="&#xc4;" horiz-adv-x="626" 
d="M-6 33c16.667 0 30.002 3.83203 40.002 11.499s18.167 17.667 24.5 30s13.833 30.833 22.5 55.5l10 28l206 561h24l223 -569c7.33301 -18 13.666 -37.5 18.999 -58.5s7.66602 -38.167 6.99902 -51.5l68 4v-44h-229v33c39.333 0.666992 59 16.667 59 48
c0 12.667 -3.33301 28.334 -10 47.001l-35 94l-260 -6c-10 -27.333 -21.667 -63 -35 -107c-6.66699 -22 -15 -45 -25 -69l78 4v-44h-187v33zM409.002 258.999l-71 191l-45 123h-2l-42 -113l-54 -152l-17 -49h231zM362.331 792.449
c-10.54 12.0869 -15.8105 26.9502 -15.8105 44.5898s5.4248 32.666 16.2744 45.0791c10.8506 12.4131 23.7158 18.6201 38.5957 18.6201c15.5 0 28.3652 -6.20703 38.5947 -18.6201c10.2305 -12.4131 15.3457 -27.4395 15.3457 -45.0791s-5.4248 -32.5029 -16.2754 -44.5898
c-10.8496 -12.0869 -23.7148 -18.1299 -38.5947 -18.1299s-27.5898 6.04297 -38.1299 18.1299zM182.33 792.449c-10.54 12.0869 -15.8105 26.9502 -15.8105 44.5898s5.4248 32.666 16.2744 45.0791c10.8506 12.4131 23.7158 18.6201 38.5957 18.6201
c15.5 0 28.3652 -6.20703 38.5947 -18.6201c10.2305 -12.4131 15.3457 -27.4395 15.3457 -45.0791s-5.4248 -32.5029 -16.2754 -44.5898c-10.8496 -12.0869 -23.7148 -18.1299 -38.5947 -18.1299s-27.5898 6.04297 -38.1299 18.1299z" />
    <glyph glyph-name="Aring" unicode="&#xc5;" horiz-adv-x="626" 
d="M-6 33c16.667 0 30.002 3.83203 40.002 11.499s18.167 17.667 24.5 30s13.833 30.833 22.5 55.5l10 28l206 561h24l223 -569c7.33301 -18 13.666 -37.5 18.999 -58.5s7.66602 -38.167 6.99902 -51.5l68 4v-44h-229v33c39.333 0.666992 59 16.667 59 48
c0 12.667 -3.33301 28.334 -10 47.001l-35 94l-260 -6c-10 -27.333 -21.667 -63 -35 -107c-6.66699 -22 -15 -45 -25 -69l78 4v-44h-187v33zM409.002 258.999l-71 191l-45 123h-2l-42 -113l-54 -152l-17 -49h231zM233.002 742.499
c-22.667 18.333 -34.002 45.167 -34.002 80.5c0 22 5.33301 41.5 16 58.5s24.834 30.333 42.501 40s35.834 14.5 54.501 14.5c30.667 0 57.5 -9.33301 80.5 -28s34.5 -45.334 34.5 -80.001c0 -22 -5.5 -41.667 -16.5 -59s-25.167 -30.666 -42.5 -39.999s-35.333 -14 -54 -14
c-31.333 0 -58.333 9.16699 -81 27.5zM353.5 769c10.333 12.667 15.499 28.998 15.499 48.998c0 26.667 -5.16699 47.334 -15.5 62.001s-24.166 22 -41.499 22c-16.667 0 -30 -6.66699 -40 -20s-15 -30.666 -15 -51.999c0 -24 5.33301 -43.333 16 -58s25 -22 43 -22
c14.667 0 27.167 6.33301 37.5 19z" />
    <glyph glyph-name="AE" unicode="&#xc6;" horiz-adv-x="949" 
d="M-21 33c16 0 30.668 4.5 44.001 13.5s24.5 19.167 33.5 30.5s20.5 27.333 34.5 48l361 535l-90 -4v44h501l5 -175h-33c0 54.667 -11.833 92 -35.5 112s-56.834 29.333 -99.501 28l-86 -2c-24 -0.666992 -41.333 -5.16699 -52 -13.5s-17.334 -20 -20.001 -35
s-4 -38.5 -4 -70.5v-161h74c32 0 55.833 1.83301 71.5 5.5s27.334 12.167 35.001 25.5s11.5 34.333 11.5 63h33v-218h-33c0 28.667 -3.83301 49.167 -11.5 61.5s-18.834 19.833 -33.501 22.5s-38.667 4 -72 4l-75 -4v-225c0 -34.667 -1 -60.667 -3 -78l197 -3
c44.667 -0.666992 78.834 11.5 102.501 36.5s35.5 65.5 35.5 121.5h34l-6 -195h-516v36h8c24.667 2 41 10 49 24s12 37.333 12 70v91l-243 -5l-118 -176l76 4v-44h-187v33zM451.001 259v323l-215 -323h215z" />
    <glyph glyph-name="Ccedilla" unicode="&#xc7;" horiz-adv-x="699" 
d="M210.5 31c-51.667 31.333 -91.998 74 -120.998 128s-43.5 114 -43.5 180c0 65.333 13.167 126.666 39.5 183.999s65.666 103.833 117.999 139.5s115.5 53.5 189.5 53.5c73.333 0 140.666 -20.333 201.999 -61l-5 54h54v-232h-36c-6.66699 62 -28.5 110.5 -65.5 145.5
s-84.5 52.5 -142.5 52.5c-47.333 0 -90.5 -13.167 -129.5 -39.5s-69.833 -63.833 -92.5 -112.5s-34 -105 -34 -169c0 -61.333 12 -116.166 36 -164.499s56.333 -86 97 -113s85.667 -40.5 135 -40.5c44.667 0 87.667 10 129 30s75.333 48.333 102 85l26 -21
c-38.667 -54 -83 -91.833 -133 -113.5s-100 -32.5 -150 -32.5c-65.333 0 -123.833 15.667 -175.5 47zM378.002 -222c35.333 6 64.5 16.3301 87.5 30.9971s34.5 31.334 34.5 50.001c0 10.667 -3 18.667 -9 24s-13.667 8 -23 8c-14 0 -28.667 -4.66699 -44 -14l-36 17l29 114
h58l-27 -85c8.66699 5.33301 19.167 9.33301 31.5 12s23.5 4 33.5 4c24.667 0 43.667 -6.66699 57 -20s20 -30.333 20 -51c0 -35.333 -22.167 -63.666 -66.5 -84.999s-90.833 -35.666 -139.5 -42.999z" />
    <glyph glyph-name="Egrave" unicode="&#xc8;" horiz-adv-x="622" 
d="M55 33c23.333 0.666992 40.001 6 50.001 16s15.667 21.833 17 35.5s2 37.5 2 71.5v432c0 28 1 52 3 72l-72 -4v44h481l5 -175h-33c0 54.667 -11.833 92 -35.5 112s-56.834 29.333 -99.501 28l-86 -2c-24 -0.666992 -41.333 -5.16699 -52 -13.5s-17.334 -20 -20.001 -35
s-4 -38.5 -4 -70.5v-160l188 -1l-7 86h44v-210h-33c0 24.667 -3 43.5 -9 56.5s-15.167 21.667 -27.5 26s-29.5 6.5 -51.5 6.5l-31 -1l-73 -3v-229c0 -34.667 -1 -60.667 -3 -78l191 3c46.667 0.666992 82.334 12.5 107.001 35.5s37 62.833 37 119.5h34l-6 -195h-516v33z
M218.001 849c-21.333 13.333 -32 28 -32 44c0 8.66699 2 15.667 6 21c2 2.66699 5.5 5.5 10.5 8.5s10.833 4.5 17.5 4.5c12 0 25 -6 39 -18l126 -120l-22 -29z" />
    <glyph glyph-name="Eacute" unicode="&#xc9;" horiz-adv-x="622" 
d="M55 33c23.333 0.666992 40.001 6 50.001 16s15.667 21.833 17 35.5s2 37.5 2 71.5v432c0 28 1 52 3 72l-72 -4v44h481l5 -175h-33c0 54.667 -11.833 92 -35.5 112s-56.834 29.333 -99.501 28l-86 -2c-24 -0.666992 -41.333 -5.16699 -52 -13.5s-17.334 -20 -20.001 -35
s-4 -38.5 -4 -70.5v-160l188 -1l-7 86h44v-210h-33c0 24.667 -3 43.5 -9 56.5s-15.167 21.667 -27.5 26s-29.5 6.5 -51.5 6.5l-31 -1l-73 -3v-229c0 -34.667 -1 -60.667 -3 -78l191 3c46.667 0.666992 82.334 12.5 107.001 35.5s37 62.833 37 119.5h34l-6 -195h-516v33z
M436.001 849c21.333 13.333 32 28 32 44c0 8.66699 -2 15.667 -6 21c-2 2.66699 -5.5 5.5 -10.5 8.5s-10.833 4.5 -17.5 4.5c-12 0 -25 -6 -39 -18l-126 -120l22 -29z" />
    <glyph glyph-name="Ecircumflex" unicode="&#xca;" horiz-adv-x="622" 
d="M55 33c23.333 0.666992 40.001 6 50.001 16s15.667 21.833 17 35.5s2 37.5 2 71.5v432c0 28 1 52 3 72l-72 -4v44h481l5 -175h-33c0 54.667 -11.833 92 -35.5 112s-56.834 29.333 -99.501 28l-86 -2c-24 -0.666992 -41.333 -5.16699 -52 -13.5s-17.334 -20 -20.001 -35
s-4 -38.5 -4 -70.5v-160l188 -1l-7 86h44v-210h-33c0 24.667 -3 43.5 -9 56.5s-15.167 21.667 -27.5 26s-29.5 6.5 -51.5 6.5l-31 -1l-73 -3v-229c0 -34.667 -1 -60.667 -3 -78l191 3c46.667 0.666992 82.334 12.5 107.001 35.5s37 62.833 37 119.5h34l-6 -195h-516v33z
M329.001 844h-2l-170 -87l-20 32l194 142h2l184 -141l-22 -34z" />
    <glyph glyph-name="Edieresis" unicode="&#xcb;" horiz-adv-x="622" 
d="M55 33c23.333 0.666992 40.001 6 50.001 16s15.667 21.833 17 35.5s2 37.5 2 71.5v432c0 28 1 52 3 72l-72 -4v44h481l5 -175h-33c0 54.667 -11.833 92 -35.5 112s-56.834 29.333 -99.501 28l-86 -2c-24 -0.666992 -41.333 -5.16699 -52 -13.5s-17.334 -20 -20.001 -35
s-4 -38.5 -4 -70.5v-160l188 -1l-7 86h44v-210h-33c0 24.667 -3 43.5 -9 56.5s-15.167 21.667 -27.5 26s-29.5 6.5 -51.5 6.5l-31 -1l-73 -3v-229c0 -34.667 -1 -60.667 -3 -78l191 3c46.667 0.666992 82.334 12.5 107.001 35.5s37 62.833 37 119.5h34l-6 -195h-516v33z
M378.33 792.45c-10.54 12.0869 -15.8105 26.9502 -15.8105 44.5898s5.4248 32.666 16.2744 45.0791c10.8506 12.4131 23.7158 18.6201 38.5957 18.6201c15.5 0 28.3652 -6.20703 38.5947 -18.6201c10.2305 -12.4131 15.3457 -27.4395 15.3457 -45.0791
s-5.4248 -32.5029 -16.2754 -44.5898c-10.8496 -12.0869 -23.7148 -18.1299 -38.5947 -18.1299s-27.5898 6.04297 -38.1299 18.1299zM199.329 792.45c-10.54 12.0869 -15.8105 26.9502 -15.8105 44.5898s5.4248 32.666 16.2744 45.0791
c10.8506 12.4131 23.7158 18.6201 38.5957 18.6201c15.5 0 28.3652 -6.20703 38.5947 -18.6201c10.2305 -12.4131 15.3457 -27.4395 15.3457 -45.0791s-5.4248 -32.5029 -16.2754 -44.5898c-10.8496 -12.0869 -23.7148 -18.1299 -38.5947 -18.1299
s-27.5898 6.04297 -38.1299 18.1299z" />
    <glyph glyph-name="Igrave" unicode="&#xcc;" horiz-adv-x="335" 
d="M55 33c23.333 0.666992 40 5.99902 50 15.999s15.667 21.833 17 35.5s2 37.5 2 71.5v432c0 28 1 52 3 72l-72 -4v44h225v-33c-23.333 -0.666992 -40 -6 -50 -16s-15.667 -21.833 -17 -35.5s-2 -37.5 -2 -71.5v-425c0 -35.333 -1 -61.666 -3 -78.999l72 4v-44h-225v33z
M62 848.999c-21.333 13.333 -32 28 -32 44c0 8.66699 2 15.667 6 21c2 2.66699 5.5 5.5 10.5 8.5s10.833 4.5 17.5 4.5c12 0 25 -6 39 -18l126 -120l-22 -29z" />
    <glyph glyph-name="Iacute" unicode="&#xcd;" horiz-adv-x="335" 
d="M55 33c23.333 0.666992 40 5.99902 50 15.999s15.667 21.833 17 35.5s2 37.5 2 71.5v432c0 28 1 52 3 72l-72 -4v44h225v-33c-23.333 -0.666992 -40 -6 -50 -16s-15.667 -21.833 -17 -35.5s-2 -37.5 -2 -71.5v-425c0 -35.333 -1 -61.666 -3 -78.999l72 4v-44h-225v33z
M280 848.999c21.333 13.333 32 28 32 44c0 8.66699 -2 15.667 -6 21c-2 2.66699 -5.5 5.5 -10.5 8.5s-10.833 4.5 -17.5 4.5c-12 0 -25 -6 -39 -18l-126 -120l22 -29z" />
    <glyph glyph-name="Icircumflex" unicode="&#xce;" horiz-adv-x="335" 
d="M19 789l155 142h2l147 -141l-23 -30l-128 84h-1l-127 -84zM55 33c23.333 0.666992 40 5.99902 50 15.999s15.667 21.833 17 35.5s2 37.5 2 71.5v432c0 28 1 52 3 72l-72 -4v44h225v-33c-23.333 -0.666992 -40 -6 -50 -16s-15.667 -21.833 -17 -35.5s-2 -37.5 -2 -71.5
v-425c0 -35.333 -1 -61.666 -3 -78.999l72 4v-44h-225v33z" />
    <glyph glyph-name="Idieresis" unicode="&#xcf;" horiz-adv-x="335" 
d="M55 33c23.333 0.666992 40 5.99902 50 15.999s15.667 21.833 17 35.5s2 37.5 2 71.5v432c0 28 1 52 3 72l-72 -4v44h225v-33c-23.333 -0.666992 -40 -6 -50 -16s-15.667 -21.833 -17 -35.5s-2 -37.5 -2 -71.5v-425c0 -35.333 -1 -61.666 -3 -78.999l72 4v-44h-225v33z
M217.329 792.449c-10.54 12.0869 -15.8105 26.9502 -15.8105 44.5898s5.4248 32.666 16.2744 45.0791c10.8506 12.4131 23.7158 18.6201 38.5957 18.6201c15.5 0 28.3652 -6.20703 38.5947 -18.6201c10.2305 -12.4131 15.3457 -27.4395 15.3457 -45.0791
s-5.4248 -32.5029 -16.2754 -44.5898c-10.8496 -12.0869 -23.7148 -18.1299 -38.5947 -18.1299s-27.5898 6.04297 -38.1299 18.1299zM57.3281 792.449c-10.54 12.0869 -15.8105 26.9502 -15.8105 44.5898s5.4248 32.666 16.2744 45.0791
c10.8506 12.4131 23.7158 18.6201 38.5957 18.6201c15.5 0 28.3652 -6.20703 38.5947 -18.6201c10.2305 -12.4131 15.3457 -27.4395 15.3457 -45.0791s-5.4248 -32.5029 -16.2754 -44.5898c-10.8496 -12.0869 -23.7148 -18.1299 -38.5947 -18.1299
s-27.5898 6.04297 -38.1299 18.1299z" />
    <glyph glyph-name="Eth" unicode="&#xd0;" horiz-adv-x="746" 
d="M590 613c73.333 -59.333 110 -147.334 110 -264.001c0 -62.667 -14.667 -120.667 -44 -174s-72.666 -95.833 -129.999 -127.5s-126.333 -47.5 -207 -47.5h-263v33c23.333 0.666992 40 6 50 16s15.667 21.833 17 35.5s2 37.5 2 71.5v179h-106v42h106v211c0 28 1 52 3 72
l-72 -4v44l236 1c125.333 0.666992 224.666 -28.666 297.999 -87.999zM465 78.999c43.333 27.333 76.999 65 100.999 113s36 101.667 36 161c0 97.333 -26.667 173.5 -80 228.5s-133.666 82.5 -240.999 82.5c-23.333 0 -40 -4.66699 -50 -14s-15.667 -20.833 -17 -34.5
s-2 -37.5 -2 -71.5v-167h181v-42h-181v-217c0 -34.667 -1 -60.667 -3 -78c23.333 -1.33301 59 -2 107 -2c56 0 105.667 13.667 149 41z" />
    <glyph glyph-name="Ntilde" unicode="&#xd1;" horiz-adv-x="762" 
d="M168 567h-1l3 -428c0 -44.667 -0.666992 -77.667 -2 -99l72 4v-44h-183v33c26.667 0 44.334 7.66699 53.001 23s13 34 13 56l1 548l-67 -4v44h119l426 -570h1l1 458c0 28 1 52 3 72l-72 -4v44h184v-33c-20 -0.666992 -34.833 -4.5 -44.5 -11.5
s-15.834 -16.5 -18.501 -28.5s-4 -28 -4 -48v-35l-2 -560h-48zM418.5 788c-14.333 7.33301 -30.835 17.668 -49.502 31.001c-13.333 10 -24.166 17.333 -32.499 22s-17.166 7 -26.499 7c-13.333 0 -25.5 -4.83301 -36.5 -14.5s-23.5 -24.834 -37.5 -45.501l-34 19
c12 30 29 54.667 51 74s43.667 29 65 29c18.667 0 34.667 -3.33301 48 -10s28.666 -16.667 45.999 -30c12.667 -10 23.667 -17.5 33 -22.5s19.333 -7.5 30 -7.5c16.667 0 31.5 5.83301 44.5 17.5s25.167 27.5 36.5 47.5l32 -16c-13.333 -38.667 -30.5 -67 -51.5 -85
s-43.5 -27 -67.5 -27c-19.333 0 -36.166 3.66699 -50.499 11z" />
    <glyph glyph-name="Ograve" unicode="&#xd2;" horiz-adv-x="794" 
d="M202 37c-53.333 35.333 -92.6689 80.832 -118.002 136.499s-38 114.5 -38 176.5c0 59.333 13.167 117 39.5 173s65.666 102.167 117.999 138.5s115.833 54.5 190.5 54.5c76.667 0 141.834 -18.167 195.501 -54.5s93.834 -82.5 120.501 -138.5s40 -113.667 40 -173
c0 -58.667 -13.167 -116.167 -39.5 -172.5s-65.666 -102.666 -117.999 -138.999s-115.833 -54.5 -190.5 -54.5c-80 0 -146.667 17.667 -200 53zM537.497 69.499c37 29.667 65.001 67.832 84.001 114.499s28.5 95.667 28.5 147c0 56.667 -10.333 111.5 -31 164.5
s-50.667 96.333 -90 130s-85.333 50.5 -138 50.5c-52 0 -96.667 -14.833 -134 -44.5s-65.5 -68.167 -84.5 -115.5s-28.5 -96.666 -28.5 -147.999c0 -52.667 9.66699 -105.5 29 -158.5s48.666 -97 87.999 -132s87 -52.5 143 -52.5c52 0 96.5 14.833 133.5 44.5z
M279.998 848.997c-21.333 13.333 -32 28 -32 44c0 8.66699 2 15.667 6 21c2 2.66699 5.5 5.5 10.5 8.5s10.833 4.5 17.5 4.5c12 0 25 -6 39 -18l126 -120l-22 -29z" />
    <glyph glyph-name="Oacute" unicode="&#xd3;" horiz-adv-x="794" 
d="M202 37c-53.333 35.333 -92.6689 80.832 -118.002 136.499s-38 114.5 -38 176.5c0 59.333 13.167 117 39.5 173s65.666 102.167 117.999 138.5s115.833 54.5 190.5 54.5c76.667 0 141.834 -18.167 195.501 -54.5s93.834 -82.5 120.501 -138.5s40 -113.667 40 -173
c0 -58.667 -13.167 -116.167 -39.5 -172.5s-65.666 -102.666 -117.999 -138.999s-115.833 -54.5 -190.5 -54.5c-80 0 -146.667 17.667 -200 53zM537.497 69.499c37 29.667 65.001 67.832 84.001 114.499s28.5 95.667 28.5 147c0 56.667 -10.333 111.5 -31 164.5
s-50.667 96.333 -90 130s-85.333 50.5 -138 50.5c-52 0 -96.667 -14.833 -134 -44.5s-65.5 -68.167 -84.5 -115.5s-28.5 -96.666 -28.5 -147.999c0 -52.667 9.66699 -105.5 29 -158.5s48.666 -97 87.999 -132s87 -52.5 143 -52.5c52 0 96.5 14.833 133.5 44.5z
M497.998 848.997c21.333 13.333 32 28 32 44c0 8.66699 -2 15.667 -6 21c-2 2.66699 -5.5 5.5 -10.5 8.5s-10.833 4.5 -17.5 4.5c-12 0 -25 -6 -39 -18l-126 -120l22 -29z" />
    <glyph glyph-name="Ocircumflex" unicode="&#xd4;" horiz-adv-x="794" 
d="M202 37c-53.333 35.333 -92.6689 80.832 -118.002 136.499s-38 114.5 -38 176.5c0 59.333 13.167 117 39.5 173s65.666 102.167 117.999 138.5s115.833 54.5 190.5 54.5c76.667 0 141.834 -18.167 195.501 -54.5s93.834 -82.5 120.501 -138.5s40 -113.667 40 -173
c0 -58.667 -13.167 -116.167 -39.5 -172.5s-65.666 -102.666 -117.999 -138.999s-115.833 -54.5 -190.5 -54.5c-80 0 -146.667 17.667 -200 53zM537.497 69.499c37 29.667 65.001 67.832 84.001 114.499s28.5 95.667 28.5 147c0 56.667 -10.333 111.5 -31 164.5
s-50.667 96.333 -90 130s-85.333 50.5 -138 50.5c-52 0 -96.667 -14.833 -134 -44.5s-65.5 -68.167 -84.5 -115.5s-28.5 -96.666 -28.5 -147.999c0 -52.667 9.66699 -105.5 29 -158.5s48.666 -97 87.999 -132s87 -52.5 143 -52.5c52 0 96.5 14.833 133.5 44.5z
M390.998 843.997h-2l-170 -87l-20 32l194 142h2l184 -141l-22 -34z" />
    <glyph glyph-name="Otilde" unicode="&#xd5;" horiz-adv-x="794" 
d="M202 37c-53.333 35.333 -92.6689 80.832 -118.002 136.499s-38 114.5 -38 176.5c0 59.333 13.167 117 39.5 173s65.666 102.167 117.999 138.5s115.833 54.5 190.5 54.5c76.667 0 141.834 -18.167 195.501 -54.5s93.834 -82.5 120.501 -138.5s40 -113.667 40 -173
c0 -58.667 -13.167 -116.167 -39.5 -172.5s-65.666 -102.666 -117.999 -138.999s-115.833 -54.5 -190.5 -54.5c-80 0 -146.667 17.667 -200 53zM537.497 69.499c37 29.667 65.001 67.832 84.001 114.499s28.5 95.667 28.5 147c0 56.667 -10.333 111.5 -31 164.5
s-50.667 96.333 -90 130s-85.333 50.5 -138 50.5c-52 0 -96.667 -14.833 -134 -44.5s-65.5 -68.167 -84.5 -115.5s-28.5 -96.666 -28.5 -147.999c0 -52.667 9.66699 -105.5 29 -158.5s48.666 -97 87.999 -132s87 -52.5 143 -52.5c52 0 96.5 14.833 133.5 44.5z
M412.498 787.997c-14.333 7.33301 -30.835 17.668 -49.502 31.001c-13.333 10 -24.166 17.333 -32.499 22s-17.166 7 -26.499 7c-13.333 0 -25.5 -4.83301 -36.5 -14.5s-23.5 -24.834 -37.5 -45.501l-34 19c12 30 29 54.667 51 74s43.667 29 65 29
c18.667 0 34.667 -3.33301 48 -10s28.666 -16.667 45.999 -30c12.667 -10 23.667 -17.5 33 -22.5s19.333 -7.5 30 -7.5c16.667 0 31.5 5.83301 44.5 17.5s25.167 27.5 36.5 47.5l32 -16c-13.333 -38.667 -30.5 -67 -51.5 -85s-43.5 -27 -67.5 -27
c-19.333 0 -36.166 3.66699 -50.499 11z" />
    <glyph glyph-name="Odieresis" unicode="&#xd6;" horiz-adv-x="794" 
d="M202 37c-53.333 35.333 -92.6689 80.832 -118.002 136.499s-38 114.5 -38 176.5c0 59.333 13.167 117 39.5 173s65.666 102.167 117.999 138.5s115.833 54.5 190.5 54.5c76.667 0 141.834 -18.167 195.501 -54.5s93.834 -82.5 120.501 -138.5s40 -113.667 40 -173
c0 -58.667 -13.167 -116.167 -39.5 -172.5s-65.666 -102.666 -117.999 -138.999s-115.833 -54.5 -190.5 -54.5c-80 0 -146.667 17.667 -200 53zM537.497 69.499c37 29.667 65.001 67.832 84.001 114.499s28.5 95.667 28.5 147c0 56.667 -10.333 111.5 -31 164.5
s-50.667 96.333 -90 130s-85.333 50.5 -138 50.5c-52 0 -96.667 -14.833 -134 -44.5s-65.5 -68.167 -84.5 -115.5s-28.5 -96.666 -28.5 -147.999c0 -52.667 9.66699 -105.5 29 -158.5s48.666 -97 87.999 -132s87 -52.5 143 -52.5c52 0 96.5 14.833 133.5 44.5z
M449.327 792.447c-10.54 12.0869 -15.8105 26.9502 -15.8105 44.5898s5.4248 32.666 16.2744 45.0791c10.8506 12.4131 23.7158 18.6201 38.5957 18.6201c15.5 0 28.3652 -6.20703 38.5947 -18.6201c10.2305 -12.4131 15.3457 -27.4395 15.3457 -45.0791
s-5.4248 -32.5029 -16.2754 -44.5898c-10.8496 -12.0869 -23.7148 -18.1299 -38.5947 -18.1299s-27.5898 6.04297 -38.1299 18.1299zM269.326 792.447c-10.54 12.0869 -15.8105 26.9502 -15.8105 44.5898s5.4248 32.666 16.2744 45.0791
c10.8506 12.4131 23.7158 18.6201 38.5957 18.6201c15.5 0 28.3652 -6.20703 38.5947 -18.6201c10.2305 -12.4131 15.3457 -27.4395 15.3457 -45.0791s-5.4248 -32.5029 -16.2754 -44.5898c-10.8496 -12.0869 -23.7148 -18.1299 -38.5947 -18.1299
s-27.5898 6.04297 -38.1299 18.1299z" />
    <glyph glyph-name="multiply" unicode="&#xd7;" horiz-adv-x="552" 
d="M274 268l-177 -175l-43 43l177 174l-175 174l47 45l174 -174l182 179l41 -43l-181 -178l181 -179l-45 -45z" />
    <glyph glyph-name="Oslash" unicode="&#xd8;" horiz-adv-x="794" 
d="M715.5 509c22.333 -52 33.501 -105.001 33.501 -159.001c0 -58.667 -13.167 -116.167 -39.5 -172.5s-65.666 -102.666 -117.999 -138.999s-115.833 -54.5 -190.5 -54.5c-58 0 -109 9.66699 -153 29l-55 -93l-48 30l52 90c-50.667 32.667 -88.667 77 -114 133
s-38 115 -38 177c0 59.333 13.167 117 39.5 173s65.666 102.167 117.999 138.5s115.833 54.5 190.5 54.5c63.333 0 120.666 -13.333 171.999 -40l46 79l54 -34l-47 -81c42.667 -35.333 75.167 -79 97.5 -131zM166.501 225.499
c15.667 -47.667 38.168 -88.501 67.501 -122.501l299 518c-40.667 36.667 -88.334 55 -143.001 55c-52 0 -96.667 -14.833 -134 -44.5s-65.5 -68.167 -84.5 -115.5s-28.5 -96.666 -28.5 -147.999c0 -47.333 7.83301 -94.833 23.5 -142.5zM536.502 69.498
c37 29.667 64.998 67.833 83.998 114.5s28.5 95.667 28.5 147c0 43.333 -6.16699 86 -18.5 128s-30.166 79.667 -53.499 113l-299 -508c36.667 -26 78.334 -39 125.001 -39c52 0 96.5 14.833 133.5 44.5z" />
    <glyph glyph-name="Ugrave" unicode="&#xd9;" horiz-adv-x="752" 
d="M213.5 21.5c-41 25 -70.332 63.3311 -87.999 114.998s-26.5 119.834 -26.5 204.501v203c0 42.667 1.33301 81.334 4 116.001l-72 -3v43h224v-33c-29.333 0 -48 -7.66699 -56 -23s-12 -34 -12 -56v-252c0 -58 5.16699 -108.167 15.5 -150.5s30.666 -77 60.999 -104
s73.833 -40.5 130.5 -40.5c69.333 0 120.833 23.833 154.5 71.5s51.167 112.5 52.5 194.5l3 281c0 28 1 52 3 72l-71 -4v44h186v-33c-24 -0.666992 -41 -6 -51 -16s-15.667 -21.833 -17 -35.5s-2 -37.5 -2 -71.5l-2 -232c-0.666992 -96.667 -22.167 -175.5 -64.5 -236.5
s-110.5 -91.5 -204.5 -91.5c-70.667 0 -126.5 12.5 -167.5 37.5zM279.001 848.998c-21.333 13.333 -32 28 -32 44c0 8.66699 2 15.667 6 21c2 2.66699 5.5 5.5 10.5 8.5s10.833 4.5 17.5 4.5c12 0 25 -6 39 -18l126 -120l-22 -29z" />
    <glyph glyph-name="Uacute" unicode="&#xda;" horiz-adv-x="752" 
d="M213.5 21.5c-41 25 -70.332 63.3311 -87.999 114.998s-26.5 119.834 -26.5 204.501v203c0 42.667 1.33301 81.334 4 116.001l-72 -3v43h224v-33c-29.333 0 -48 -7.66699 -56 -23s-12 -34 -12 -56v-252c0 -58 5.16699 -108.167 15.5 -150.5s30.666 -77 60.999 -104
s73.833 -40.5 130.5 -40.5c69.333 0 120.833 23.833 154.5 71.5s51.167 112.5 52.5 194.5l3 281c0 28 1 52 3 72l-71 -4v44h186v-33c-24 -0.666992 -41 -6 -51 -16s-15.667 -21.833 -17 -35.5s-2 -37.5 -2 -71.5l-2 -232c-0.666992 -96.667 -22.167 -175.5 -64.5 -236.5
s-110.5 -91.5 -204.5 -91.5c-70.667 0 -126.5 12.5 -167.5 37.5zM497.001 848.998c21.333 13.333 32 28 32 44c0 8.66699 -2 15.667 -6 21c-2 2.66699 -5.5 5.5 -10.5 8.5s-10.833 4.5 -17.5 4.5c-12 0 -25 -6 -39 -18l-126 -120l22 -29z" />
    <glyph glyph-name="Ucircumflex" unicode="&#xdb;" horiz-adv-x="752" 
d="M213.5 21.5c-41 25 -70.332 63.3311 -87.999 114.998s-26.5 119.834 -26.5 204.501v203c0 42.667 1.33301 81.334 4 116.001l-72 -3v43h224v-33c-29.333 0 -48 -7.66699 -56 -23s-12 -34 -12 -56v-252c0 -58 5.16699 -108.167 15.5 -150.5s30.666 -77 60.999 -104
s73.833 -40.5 130.5 -40.5c69.333 0 120.833 23.833 154.5 71.5s51.167 112.5 52.5 194.5l3 281c0 28 1 52 3 72l-71 -4v44h186v-33c-24 -0.666992 -41 -6 -51 -16s-15.667 -21.833 -17 -35.5s-2 -37.5 -2 -71.5l-2 -232c-0.666992 -96.667 -22.167 -175.5 -64.5 -236.5
s-110.5 -91.5 -204.5 -91.5c-70.667 0 -126.5 12.5 -167.5 37.5zM390.001 843.998h-2l-170 -87l-20 32l194 142h2l184 -141l-22 -34z" />
    <glyph glyph-name="Udieresis" unicode="&#xdc;" horiz-adv-x="752" 
d="M213.5 21.5c-41 25 -70.332 63.3311 -87.999 114.998s-26.5 119.834 -26.5 204.501v203c0 42.667 1.33301 81.334 4 116.001l-72 -3v43h224v-33c-29.333 0 -48 -7.66699 -56 -23s-12 -34 -12 -56v-252c0 -58 5.16699 -108.167 15.5 -150.5s30.666 -77 60.999 -104
s73.833 -40.5 130.5 -40.5c69.333 0 120.833 23.833 154.5 71.5s51.167 112.5 52.5 194.5l3 281c0 28 1 52 3 72l-71 -4v44h186v-33c-24 -0.666992 -41 -6 -51 -16s-15.667 -21.833 -17 -35.5s-2 -37.5 -2 -71.5l-2 -232c-0.666992 -96.667 -22.167 -175.5 -64.5 -236.5
s-110.5 -91.5 -204.5 -91.5c-70.667 0 -126.5 12.5 -167.5 37.5zM445.33 792.448c-10.54 12.0869 -15.8105 26.9502 -15.8105 44.5898s5.4248 32.666 16.2744 45.0791c10.8506 12.4131 23.7158 18.6201 38.5957 18.6201c15.5 0 28.3652 -6.20703 38.5947 -18.6201
c10.2305 -12.4131 15.3457 -27.4395 15.3457 -45.0791s-5.4248 -32.5029 -16.2754 -44.5898c-10.8496 -12.0869 -23.7148 -18.1299 -38.5947 -18.1299s-27.5898 6.04297 -38.1299 18.1299zM265.329 792.448c-10.54 12.0869 -15.8105 26.9502 -15.8105 44.5898
s5.4248 32.666 16.2744 45.0791c10.8506 12.4131 23.7158 18.6201 38.5957 18.6201c15.5 0 28.3652 -6.20703 38.5947 -18.6201c10.2305 -12.4131 15.3457 -27.4395 15.3457 -45.0791s-5.4248 -32.5029 -16.2754 -44.5898
c-10.8496 -12.0869 -23.7148 -18.1299 -38.5947 -18.1299s-27.5898 6.04297 -38.1299 18.1299z" />
    <glyph glyph-name="Yacute" unicode="&#xdd;" horiz-adv-x="634" 
d="M215 33c28.667 1.33301 47.166 9.33105 55.499 23.998s12.5 37.334 12.5 68.001v31l1 114l-174 275c-30.667 47.333 -48.667 85 -54 113l-62 -2v44h258v-33c-52 0 -78 -14.667 -78 -44c0 -17.333 8.33301 -39 25 -65l31 -49c42.667 -69.333 79.667 -125.666 111 -168.999
h2l107 204l21 39c19.333 36.667 35.333 62 48 76l-79 -3v44h204v-33c-31.333 -2 -57.5 -12.667 -78.5 -32s-43.833 -51.666 -68.5 -96.999l-126 -238c-0.666992 -32.667 -1.16699 -67.334 -1.5 -104.001s-0.166016 -62.334 0.500977 -77.001
c0 -35.333 -1 -61.666 -3 -78.999l83 4v-44h-235v33zM439.999 848.998c21.333 13.333 32 28 32 44c0 8.66699 -2 15.667 -6 21c-2 2.66699 -5.5 5.5 -10.5 8.5s-10.833 4.5 -17.5 4.5c-12 0 -25 -6 -39 -18l-126 -120l22 -29z" />
    <glyph glyph-name="Thorn" unicode="&#xde;" horiz-adv-x="596" 
d="M211 119c0 -35.333 -0.999023 -61.667 -2.99902 -79l72 4v-44h-225v33c23.333 0.666992 40 6 50 16s15.667 21.833 17 35.5s2 37.5 2 71.5v432c0 28 1 52 3 72l-72 -4v44h225v-33c-28.667 -0.666992 -47.334 -8.16699 -56.001 -22.5s-13 -36.5 -13 -66.5l54 1
c203.333 0 305 -67 305 -201c0 -37.333 -10.333 -72.333 -31 -105s-55.667 -59.5 -105 -80.5s-115 -31.5 -197 -31.5h-26v-42zM211.001 538.999v-335.999c18 -3.33301 39.667 -4.33301 65 -3c64.667 1.33301 113.667 18.166 147 50.499s50 74.5 50 126.5
c0 53.333 -17.167 94 -51.5 122s-84.5 42 -150.5 42c-14.667 0 -34.667 -0.666992 -60 -2z" />
    <glyph glyph-name="germandbls" unicode="&#xdf;" horiz-adv-x="681" 
d="M426 -7.5c-22 5.66699 -41.3301 13.5029 -57.9971 23.5029l3 -24h-42l-6 172h31c2.66699 -42.667 15.167 -76.834 37.5 -102.501s52.166 -38.5 89.499 -38.5c24 0 44.667 7.16699 62 21.5s26 34.166 26 59.499c0 16.667 -5 31.334 -15 44.001s-22.333 23.5 -37 32.5
s-35 19.833 -61 32.5c-31.333 14.667 -56.5 28.167 -75.5 40.5s-35.333 28.166 -49 47.499s-20.5 42.666 -20.5 69.999c0 46 15.833 82 47.5 108s76.5 38.333 134.5 37c1.33301 81.333 -12.334 135.166 -41.001 161.499s-62.667 39.5 -102 39.5c-60.667 0 -104 -26 -130 -78
c-10 -21.333 -17 -46.333 -21 -75s-6 -64 -6 -106l1 -352c0 -30 -1.33301 -52.667 -4 -68l63 3v-41h-204v30c19.333 0 33.166 4.83301 41.499 14.5s13.333 22 15 37s2.5 38.5 2.5 70.5l-1 305l-82 -2v45h82v1c0 50 9.16699 94.5 27.5 133.5s45.5 69.667 81.5 92
s80 33.5 132 33.5c33.333 0 67.833 -6.66699 103.5 -20s66.5 -38.833 92.5 -76.5s37.667 -89.834 35 -156.501c0 -7.33301 -1 -17 -3 -29c-32 2 -51.667 3 -59 3c-84.667 0 -127 -26 -127 -78c0 -25.333 10 -46.166 30 -62.499s50 -34.5 90 -54.5
c30.667 -15.333 55.5 -29.333 74.5 -42s35.167 -28.167 48.5 -46.5s20 -40.166 20 -65.499c0 -48.667 -15.167 -85.5 -45.5 -110.5s-71.833 -37.5 -124.5 -37.5c-16 0 -35 2.83301 -57 8.5z" />
    <glyph glyph-name="agrave" unicode="&#xe0;" horiz-adv-x="516" 
d="M72.5 17c-25.667 22 -38.4961 50.667 -38.4961 86c0 38.667 15.5 71.334 46.5 98.001s70 46.5 117 59.5s94.167 19.167 141.5 18.5v62c0 43.333 -6.33301 77.166 -19 101.499s-39.667 36.5 -81 36.5c-20.667 0 -40.334 -4.33301 -59.001 -13s-32.334 -21.667 -41.001 -39
c8.66699 -9.33301 13 -22 13 -38c0 -10 -3.66699 -19.5 -11 -28.5s-18 -13.5 -32 -13.5s-25 4.5 -33 13.5s-12 20.833 -12 35.5c0 22 8.5 42.167 25.5 60.5s40.667 32.833 71 43.5s64.166 16 101.499 16c56 0 97.333 -14.833 124 -44.5s39.667 -76.5 39 -140.5l-1 -225
c0 -21.333 -1.33301 -44 -4 -68l71 4v-42h-143c-2 10 -4.33301 29 -7 57c-48.667 -48.667 -101 -73 -157 -73c-48.667 0 -85.834 11 -111.501 33zM276.004 55.5c20.667 9.66699 41.667 24.5 63 44.5c-0.666992 10 -1 27 -1 51l1 94
c-54.667 -2 -103.334 -13.167 -146.001 -33.5s-64 -51.5 -64 -93.5c0 -24.667 7.33301 -43.667 22 -57s33.334 -20 56.001 -20c25.333 0 48.333 4.83301 69 14.5zM192.004 719c-14 14.667 -21.001 29 -21.001 43c0 10.667 4 20 12 28c8 5.33301 16 8 24 8
c14.667 0 28.334 -9 41.001 -27l84 -135l-28 -23z" />
    <glyph glyph-name="aacute" unicode="&#xe1;" horiz-adv-x="516" 
d="M72.5 17c-25.667 22 -38.4961 50.667 -38.4961 86c0 38.667 15.5 71.334 46.5 98.001s70 46.5 117 59.5s94.167 19.167 141.5 18.5v62c0 43.333 -6.33301 77.166 -19 101.499s-39.667 36.5 -81 36.5c-20.667 0 -40.334 -4.33301 -59.001 -13s-32.334 -21.667 -41.001 -39
c8.66699 -9.33301 13 -22 13 -38c0 -10 -3.66699 -19.5 -11 -28.5s-18 -13.5 -32 -13.5s-25 4.5 -33 13.5s-12 20.833 -12 35.5c0 22 8.5 42.167 25.5 60.5s40.667 32.833 71 43.5s64.166 16 101.499 16c56 0 97.333 -14.833 124 -44.5s39.667 -76.5 39 -140.5l-1 -225
c0 -21.333 -1.33301 -44 -4 -68l71 4v-42h-143c-2 10 -4.33301 29 -7 57c-48.667 -48.667 -101 -73 -157 -73c-48.667 0 -85.834 11 -111.501 33zM276.004 55.5c20.667 9.66699 41.667 24.5 63 44.5c-0.666992 10 -1 27 -1 51l1 94
c-54.667 -2 -103.334 -13.167 -146.001 -33.5s-64 -51.5 -64 -93.5c0 -24.667 7.33301 -43.667 22 -57s33.334 -20 56.001 -20c25.333 0 48.333 4.83301 69 14.5zM310.004 719c14 14.667 21.001 29 21.001 43c0 10.667 -4 20 -12 28c-8 5.33301 -16 8 -24 8
c-14.667 0 -28.334 -9 -41.001 -27l-84 -135l28 -23z" />
    <glyph glyph-name="acircumflex" unicode="&#xe2;" horiz-adv-x="516" 
d="M72.5 17c-25.667 22 -38.4961 50.667 -38.4961 86c0 38.667 15.5 71.334 46.5 98.001s70 46.5 117 59.5s94.167 19.167 141.5 18.5v62c0 43.333 -6.33301 77.166 -19 101.499s-39.667 36.5 -81 36.5c-20.667 0 -40.334 -4.33301 -59.001 -13s-32.334 -21.667 -41.001 -39
c8.66699 -9.33301 13 -22 13 -38c0 -10 -3.66699 -19.5 -11 -28.5s-18 -13.5 -32 -13.5s-25 4.5 -33 13.5s-12 20.833 -12 35.5c0 22 8.5 42.167 25.5 60.5s40.667 32.833 71 43.5s64.166 16 101.499 16c56 0 97.333 -14.833 124 -44.5s39.667 -76.5 39 -140.5l-1 -225
c0 -21.333 -1.33301 -44 -4 -68l71 4v-42h-143c-2 10 -4.33301 29 -7 57c-48.667 -48.667 -101 -73 -157 -73c-48.667 0 -85.834 11 -111.501 33zM276.004 55.5c20.667 9.66699 41.667 24.5 63 44.5c-0.666992 10 -1 27 -1 51l1 94
c-54.667 -2 -103.334 -13.167 -146.001 -33.5s-64 -51.5 -64 -93.5c0 -24.667 7.33301 -43.667 22 -57s33.334 -20 56.001 -20c25.333 0 48.333 4.83301 69 14.5zM252.004 725h-2l-129 -102l-25 29l159 159h2l149 -163l-27 -32z" />
    <glyph glyph-name="atilde" unicode="&#xe3;" horiz-adv-x="516" 
d="M72.5 17c-25.667 22 -38.4961 50.667 -38.4961 86c0 38.667 15.5 71.334 46.5 98.001s70 46.5 117 59.5s94.167 19.167 141.5 18.5v62c0 43.333 -6.33301 77.166 -19 101.499s-39.667 36.5 -81 36.5c-20.667 0 -40.334 -4.33301 -59.001 -13s-32.334 -21.667 -41.001 -39
c8.66699 -9.33301 13 -22 13 -38c0 -10 -3.66699 -19.5 -11 -28.5s-18 -13.5 -32 -13.5s-25 4.5 -33 13.5s-12 20.833 -12 35.5c0 22 8.5 42.167 25.5 60.5s40.667 32.833 71 43.5s64.166 16 101.499 16c56 0 97.333 -14.833 124 -44.5s39.667 -76.5 39 -140.5l-1 -225
c0 -21.333 -1.33301 -44 -4 -68l71 4v-42h-143c-2 10 -4.33301 29 -7 57c-48.667 -48.667 -101 -73 -157 -73c-48.667 0 -85.834 11 -111.501 33zM276.004 55.5c20.667 9.66699 41.667 24.5 63 44.5c-0.666992 10 -1 27 -1 51l1 94
c-54.667 -2 -103.334 -13.167 -146.001 -33.5s-64 -51.5 -64 -93.5c0 -24.667 7.33301 -43.667 22 -57s33.334 -20 56.001 -20c25.333 0 48.333 4.83301 69 14.5zM276.004 653c-12 5.33301 -26.002 13.3311 -42.002 23.998c-10.667 7.33301 -19.5 12.833 -26.5 16.5
s-14.167 5.5 -21.5 5.5c-13.333 0 -26.666 -3.5 -39.999 -10.5s-24.333 -17.5 -33 -31.5l-30 17c8.66699 24 23.5 44.333 44.5 61s41.167 25 60.5 25c14.667 0 27.5 -2.66699 38.5 -8s23.5 -12.666 37.5 -21.999c10.667 -8 20 -13.833 28 -17.5s16.333 -5.5 25 -5.5
c14.667 0 28.5 4.33301 41.5 13s23.5 20.334 31.5 35.001l29 -15c-10 -30.667 -24.667 -54.167 -44 -70.5s-38.666 -24.5 -57.999 -24.5c-15.333 0 -29 2.66699 -41 8z" />
    <glyph glyph-name="adieresis" unicode="&#xe4;" horiz-adv-x="516" 
d="M72.5 17c-25.667 22 -38.4961 50.667 -38.4961 86c0 38.667 15.5 71.334 46.5 98.001s70 46.5 117 59.5s94.167 19.167 141.5 18.5v62c0 43.333 -6.33301 77.166 -19 101.499s-39.667 36.5 -81 36.5c-20.667 0 -40.334 -4.33301 -59.001 -13s-32.334 -21.667 -41.001 -39
c8.66699 -9.33301 13 -22 13 -38c0 -10 -3.66699 -19.5 -11 -28.5s-18 -13.5 -32 -13.5s-25 4.5 -33 13.5s-12 20.833 -12 35.5c0 22 8.5 42.167 25.5 60.5s40.667 32.833 71 43.5s64.166 16 101.499 16c56 0 97.333 -14.833 124 -44.5s39.667 -76.5 39 -140.5l-1 -225
c0 -21.333 -1.33301 -44 -4 -68l71 4v-42h-143c-2 10 -4.33301 29 -7 57c-48.667 -48.667 -101 -73 -157 -73c-48.667 0 -85.834 11 -111.501 33zM276.004 55.5c20.667 9.66699 41.667 24.5 63 44.5c-0.666992 10 -1 27 -1 51l1 94
c-54.667 -2 -103.334 -13.167 -146.001 -33.5s-64 -51.5 -64 -93.5c0 -24.667 7.33301 -43.667 22 -57s33.334 -20 56.001 -20c25.333 0 48.333 4.83301 69 14.5zM124.852 626.3c-9.63281 11.3467 -14.4492 25.2998 -14.4492 41.8594s4.95801 30.666 14.875 42.3193
c9.91602 11.6533 21.6738 17.4795 35.2734 17.4795c14.167 0 25.9248 -5.82617 35.2744 -17.4795s14.0244 -25.7598 14.0244 -42.3193s-4.95801 -30.5127 -14.875 -41.8594c-9.91602 -11.3467 -21.6738 -17.0195 -35.2734 -17.0195s-25.2158 5.67285 -34.8496 17.0195z
M291.852 626.3c-9.63281 11.3467 -14.4492 25.2998 -14.4492 41.8594s4.95801 30.666 14.875 42.3193c9.91602 11.6533 21.6738 17.4795 35.2734 17.4795c14.167 0 25.9248 -5.82617 35.2744 -17.4795s14.0244 -25.7598 14.0244 -42.3193
s-4.95801 -30.5127 -14.875 -41.8594c-9.91602 -11.3467 -21.6738 -17.0195 -35.2734 -17.0195s-25.2158 5.67285 -34.8496 17.0195z" />
    <glyph glyph-name="aring" unicode="&#xe5;" horiz-adv-x="516" 
d="M72.5 17c-25.667 22 -38.4961 50.667 -38.4961 86c0 38.667 15.5 71.334 46.5 98.001s70 46.5 117 59.5s94.167 19.167 141.5 18.5v62c0 43.333 -6.33301 77.166 -19 101.499s-39.667 36.5 -81 36.5c-20.667 0 -40.334 -4.33301 -59.001 -13s-32.334 -21.667 -41.001 -39
c8.66699 -9.33301 13 -22 13 -38c0 -10 -3.66699 -19.5 -11 -28.5s-18 -13.5 -32 -13.5s-25 4.5 -33 13.5s-12 20.833 -12 35.5c0 22 8.5 42.167 25.5 60.5s40.667 32.833 71 43.5s64.166 16 101.499 16c56 0 97.333 -14.833 124 -44.5s39.667 -76.5 39 -140.5l-1 -225
c0 -21.333 -1.33301 -44 -4 -68l71 4v-42h-143c-2 10 -4.33301 29 -7 57c-48.667 -48.667 -101 -73 -157 -73c-48.667 0 -85.834 11 -111.501 33zM276.004 55.5c20.667 9.66699 41.667 24.5 63 44.5c-0.666992 10 -1 27 -1 51l1 94
c-54.667 -2 -103.334 -13.167 -146.001 -33.5s-64 -51.5 -64 -93.5c0 -24.667 7.33301 -43.667 22 -57s33.334 -20 56.001 -20c25.333 0 48.333 4.83301 69 14.5zM182.504 627c-19.667 16 -29.5 39.333 -29.5 70c0 28 9.83301 51.167 29.5 69.5s42.167 27.5 67.5 27.5
c26.667 0 49.834 -8 69.501 -24s29.5 -39.333 29.5 -70c0 -28 -10 -51.167 -30 -69.5s-42.333 -27.5 -67 -27.5c-26.667 0 -49.834 8 -69.501 24zM284.004 650c8 10.667 11.998 25 11.998 43c0 21.333 -4 38.333 -12 51s-19 19 -33 19c-13.333 0 -24.166 -5.5 -32.499 -16.5
s-12.5 -25.5 -12.5 -43.5c0 -20 4.33301 -36.5 13 -49.5s20.334 -19.5 35.001 -19.5c12 0 22 5.33301 30 16z" />
    <glyph glyph-name="ae" unicode="&#xe6;" horiz-adv-x="777" 
d="M73.5 16.5c-26.333 21.667 -39.498 49.4971 -39.498 83.4971c0 38.667 15.333 71.334 46 98.001s69.167 46.334 115.5 59.001s93.166 18.667 140.499 18v61c0 44.667 -6.33301 79.667 -19 105s-39.334 38 -80.001 38c-22 0 -42.333 -5.33301 -61 -16
s-31.334 -25 -38.001 -43c4 -3.33301 7.16699 -8.5 9.5 -15.5s3.5 -12.833 3.5 -17.5c0 -9.33301 -3.5 -18.666 -10.5 -27.999s-17.167 -14 -30.5 -14s-24 4.16699 -32 12.5s-12 20.166 -12 35.499c0 20.667 7.66699 40.334 23 59.001s37.166 34 65.499 46
s60.833 18 97.5 18c32.667 0 60.834 -7.5 84.501 -22.5s41.5 -36.167 53.5 -63.5c19.333 26.667 42.833 47.667 70.5 63s58.5 23 92.5 23c54 0 96.833 -17.833 128.5 -53.5s47.834 -91.5 48.501 -167.5l-305 -6c-0.666992 -8.66699 -1 -21 -1 -37
c0 -68 13.833 -121.167 41.5 -159.5s63.5 -57.5 107.5 -57.5c53.333 0 99.333 27.667 138 83l25 -20c-50.667 -76 -113 -114 -187 -114c-84 0 -143.333 31.667 -178 95h-1c-46 -63.333 -109.333 -95 -190 -95c-44.667 0 -80.167 10.833 -106.5 32.5zM640.002 330.997
c0 43.333 -6.33301 78.5 -19 105.5s-36.667 40.5 -72 40.5c-66.667 0 -105.667 -48.667 -117 -146h208zM345.002 106.997c-6 51.333 -9.33301 95.998 -10 133.998c-54.667 -2.66699 -102.667 -14 -144 -34s-62 -50.667 -62 -92c0 -23.333 7 -41.166 21 -53.499
s30.333 -19.166 49 -20.499c55.333 -4 104 18 146 66z" />
    <glyph glyph-name="ccedilla" unicode="&#xe7;" horiz-adv-x="532" 
d="M163.5 15c-37.667 20.667 -67.5 50.332 -89.5 88.999s-33 84.334 -33 137.001c0 46.667 11.167 91.167 33.5 133.5s53.333 76.5 93 102.5s84.5 39 134.5 39c36 0 68 -5.66699 96 -17s49.833 -26.333 65.5 -45s23.5 -39 23.5 -61c0 -15.333 -4.33301 -28 -13 -38
s-20.667 -15 -36 -15c-14.667 0 -25.667 4.83301 -33 14.5s-11 19.834 -11 30.501c0 16.667 5 30 15 40c-7.33301 20.667 -21.5 34.834 -42.5 42.501s-41.833 11.5 -62.5 11.5c-30.667 0 -58.167 -8.33301 -82.5 -25s-43.5 -41 -57.5 -73s-21 -70.333 -21 -115
s7.16699 -84.334 21.5 -119.001s34.5 -61.834 60.5 -81.501s56 -29.5 90 -29.5c30 0 59.5 8.16699 88.5 24.5s51.833 36.833 68.5 61.5l26 -20c-24.667 -38.667 -56.5 -68 -95.5 -88s-77.167 -30 -114.5 -30c-45.333 0 -86.833 10.333 -124.5 31zM241 -208.002
c36.667 6.66699 65.833 16.5 87.5 29.5s32.5 28.833 32.5 47.5c0 20 -10.667 30 -32 30c-15.333 0 -30.333 -5 -45 -15l-34 16l29 108h56l-27 -82c19.333 11.333 42 17 68 17c20.667 0 37 -6 49 -18s18 -28 18 -48c0 -35.333 -20 -62 -60 -80s-85.333 -30.667 -136 -38z" />
    <glyph glyph-name="egrave" unicode="&#xe8;" horiz-adv-x="542" 
d="M161.5 16.5c-37 21.667 -66.166 52.668 -87.499 93.001s-32 86.833 -32 139.5c0 46.667 10.667 90.5 32 131.5s51.166 73.833 89.499 98.5s81.833 37 130.5 37c38 0 72.333 -8.33301 103 -25s55 -41.5 73 -74.5s27 -73.5 27 -121.5l-352 -6
c-0.666992 -80 12.5 -142.333 39.5 -187s68.833 -67 125.5 -67c30.667 0 62.167 8 94.5 24s57.166 35.667 74.499 59l24 -20c-25.333 -38.667 -58.166 -67.334 -98.499 -86.001s-79.833 -28 -118.5 -28c-46 0 -87.5 10.833 -124.5 32.5zM403.001 331.001
c0 40 -9 74.333 -27 103s-45 43 -81 43c-82.667 0 -131.667 -48.667 -147 -146h255zM221.001 686.001c-14 14.667 -21.001 29 -21.001 43c0 10.667 4 20 12 28c8 5.33301 16 8 24 8c14.667 0 28.334 -9 41.001 -27l84 -135l-28 -23z" />
    <glyph glyph-name="eacute" unicode="&#xe9;" horiz-adv-x="542" 
d="M161.5 16.5c-37 21.667 -66.166 52.668 -87.499 93.001s-32 86.833 -32 139.5c0 46.667 10.667 90.5 32 131.5s51.166 73.833 89.499 98.5s81.833 37 130.5 37c38 0 72.333 -8.33301 103 -25s55 -41.5 73 -74.5s27 -73.5 27 -121.5l-352 -6
c-0.666992 -80 12.5 -142.333 39.5 -187s68.833 -67 125.5 -67c30.667 0 62.167 8 94.5 24s57.166 35.667 74.499 59l24 -20c-25.333 -38.667 -58.166 -67.334 -98.499 -86.001s-79.833 -28 -118.5 -28c-46 0 -87.5 10.833 -124.5 32.5zM403.001 331.001
c0 40 -9 74.333 -27 103s-45 43 -81 43c-82.667 0 -131.667 -48.667 -147 -146h255zM339.001 686.001c14 14.667 21.001 29 21.001 43c0 10.667 -4 20 -12 28c-8 5.33301 -16 8 -24 8c-14.667 0 -28.334 -9 -41.001 -27l-84 -135l28 -23z" />
    <glyph glyph-name="ecircumflex" unicode="&#xea;" horiz-adv-x="542" 
d="M161.5 16.5c-37 21.667 -66.166 52.668 -87.499 93.001s-32 86.833 -32 139.5c0 46.667 10.667 90.5 32 131.5s51.166 73.833 89.499 98.5s81.833 37 130.5 37c38 0 72.333 -8.33301 103 -25s55 -41.5 73 -74.5s27 -73.5 27 -121.5l-352 -6
c-0.666992 -80 12.5 -142.333 39.5 -187s68.833 -67 125.5 -67c30.667 0 62.167 8 94.5 24s57.166 35.667 74.499 59l24 -20c-25.333 -38.667 -58.166 -67.334 -98.499 -86.001s-79.833 -28 -118.5 -28c-46 0 -87.5 10.833 -124.5 32.5zM403.001 331.001
c0 40 -9 74.333 -27 103s-45 43 -81 43c-82.667 0 -131.667 -48.667 -147 -146h255zM281.001 692.001h-2l-129 -102l-25 29l159 159h2l149 -163l-27 -32z" />
    <glyph glyph-name="edieresis" unicode="&#xeb;" horiz-adv-x="542" 
d="M161.5 16.5c-37 21.667 -66.166 52.668 -87.499 93.001s-32 86.833 -32 139.5c0 46.667 10.667 90.5 32 131.5s51.166 73.833 89.499 98.5s81.833 37 130.5 37c38 0 72.333 -8.33301 103 -25s55 -41.5 73 -74.5s27 -73.5 27 -121.5l-352 -6
c-0.666992 -80 12.5 -142.333 39.5 -187s68.833 -67 125.5 -67c30.667 0 62.167 8 94.5 24s57.166 35.667 74.499 59l24 -20c-25.333 -38.667 -58.166 -67.334 -98.499 -86.001s-79.833 -28 -118.5 -28c-46 0 -87.5 10.833 -124.5 32.5zM403.001 331.001
c0 40 -9 74.333 -27 103s-45 43 -81 43c-82.667 0 -131.667 -48.667 -147 -146h255zM164.849 626.301c-9.63281 11.3467 -14.4492 25.2998 -14.4492 41.8594s4.95801 30.666 14.875 42.3193c9.91602 11.6533 21.6738 17.4795 35.2734 17.4795
c14.167 0 25.9248 -5.82617 35.2744 -17.4795s14.0244 -25.7598 14.0244 -42.3193s-4.95801 -30.5127 -14.875 -41.8594c-9.91602 -11.3467 -21.6738 -17.0195 -35.2734 -17.0195s-25.2158 5.67285 -34.8496 17.0195zM331.849 626.301
c-9.63281 11.3467 -14.4492 25.2998 -14.4492 41.8594s4.95801 30.666 14.875 42.3193c9.91602 11.6533 21.6738 17.4795 35.2734 17.4795c14.167 0 25.9248 -5.82617 35.2744 -17.4795s14.0244 -25.7598 14.0244 -42.3193s-4.95801 -30.5127 -14.875 -41.8594
c-9.91602 -11.3467 -21.6738 -17.0195 -35.2734 -17.0195s-25.2158 5.67285 -34.8496 17.0195z" />
    <glyph glyph-name="igrave" unicode="&#xec;" horiz-adv-x="281" 
d="M44 30c19.333 0 33.167 4.83203 41.5 14.499s13.333 22 15 37s2.5 38.5 2.5 70.5v228c0 19.333 1.33301 41 4 65l-71 -4v42c39.333 0 67.5 2.33301 84.5 7s30.167 11.334 39.5 20.001h29v-404c0 -30 -1.33301 -52.667 -4 -68l63 3v-41h-204v30zM82.001 685.999
c-14 14.667 -21.001 29 -21.001 43c0 10.667 4 20 12 28c8 5.33301 16 8 24 8c14.667 0 28.334 -9 41.001 -27l84 -135l-28 -23z" />
    <glyph glyph-name="iacute" unicode="&#xed;" horiz-adv-x="281" 
d="M44 30c19.333 0 33.167 4.83203 41.5 14.499s13.333 22 15 37s2.5 38.5 2.5 70.5v228c0 19.333 1.33301 41 4 65l-71 -4v42c39.333 0 67.5 2.33301 84.5 7s30.167 11.334 39.5 20.001h29v-404c0 -30 -1.33301 -52.667 -4 -68l63 3v-41h-204v30zM200.001 685.999
c14 14.667 21.001 29 21.001 43c0 10.667 -4 20 -12 28c-8 5.33301 -16 8 -24 8c-14.667 0 -28.334 -9 -41.001 -27l-84 -135l28 -23z" />
    <glyph glyph-name="icircumflex" unicode="&#xee;" horiz-adv-x="281" 
d="M127 683h-2l-100 -93l-31 29l135 159h2l127 -163l-28 -28zM44 30c19.333 0 33.167 4.83203 41.5 14.499s13.333 22 15 37s2.5 38.5 2.5 70.5v228c0 19.333 1.33301 41 4 65l-71 -4v42c39.333 0 67.5 2.33301 84.5 7s30.167 11.334 39.5 20.001h29v-404
c0 -30 -1.33301 -52.667 -4 -68l63 3v-41h-204v30z" />
    <glyph glyph-name="idieresis" unicode="&#xef;" horiz-adv-x="281" 
d="M44 30c19.333 0 33.167 4.83203 41.5 14.499s13.333 22 15 37s2.5 38.5 2.5 70.5v228c0 19.333 1.33301 41 4 65l-71 -4v42c39.333 0 67.5 2.33301 84.5 7s30.167 11.334 39.5 20.001h29v-404c0 -30 -1.33301 -52.667 -4 -68l63 3v-41h-204v30zM32.8486 626.299
c-9.63281 11.3467 -14.4492 25.2998 -14.4492 41.8594s4.95801 30.666 14.875 42.3193c9.91602 11.6533 21.6738 17.4795 35.2734 17.4795c14.167 0 25.9248 -5.82617 35.2744 -17.4795s14.0244 -25.7598 14.0244 -42.3193s-4.95801 -30.5127 -14.875 -41.8594
c-9.91602 -11.3467 -21.6738 -17.0195 -35.2734 -17.0195s-25.2158 5.67285 -34.8496 17.0195zM172.849 626.299c-9.63281 11.3467 -14.4492 25.2998 -14.4492 41.8594s4.95801 30.666 14.875 42.3193c9.91602 11.6533 21.6738 17.4795 35.2734 17.4795
c14.167 0 25.9248 -5.82617 35.2744 -17.4795s14.0244 -25.7598 14.0244 -42.3193s-4.95801 -30.5127 -14.875 -41.8594c-9.91602 -11.3467 -21.6738 -17.0195 -35.2734 -17.0195s-25.2158 5.67285 -34.8496 17.0195z" />
    <glyph glyph-name="eth" unicode="&#xf0;" horiz-adv-x="559" 
d="M149.5 13c-33 19.333 -58.999 47 -77.999 83s-28.5 78 -28.5 126c0 48.667 9 94 27 136s43.833 75.5 77.5 100.5s72.834 37.5 117.501 37.5c27.333 0 53.666 -5.33301 78.999 -16s45 -27.334 59 -50.001h2c-11.333 44.667 -30.666 88.834 -57.999 132.501
s-62 79.167 -104 106.5l-61 -77l-36 30l58 69c-32.667 15.333 -66.334 24.333 -101.001 27l4 42c44.667 -2.66699 88 -13 130 -31l54 64l29 -27l-44 -56c70.667 -40.667 126 -100.667 166 -180s60 -166.333 60 -261c0 -84 -20.333 -152.5 -61 -205.5
s-101.334 -79.5 -182.001 -79.5c-40 0 -76.5 9.66699 -109.5 29zM344.501 48c21 16 37.667 39.6689 50 71.002s18.5 69.333 18.5 114c0 57.333 -10.833 108.666 -32.5 153.999s-55.834 68 -102.501 68c-42 0 -75 -20.333 -99 -61s-36 -91 -36 -151
c0 -68.667 12.333 -122.334 37 -161.001s56.334 -58 95.001 -58c25.333 0 48.5 8 69.5 24z" />
    <glyph glyph-name="ntilde" unicode="&#xf1;" horiz-adv-x="607" 
d="M44 30c19.333 0 33.1699 4.83496 41.5029 14.502s13.166 21.667 14.499 36s2.33301 38.166 3 71.499l1 228c0 28 1.33301 49.667 4 65l-71 -4v42c39.333 0 66.333 2.16699 81 6.5s27 11.166 37 20.499h29c1.33301 -12.667 2.66602 -33 3.99902 -61
c22.667 20 48.5 36.167 77.5 48.5s57.5 18.5 85.5 18.5c58 0 100.333 -18.167 127 -54.5s40 -92.833 40 -169.5v-186c0 -30 -1.33301 -52.667 -4 -68l63 3v-41h-204v30c19.333 0 33.166 4.83301 41.499 14.5s13.333 22 15 37s2.5 38.5 2.5 70.5v140
c-0.666992 57.333 -10 100.5 -28 129.5s-46.333 43.5 -85 43.5c-24 0 -47.833 -6 -71.5 -18s-43.167 -27.667 -58.5 -47c0.666992 -7.33301 1 -20.333 1 -39l-1 -255c0 -30 -1.33301 -52.667 -4 -68l63 3v-41h-204v30zM344.004 620.002
c-12 5.33301 -26.002 13.3311 -42.002 23.998c-10.667 7.33301 -19.5 12.833 -26.5 16.5s-14.167 5.5 -21.5 5.5c-13.333 0 -26.666 -3.5 -39.999 -10.5s-24.333 -17.5 -33 -31.5l-30 17c8.66699 24 23.5 44.333 44.5 61s41.167 25 60.5 25c14.667 0 27.5 -2.66699 38.5 -8
s23.5 -12.666 37.5 -21.999c10.667 -8 20 -13.833 28 -17.5s16.333 -5.5 25 -5.5c14.667 0 28.5 4.33301 41.5 13s23.5 20.334 31.5 35.001l29 -15c-10 -30.667 -24.667 -54.167 -44 -70.5s-38.666 -24.5 -57.999 -24.5c-15.333 0 -29 2.66699 -41 8z" />
    <glyph glyph-name="ograve" unicode="&#xf2;" horiz-adv-x="585" 
d="M165.5 16.5c-38.333 21.667 -68.668 51.835 -91.001 90.502s-33.5 82.334 -33.5 131.001c0 52 11 99.167 33 141.5s52.167 75.666 90.5 99.999s80.833 36.5 127.5 36.5c46 0 88.333 -11.167 127 -33.5s69.167 -52.833 91.5 -91.5s33.5 -81.667 33.5 -129
c0 -50.667 -11.167 -97.334 -33.5 -140.001s-52.666 -76.334 -90.999 -101.001s-80.833 -37 -127.5 -37c-46 0 -88.167 10.833 -126.5 32.5zM407.498 84.001c23 40 34.499 89.667 34.499 149c0 67.333 -12.5 125 -37.5 173s-62.5 72 -112.5 72
c-49.333 0 -86.5 -20.333 -111.5 -61s-37.5 -90.667 -37.5 -150c0 -42.667 5.83301 -82.5 17.5 -119.5s29.334 -66.833 53.001 -89.5s52.5 -34 86.5 -34c48.667 0 84.5 20 107.5 60zM232.997 686.001c-14 14.667 -21.001 29 -21.001 43c0 10.667 4 20 12 28
c8 5.33301 16 8 24 8c14.667 0 28.334 -9 41.001 -27l84 -135l-28 -23z" />
    <glyph glyph-name="oacute" unicode="&#xf3;" horiz-adv-x="585" 
d="M165.5 16.5c-38.333 21.667 -68.668 51.835 -91.001 90.502s-33.5 82.334 -33.5 131.001c0 52 11 99.167 33 141.5s52.167 75.666 90.5 99.999s80.833 36.5 127.5 36.5c46 0 88.333 -11.167 127 -33.5s69.167 -52.833 91.5 -91.5s33.5 -81.667 33.5 -129
c0 -50.667 -11.167 -97.334 -33.5 -140.001s-52.666 -76.334 -90.999 -101.001s-80.833 -37 -127.5 -37c-46 0 -88.167 10.833 -126.5 32.5zM407.498 84.001c23 40 34.499 89.667 34.499 149c0 67.333 -12.5 125 -37.5 173s-62.5 72 -112.5 72
c-49.333 0 -86.5 -20.333 -111.5 -61s-37.5 -90.667 -37.5 -150c0 -42.667 5.83301 -82.5 17.5 -119.5s29.334 -66.833 53.001 -89.5s52.5 -34 86.5 -34c48.667 0 84.5 20 107.5 60zM350.997 686.001c14 14.667 21.001 29 21.001 43c0 10.667 -4 20 -12 28
c-8 5.33301 -16 8 -24 8c-14.667 0 -28.334 -9 -41.001 -27l-84 -135l28 -23z" />
    <glyph glyph-name="ocircumflex" unicode="&#xf4;" horiz-adv-x="585" 
d="M165.5 16.5c-38.333 21.667 -68.668 51.835 -91.001 90.502s-33.5 82.334 -33.5 131.001c0 52 11 99.167 33 141.5s52.167 75.666 90.5 99.999s80.833 36.5 127.5 36.5c46 0 88.333 -11.167 127 -33.5s69.167 -52.833 91.5 -91.5s33.5 -81.667 33.5 -129
c0 -50.667 -11.167 -97.334 -33.5 -140.001s-52.666 -76.334 -90.999 -101.001s-80.833 -37 -127.5 -37c-46 0 -88.167 10.833 -126.5 32.5zM407.498 84.001c23 40 34.499 89.667 34.499 149c0 67.333 -12.5 125 -37.5 173s-62.5 72 -112.5 72
c-49.333 0 -86.5 -20.333 -111.5 -61s-37.5 -90.667 -37.5 -150c0 -42.667 5.83301 -82.5 17.5 -119.5s29.334 -66.833 53.001 -89.5s52.5 -34 86.5 -34c48.667 0 84.5 20 107.5 60zM292.997 692.001h-2l-129 -102l-25 29l159 159h2l149 -163l-27 -32z" />
    <glyph glyph-name="otilde" unicode="&#xf5;" horiz-adv-x="585" 
d="M165.5 16.5c-38.333 21.667 -68.668 51.835 -91.001 90.502s-33.5 82.334 -33.5 131.001c0 52 11 99.167 33 141.5s52.167 75.666 90.5 99.999s80.833 36.5 127.5 36.5c46 0 88.333 -11.167 127 -33.5s69.167 -52.833 91.5 -91.5s33.5 -81.667 33.5 -129
c0 -50.667 -11.167 -97.334 -33.5 -140.001s-52.666 -76.334 -90.999 -101.001s-80.833 -37 -127.5 -37c-46 0 -88.167 10.833 -126.5 32.5zM407.498 84.001c23 40 34.499 89.667 34.499 149c0 67.333 -12.5 125 -37.5 173s-62.5 72 -112.5 72
c-49.333 0 -86.5 -20.333 -111.5 -61s-37.5 -90.667 -37.5 -150c0 -42.667 5.83301 -82.5 17.5 -119.5s29.334 -66.833 53.001 -89.5s52.5 -34 86.5 -34c48.667 0 84.5 20 107.5 60zM316.997 620.001c-12 5.33301 -26.002 13.3311 -42.002 23.998
c-10.667 7.33301 -19.5 12.833 -26.5 16.5s-14.167 5.5 -21.5 5.5c-13.333 0 -26.666 -3.5 -39.999 -10.5s-24.333 -17.5 -33 -31.5l-30 17c8.66699 24 23.5 44.333 44.5 61s41.167 25 60.5 25c14.667 0 27.5 -2.66699 38.5 -8s23.5 -12.666 37.5 -21.999
c10.667 -8 20 -13.833 28 -17.5s16.333 -5.5 25 -5.5c14.667 0 28.5 4.33301 41.5 13s23.5 20.334 31.5 35.001l29 -15c-10 -30.667 -24.667 -54.167 -44 -70.5s-38.666 -24.5 -57.999 -24.5c-15.333 0 -29 2.66699 -41 8z" />
    <glyph glyph-name="odieresis" unicode="&#xf6;" horiz-adv-x="585" 
d="M165.5 16.5c-38.333 21.667 -68.668 51.835 -91.001 90.502s-33.5 82.334 -33.5 131.001c0 52 11 99.167 33 141.5s52.167 75.666 90.5 99.999s80.833 36.5 127.5 36.5c46 0 88.333 -11.167 127 -33.5s69.167 -52.833 91.5 -91.5s33.5 -81.667 33.5 -129
c0 -50.667 -11.167 -97.334 -33.5 -140.001s-52.666 -76.334 -90.999 -101.001s-80.833 -37 -127.5 -37c-46 0 -88.167 10.833 -126.5 32.5zM407.498 84.001c23 40 34.499 89.667 34.499 149c0 67.333 -12.5 125 -37.5 173s-62.5 72 -112.5 72
c-49.333 0 -86.5 -20.333 -111.5 -61s-37.5 -90.667 -37.5 -150c0 -42.667 5.83301 -82.5 17.5 -119.5s29.334 -66.833 53.001 -89.5s52.5 -34 86.5 -34c48.667 0 84.5 20 107.5 60zM169.845 626.301c-9.63281 11.3467 -14.4492 25.2998 -14.4492 41.8594
s4.95801 30.666 14.875 42.3193c9.91602 11.6533 21.6738 17.4795 35.2734 17.4795c14.167 0 25.9248 -5.82617 35.2744 -17.4795s14.0244 -25.7598 14.0244 -42.3193s-4.95801 -30.5127 -14.875 -41.8594c-9.91602 -11.3467 -21.6738 -17.0195 -35.2734 -17.0195
s-25.2158 5.67285 -34.8496 17.0195zM336.845 626.301c-9.63281 11.3467 -14.4492 25.2998 -14.4492 41.8594s4.95801 30.666 14.875 42.3193c9.91602 11.6533 21.6738 17.4795 35.2734 17.4795c14.167 0 25.9248 -5.82617 35.2744 -17.4795
s14.0244 -25.7598 14.0244 -42.3193s-4.95801 -30.5127 -14.875 -41.8594c-9.91602 -11.3467 -21.6738 -17.0195 -35.2734 -17.0195s-25.2158 5.67285 -34.8496 17.0195z" />
    <glyph glyph-name="divide" unicode="&#xf7;" horiz-adv-x="264" 
d="M91 62.5c-11.333 12.333 -17 27.5 -17 45.5s5.83301 33.333 17.5 46s25.5 19 41.5 19c16.667 0 30.5 -6.33301 41.5 -19s16.5 -28 16.5 -46s-5.83301 -33.167 -17.5 -45.5s-25.5 -18.5 -41.5 -18.5s-29.667 6.16699 -41 18.5zM91 405.5c-11.333 12.333 -17 27.5 -17 45.5
s5.83301 33.333 17.5 46s25.5 19 41.5 19c16.667 0 30.5 -6.33301 41.5 -19s16.5 -28 16.5 -46s-5.83301 -33.167 -17.5 -45.5s-25.5 -18.5 -41.5 -18.5s-29.667 6.16699 -41 18.5z" />
    <glyph glyph-name="oslash" unicode="&#xf8;" horiz-adv-x="585" 
d="M522 368.5c14.667 -33 21.9971 -68.498 21.9971 -106.498c0 -50.667 -11.167 -97.334 -33.5 -140.001s-52.666 -76.334 -90.999 -101.001s-80.833 -37 -127.5 -37c-42.667 0 -82 9.33301 -118 28l-57 -87l-37 27l54 86c-29.333 22.667 -52.166 51.334 -68.499 86.001
s-24.5 72.667 -24.5 114c0 52 11 99.167 33 141.5s52.167 75.666 90.5 99.999s80.833 36.5 127.5 36.5c44.667 0 85.667 -10.333 123 -31l51 80l47 -31l-53 -81c26.667 -23.333 47.334 -51.5 62.001 -84.5zM176.997 107.002l207.001 327.999
c-24.667 28.667 -55.334 43 -92.001 43c-49.333 0 -86.5 -20.333 -111.5 -61s-37.5 -90.667 -37.5 -150c0 -63.333 11.333 -116.666 34 -159.999zM407.498 84.001c23 40 34.5 89.667 34.5 149s-9 109.333 -27 150l-208 -319c25.333 -26.667 56.333 -40 93 -40
c48.667 0 84.5 20 107.5 60z" />
    <glyph glyph-name="ugrave" unicode="&#xf9;" horiz-adv-x="597" 
d="M130.5 33c-26.333 32.667 -39.501 88.999 -39.501 168.999v178c0 28 1.33301 49.667 4 65l-69 -3v41h31c26 0 45.667 2.33301 59 7s24.666 11.334 33.999 20.001h29v-305c0 -58.667 8.16699 -101.667 24.5 -129s43.5 -41 81.5 -41c24.667 0 48.834 7.33301 72.501 22
s42.834 33 57.501 55v257c0 31.333 1.66699 56.666 5 75.999l-72 -3v41h31c26 0 45.667 2.33301 59 7s24.666 11.334 33.999 20.001h29l-1 -378c0 -38.667 -1.33301 -70 -4 -94l72 4v-42h-143c-3.33301 20.667 -5.66602 40.667 -6.99902 60
c-22 -22 -47.667 -40.167 -77 -54.5s-58 -21.5 -86 -21.5c-56.667 0 -98.167 16.333 -124.5 49zM226.999 685.999c-14 14.667 -21.001 29 -21.001 43c0 10.667 4 20 12 28c8 5.33301 16 8 24 8c14.667 0 28.334 -9 41.001 -27l84 -135l-28 -23z" />
    <glyph glyph-name="uacute" unicode="&#xfa;" horiz-adv-x="597" 
d="M130.5 33c-26.333 32.667 -39.501 88.999 -39.501 168.999v178c0 28 1.33301 49.667 4 65l-69 -3v41h31c26 0 45.667 2.33301 59 7s24.666 11.334 33.999 20.001h29v-305c0 -58.667 8.16699 -101.667 24.5 -129s43.5 -41 81.5 -41c24.667 0 48.834 7.33301 72.501 22
s42.834 33 57.501 55v257c0 31.333 1.66699 56.666 5 75.999l-72 -3v41h31c26 0 45.667 2.33301 59 7s24.666 11.334 33.999 20.001h29l-1 -378c0 -38.667 -1.33301 -70 -4 -94l72 4v-42h-143c-3.33301 20.667 -5.66602 40.667 -6.99902 60
c-22 -22 -47.667 -40.167 -77 -54.5s-58 -21.5 -86 -21.5c-56.667 0 -98.167 16.333 -124.5 49zM344.999 685.999c14 14.667 21.001 29 21.001 43c0 10.667 -4 20 -12 28c-8 5.33301 -16 8 -24 8c-14.667 0 -28.334 -9 -41.001 -27l-84 -135l28 -23z" />
    <glyph glyph-name="ucircumflex" unicode="&#xfb;" horiz-adv-x="597" 
d="M130.5 33c-26.333 32.667 -39.501 88.999 -39.501 168.999v178c0 28 1.33301 49.667 4 65l-69 -3v41h31c26 0 45.667 2.33301 59 7s24.666 11.334 33.999 20.001h29v-305c0 -58.667 8.16699 -101.667 24.5 -129s43.5 -41 81.5 -41c24.667 0 48.834 7.33301 72.501 22
s42.834 33 57.501 55v257c0 31.333 1.66699 56.666 5 75.999l-72 -3v41h31c26 0 45.667 2.33301 59 7s24.666 11.334 33.999 20.001h29l-1 -378c0 -38.667 -1.33301 -70 -4 -94l72 4v-42h-143c-3.33301 20.667 -5.66602 40.667 -6.99902 60
c-22 -22 -47.667 -40.167 -77 -54.5s-58 -21.5 -86 -21.5c-56.667 0 -98.167 16.333 -124.5 49zM286.999 691.999h-2l-129 -102l-25 29l159 159h2l149 -163l-27 -32z" />
    <glyph glyph-name="udieresis" unicode="&#xfc;" horiz-adv-x="597" 
d="M130.5 33c-26.333 32.667 -39.501 88.999 -39.501 168.999v178c0 28 1.33301 49.667 4 65l-69 -3v41h31c26 0 45.667 2.33301 59 7s24.666 11.334 33.999 20.001h29v-305c0 -58.667 8.16699 -101.667 24.5 -129s43.5 -41 81.5 -41c24.667 0 48.834 7.33301 72.501 22
s42.834 33 57.501 55v257c0 31.333 1.66699 56.666 5 75.999l-72 -3v41h31c26 0 45.667 2.33301 59 7s24.666 11.334 33.999 20.001h29l-1 -378c0 -38.667 -1.33301 -70 -4 -94l72 4v-42h-143c-3.33301 20.667 -5.66602 40.667 -6.99902 60
c-22 -22 -47.667 -40.167 -77 -54.5s-58 -21.5 -86 -21.5c-56.667 0 -98.167 16.333 -124.5 49zM185.847 626.299c-9.63281 11.3467 -14.4492 25.2998 -14.4492 41.8594s4.95801 30.666 14.875 42.3193c9.91602 11.6533 21.6738 17.4795 35.2734 17.4795
c14.167 0 25.9248 -5.82617 35.2744 -17.4795s14.0244 -25.7598 14.0244 -42.3193s-4.95801 -30.5127 -14.875 -41.8594c-9.91602 -11.3467 -21.6738 -17.0195 -35.2734 -17.0195s-25.2158 5.67285 -34.8496 17.0195zM352.847 626.299
c-9.63281 11.3467 -14.4492 25.2998 -14.4492 41.8594s4.95801 30.666 14.875 42.3193c9.91602 11.6533 21.6738 17.4795 35.2734 17.4795c14.167 0 25.9248 -5.82617 35.2744 -17.4795s14.0244 -25.7598 14.0244 -42.3193s-4.95801 -30.5127 -14.875 -41.8594
c-9.91602 -11.3467 -21.6738 -17.0195 -35.2734 -17.0195s-25.2158 5.67285 -34.8496 17.0195z" />
    <glyph glyph-name="yacute" unicode="&#xfd;" horiz-adv-x="528" 
d="M67 -255c-14 10.667 -20.9951 25.6631 -20.9951 44.9961c0 12.667 4.16699 23.834 12.5 33.501s19.166 14.5 32.499 14.5s23.166 -4.66699 29.499 -14s9.5 -19 9.5 -29c0 -6 -0.333008 -10.667 -1 -14c2 -1.33301 5.66699 -2 11 -2c8.66699 0 17.5 3.33301 26.5 10
s17.167 16.334 24.5 29.001c15.333 25.333 38.666 82.333 69.999 171l-156 334c-28 60 -45.667 106 -53 138l-48 -2v41h207v-30h-4c-31.333 -2 -47 -15.333 -47 -40c0 -16.667 8 -42.667 24 -78l117 -251l86 251c22.667 66 39 103 49 111l-69 -4v41h157v-30
c-22.667 -8.66699 -40.167 -22.5 -52.5 -41.5s-25.833 -48.5 -40.5 -88.5l-125 -349c-24 -67.333 -43.833 -118.166 -59.5 -152.499s-33.334 -61.166 -53.001 -80.499s-43.834 -29 -72.501 -29c-22 0 -40 5.33301 -54 16zM346.005 685.996c14 14.667 21.001 29 21.001 43
c0 10.667 -4 20 -12 28c-8 5.33301 -16 8 -24 8c-14.667 0 -28.334 -9 -41.001 -27l-84 -135l28 -23z" />
    <glyph glyph-name="thorn" unicode="&#xfe;" horiz-adv-x="577" 
d="M15 -225c19.333 0 33.1709 4.83008 41.5039 14.4971s13.166 21.667 14.499 36s2.33301 38.166 3 71.499l2 728c0 28 1.33301 49.667 4 65l-71 -4v42c39.333 0 67.333 2.33301 84 7s29.667 11.334 39 20.001h29l-1 -293c20.667 16.667 44.167 29.834 70.5 39.501
s53.166 14.5 80.499 14.5c40.667 0 78 -10.333 112 -31s61 -50.167 81 -88.5s30 -82.5 30 -132.5c0 -55.333 -11.5 -104.166 -34.5 -146.499s-53.833 -75.166 -92.5 -98.499s-81.334 -35 -128.001 -35s-86.334 10.333 -119.001 31v-164c0 -30 -1.33301 -52.667 -4 -68l63 3
v-41h-204v30zM389.005 86.4971c28 41.667 41.999 95.832 41.999 162.499c0 60 -13 111.333 -39 154s-64.333 64 -115 64c-22 0 -43.167 -4.66699 -63.5 -14s-38.166 -21.666 -53.499 -36.999v-354c33.333 -25.333 72.333 -38 117 -38c46.667 0 84 20.833 112 62.5z" />
    <glyph glyph-name="ydieresis" unicode="&#xff;" horiz-adv-x="528" 
d="M67 -255c-14 10.667 -20.9951 25.6631 -20.9951 44.9961c0 12.667 4.16699 23.834 12.5 33.501s19.166 14.5 32.499 14.5s23.166 -4.66699 29.499 -14s9.5 -19 9.5 -29c0 -6 -0.333008 -10.667 -1 -14c2 -1.33301 5.66699 -2 11 -2c8.66699 0 17.5 3.33301 26.5 10
s17.167 16.334 24.5 29.001c15.333 25.333 38.666 82.333 69.999 171l-156 334c-28 60 -45.667 106 -53 138l-48 -2v41h207v-30h-4c-31.333 -2 -47 -15.333 -47 -40c0 -16.667 8 -42.667 24 -78l117 -251l86 251c22.667 66 39 103 49 111l-69 -4v41h157v-30
c-22.667 -8.66699 -40.167 -22.5 -52.5 -41.5s-25.833 -48.5 -40.5 -88.5l-125 -349c-24 -67.333 -43.833 -118.166 -59.5 -152.499s-33.334 -61.166 -53.001 -80.499s-43.834 -29 -72.501 -29c-22 0 -40 5.33301 -54 16zM170.853 626.296
c-9.63281 11.3467 -14.4492 25.2998 -14.4492 41.8594s4.95801 30.666 14.875 42.3193c9.91602 11.6533 21.6738 17.4795 35.2734 17.4795c14.167 0 25.9248 -5.82617 35.2744 -17.4795s14.0244 -25.7598 14.0244 -42.3193s-4.95801 -30.5127 -14.875 -41.8594
c-9.91602 -11.3467 -21.6738 -17.0195 -35.2734 -17.0195s-25.2158 5.67285 -34.8496 17.0195zM337.853 626.296c-9.63281 11.3467 -14.4492 25.2998 -14.4492 41.8594s4.95801 30.666 14.875 42.3193c9.91602 11.6533 21.6738 17.4795 35.2734 17.4795
c14.167 0 25.9248 -5.82617 35.2744 -17.4795s14.0244 -25.7598 14.0244 -42.3193s-4.95801 -30.5127 -14.875 -41.8594c-9.91602 -11.3467 -21.6738 -17.0195 -35.2734 -17.0195s-25.2158 5.67285 -34.8496 17.0195z" />
    <glyph glyph-name="Amacron" unicode="&#x100;" horiz-adv-x="626" 
d="M-6 33c16.667 0 30.002 3.83203 40.002 11.499s18.167 17.667 24.5 30s13.833 30.833 22.5 55.5l10 28l206 561h24l223 -569c7.33301 -18 13.666 -37.5 18.999 -58.5s7.66602 -38.167 6.99902 -51.5l68 4v-44h-229v33c39.333 0.666992 59 16.667 59 48
c0 12.667 -3.33301 28.334 -10 47.001l-35 94l-260 -6c-10 -27.333 -21.667 -63 -35 -107c-6.66699 -22 -15 -45 -25 -69l78 4v-44h-187v33zM409.002 258.999l-71 191l-45 123h-2l-42 -113l-54 -152l-17 -49h231zM180.002 899.999h265v-56l-265 -4v60z" />
    <glyph glyph-name="amacron" unicode="&#x101;" horiz-adv-x="516" 
d="M72.5 17c-25.667 22 -38.4961 50.667 -38.4961 86c0 38.667 15.5 71.334 46.5 98.001s70 46.5 117 59.5s94.167 19.167 141.5 18.5v62c0 43.333 -6.33301 77.166 -19 101.499s-39.667 36.5 -81 36.5c-20.667 0 -40.334 -4.33301 -59.001 -13s-32.334 -21.667 -41.001 -39
c8.66699 -9.33301 13 -22 13 -38c0 -10 -3.66699 -19.5 -11 -28.5s-18 -13.5 -32 -13.5s-25 4.5 -33 13.5s-12 20.833 -12 35.5c0 22 8.5 42.167 25.5 60.5s40.667 32.833 71 43.5s64.166 16 101.499 16c56 0 97.333 -14.833 124 -44.5s39.667 -76.5 39 -140.5l-1 -225
c0 -21.333 -1.33301 -44 -4 -68l71 4v-42h-143c-2 10 -4.33301 29 -7 57c-48.667 -48.667 -101 -73 -157 -73c-48.667 0 -85.834 11 -111.501 33zM276.004 55.5c20.667 9.66699 41.667 24.5 63 44.5c-0.666992 10 -1 27 -1 51l1 94
c-54.667 -2 -103.334 -13.167 -146.001 -33.5s-64 -51.5 -64 -93.5c0 -24.667 7.33301 -43.667 22 -57s33.334 -20 56.001 -20c25.333 0 48.333 4.83301 69 14.5zM118.004 733h265v-56l-265 -4v60z" />
    <glyph glyph-name="Abreve" unicode="&#x102;" horiz-adv-x="626" 
d="M-6 33c16.667 0 30.002 3.83203 40.002 11.499s18.167 17.667 24.5 30s13.833 30.833 22.5 55.5l10 28l206 561h24l223 -569c7.33301 -18 13.666 -37.5 18.999 -58.5s7.66602 -38.167 6.99902 -51.5l68 4v-44h-229v33c39.333 0.666992 59 16.667 59 48
c0 12.667 -3.33301 28.334 -10 47.001l-35 94l-260 -6c-10 -27.333 -21.667 -63 -35 -107c-6.66699 -22 -15 -45 -25 -69l78 4v-44h-187v33zM409.002 258.999l-71 191l-45 123h-2l-42 -113l-54 -152l-17 -49h231zM228.002 835.499c-26 17.667 -46.333 43.167 -61 76.5l26 12
c11.333 -14.667 28 -27.334 50 -38.001s45.333 -16 70 -16s48 5.33301 70 16s38.667 23.334 50 38.001l27 -12c-15.333 -33.333 -36 -58.833 -62 -76.5s-54.333 -26.5 -85 -26.5s-59 8.83301 -85 26.5z" />
    <glyph glyph-name="abreve" unicode="&#x103;" horiz-adv-x="516" 
d="M72.5 17c-25.667 22 -38.4961 50.667 -38.4961 86c0 38.667 15.5 71.334 46.5 98.001s70 46.5 117 59.5s94.167 19.167 141.5 18.5v62c0 43.333 -6.33301 77.166 -19 101.499s-39.667 36.5 -81 36.5c-20.667 0 -40.334 -4.33301 -59.001 -13s-32.334 -21.667 -41.001 -39
c8.66699 -9.33301 13 -22 13 -38c0 -10 -3.66699 -19.5 -11 -28.5s-18 -13.5 -32 -13.5s-25 4.5 -33 13.5s-12 20.833 -12 35.5c0 22 8.5 42.167 25.5 60.5s40.667 32.833 71 43.5s64.166 16 101.499 16c56 0 97.333 -14.833 124 -44.5s39.667 -76.5 39 -140.5l-1 -225
c0 -21.333 -1.33301 -44 -4 -68l71 4v-42h-143c-2 10 -4.33301 29 -7 57c-48.667 -48.667 -101 -73 -157 -73c-48.667 0 -85.834 11 -111.501 33zM276.004 55.5c20.667 9.66699 41.667 24.5 63 44.5c-0.666992 10 -1 27 -1 51l1 94
c-54.667 -2 -103.334 -13.167 -146.001 -33.5s-64 -51.5 -64 -93.5c0 -24.667 7.33301 -43.667 22 -57s33.334 -20 56.001 -20c25.333 0 48.333 4.83301 69 14.5zM169.504 667c-25 20 -43.5 48.667 -55.5 86l29 15c10.667 -19.333 26 -35.833 46 -49.5s41 -20.5 63 -20.5
s43 7 63 21s35 31 45 51l27 -12c-29.333 -80.667 -75.333 -121 -138 -121c-28 0 -54.5 10 -79.5 30z" />
    <glyph glyph-name="Aogonek" unicode="&#x104;" horiz-adv-x="626" 
d="M-6 33c16.667 0 30.002 3.83203 40.002 11.499s18.167 17.667 24.5 30s13.833 30.833 22.5 55.5l10 28l206 561h24l223 -569c7.33301 -18 13.666 -37.5 18.999 -58.5s7.66602 -38.167 6.99902 -51.5l68 4v-44h-229v33c39.333 0.666992 59 16.667 59 48
c0 12.667 -3.33301 28.334 -10 47.001l-35 94l-260 -6c-10 -27.333 -21.667 -63 -35 -107c-6.66699 -22 -15 -45 -25 -69l78 4v-44h-187v33zM409.002 258.999l-71 191l-45 123h-2l-42 -113l-54 -152l-17 -49h231zM380.002 -230.501
c-19.333 19 -28.998 43.498 -28.998 73.498c0 40 21.167 76.5 63.5 109.5s92.166 57.5 149.499 73.5v-26c-38.667 -13.333 -70.334 -31.666 -95.001 -54.999s-37 -50.666 -37 -81.999c0 -20.667 6 -37.334 18 -50.001s26.667 -19 44 -19c21.333 0 43 9.33301 65 28l17 -18
c-14 -17.333 -31.667 -32.166 -53 -44.499s-43.333 -18.5 -66 -18.5c-32 0 -57.667 9.5 -77 28.5z" />
    <glyph glyph-name="aogonek" unicode="&#x105;" horiz-adv-x="516" 
d="M72.5 17c-25.667 22 -38.4961 50.667 -38.4961 86c0 38.667 15.5 71.334 46.5 98.001s70 46.5 117 59.5s94.167 19.167 141.5 18.5v62c0 43.333 -6.33301 77.166 -19 101.499s-39.667 36.5 -81 36.5c-20.667 0 -40.334 -4.33301 -59.001 -13s-32.334 -21.667 -41.001 -39
c8.66699 -9.33301 13 -22 13 -38c0 -10 -3.66699 -19.5 -11 -28.5s-18 -13.5 -32 -13.5s-25 4.5 -33 13.5s-12 20.833 -12 35.5c0 22 8.5 42.167 25.5 60.5s40.667 32.833 71 43.5s64.166 16 101.499 16c56 0 97.333 -14.833 124 -44.5s39.667 -76.5 39 -140.5l-1 -225
c0 -21.333 -1.33301 -44 -4 -68l71 4v-42h-143c-2 10 -4.33301 29 -7 57c-48.667 -48.667 -101 -73 -157 -73c-48.667 0 -85.834 11 -111.501 33zM276.004 55.5c20.667 9.66699 41.667 24.5 63 44.5c-0.666992 10 -1 27 -1 51l1 94
c-54.667 -2 -103.334 -13.167 -146.001 -33.5s-64 -51.5 -64 -93.5c0 -24.667 7.33301 -43.667 22 -57s33.334 -20 56.001 -20c25.333 0 48.333 4.83301 69 14.5zM286.004 -225.5c-19.333 19 -28.998 43.498 -28.998 73.498c0 40 21.167 76.5 63.5 109.5
s92.166 57.5 149.499 73.5v-26c-38.667 -13.333 -70.334 -31.666 -95.001 -54.999s-37 -50.666 -37 -81.999c0 -20.667 6 -37.334 18 -50.001s26.667 -19 44 -19c21.333 0 43 9.33301 65 28l17 -18c-14 -17.333 -31.667 -32.166 -53 -44.499s-43.333 -18.5 -66 -18.5
c-32 0 -57.667 9.5 -77 28.5z" />
    <glyph glyph-name="Cacute" unicode="&#x106;" horiz-adv-x="699" 
d="M210.5 31c-51.667 31.333 -91.998 74 -120.998 128s-43.5 114 -43.5 180c0 65.333 13.167 126.666 39.5 183.999s65.666 103.833 117.999 139.5s115.5 53.5 189.5 53.5c73.333 0 140.666 -20.333 201.999 -61l-5 54h54v-232h-36c-6.66699 62 -28.5 110.5 -65.5 145.5
s-84.5 52.5 -142.5 52.5c-47.333 0 -90.5 -13.167 -129.5 -39.5s-69.833 -63.833 -92.5 -112.5s-34 -105 -34 -169c0 -61.333 12 -116.166 36 -164.499s56.333 -86 97 -113s85.667 -40.5 135 -40.5c44.667 0 87.667 10 129 30s75.333 48.333 102 85l26 -21
c-38.667 -54 -83 -91.833 -133 -113.5s-100 -32.5 -150 -32.5c-65.333 0 -123.833 15.667 -175.5 47zM332.002 789l126 120c14 12 27 18 39 18c6.66699 0 12.5 -1.5 17.5 -4.5s8.5 -5.83301 10.5 -8.5c4 -5.33301 6 -12.333 6 -21c0 -16 -10.667 -30.667 -32 -44l-145 -89z
" />
    <glyph glyph-name="cacute" unicode="&#x107;" horiz-adv-x="532" 
d="M163.5 15c-37.667 20.667 -67.5 50.332 -89.5 88.999s-33 84.334 -33 137.001c0 46.667 11.167 91.167 33.5 133.5s53.333 76.5 93 102.5s84.5 39 134.5 39c36 0 68 -5.66699 96 -17s49.833 -26.333 65.5 -45s23.5 -39 23.5 -61c0 -15.333 -4.33301 -28 -13 -38
s-20.667 -15 -36 -15c-14.667 0 -25.667 4.83301 -33 14.5s-11 19.834 -11 30.501c0 16.667 5 30 15 40c-7.33301 20.667 -21.5 34.834 -42.5 42.501s-41.833 11.5 -62.5 11.5c-30.667 0 -58.167 -8.33301 -82.5 -25s-43.5 -41 -57.5 -73s-21 -70.333 -21 -115
s7.16699 -84.334 21.5 -119.001s34.5 -61.834 60.5 -81.501s56 -29.5 90 -29.5c30 0 59.5 8.16699 88.5 24.5s51.833 36.833 68.5 61.5l26 -20c-24.667 -38.667 -56.5 -68 -95.5 -88s-77.167 -30 -114.5 -30c-45.333 0 -86.833 10.333 -124.5 31zM212 602.998l83.999 135
c12.667 18 26.334 27 41.001 27c8 0 16 -2.66699 24 -8c8 -8 12 -17.333 12 -28c0 -14 -7 -28.333 -21 -43l-112 -106z" />
    <glyph glyph-name="Ccircumflex" unicode="&#x108;" horiz-adv-x="699" 
d="M210.5 31c-51.667 31.333 -91.998 74 -120.998 128s-43.5 114 -43.5 180c0 65.333 13.167 126.666 39.5 183.999s65.666 103.833 117.999 139.5s115.5 53.5 189.5 53.5c73.333 0 140.666 -20.333 201.999 -61l-5 54h54v-232h-36c-6.66699 62 -28.5 110.5 -65.5 145.5
s-84.5 52.5 -142.5 52.5c-47.333 0 -90.5 -13.167 -129.5 -39.5s-69.833 -63.833 -92.5 -112.5s-34 -105 -34 -169c0 -61.333 12 -116.166 36 -164.499s56.333 -86 97 -113s85.667 -40.5 135 -40.5c44.667 0 87.667 10 129 30s75.333 48.333 102 85l26 -21
c-38.667 -54 -83 -91.833 -133 -113.5s-100 -32.5 -150 -32.5c-65.333 0 -123.833 15.667 -175.5 47zM391.002 844h-2l-170 -87l-20 32l194 142h2l184 -141l-22 -34z" />
    <glyph glyph-name="ccircumflex" unicode="&#x109;" horiz-adv-x="532" 
d="M163.5 15c-37.667 20.667 -67.5 50.332 -89.5 88.999s-33 84.334 -33 137.001c0 46.667 11.167 91.167 33.5 133.5s53.333 76.5 93 102.5s84.5 39 134.5 39c36 0 68 -5.66699 96 -17s49.833 -26.333 65.5 -45s23.5 -39 23.5 -61c0 -15.333 -4.33301 -28 -13 -38
s-20.667 -15 -36 -15c-14.667 0 -25.667 4.83301 -33 14.5s-11 19.834 -11 30.501c0 16.667 5 30 15 40c-7.33301 20.667 -21.5 34.834 -42.5 42.501s-41.833 11.5 -62.5 11.5c-30.667 0 -58.167 -8.33301 -82.5 -25s-43.5 -41 -57.5 -73s-21 -70.333 -21 -115
s7.16699 -84.334 21.5 -119.001s34.5 -61.834 60.5 -81.501s56 -29.5 90 -29.5c30 0 59.5 8.16699 88.5 24.5s51.833 36.833 68.5 61.5l26 -20c-24.667 -38.667 -56.5 -68 -95.5 -88s-77.167 -30 -114.5 -30c-45.333 0 -86.833 10.333 -124.5 31zM293 691.998h-2l-129 -102
l-25 29l159 159h2l149 -163l-27 -32z" />
    <glyph glyph-name="Cdotaccent" unicode="&#x10a;" horiz-adv-x="699" 
d="M210.5 31c-51.667 31.333 -91.998 74 -120.998 128s-43.5 114 -43.5 180c0 65.333 13.167 126.666 39.5 183.999s65.666 103.833 117.999 139.5s115.5 53.5 189.5 53.5c73.333 0 140.666 -20.333 201.999 -61l-5 54h54v-232h-36c-6.66699 62 -28.5 110.5 -65.5 145.5
s-84.5 52.5 -142.5 52.5c-47.333 0 -90.5 -13.167 -129.5 -39.5s-69.833 -63.833 -92.5 -112.5s-34 -105 -34 -169c0 -61.333 12 -116.166 36 -164.499s56.333 -86 97 -113s85.667 -40.5 135 -40.5c44.667 0 87.667 10 129 30s75.333 48.333 102 85l26 -21
c-38.667 -54 -83 -91.833 -133 -113.5s-100 -32.5 -150 -32.5c-65.333 0 -123.833 15.667 -175.5 47zM352.002 826.5c-10.667 11.667 -15.999 25.501 -15.999 41.501s5.5 30 16.5 42s23.5 18 37.5 18c15.333 0 28.166 -5.83301 38.499 -17.5s15.5 -25.834 15.5 -42.501
c0 -16 -5.5 -29.833 -16.5 -41.5s-23.833 -17.5 -38.5 -17.5c-14 0 -26.333 5.83301 -37 17.5z" />
    <glyph glyph-name="cdotaccent" unicode="&#x10b;" horiz-adv-x="532" 
d="M163.5 15c-37.667 20.667 -67.5 50.332 -89.5 88.999s-33 84.334 -33 137.001c0 46.667 11.167 91.167 33.5 133.5s53.333 76.5 93 102.5s84.5 39 134.5 39c36 0 68 -5.66699 96 -17s49.833 -26.333 65.5 -45s23.5 -39 23.5 -61c0 -15.333 -4.33301 -28 -13 -38
s-20.667 -15 -36 -15c-14.667 0 -25.667 4.83301 -33 14.5s-11 19.834 -11 30.501c0 16.667 5 30 15 40c-7.33301 20.667 -21.5 34.834 -42.5 42.501s-41.833 11.5 -62.5 11.5c-30.667 0 -58.167 -8.33301 -82.5 -25s-43.5 -41 -57.5 -73s-21 -70.333 -21 -115
s7.16699 -84.334 21.5 -119.001s34.5 -61.834 60.5 -81.501s56 -29.5 90 -29.5c30 0 59.5 8.16699 88.5 24.5s51.833 36.833 68.5 61.5l26 -20c-24.667 -38.667 -56.5 -68 -95.5 -88s-77.167 -30 -114.5 -30c-45.333 0 -86.833 10.333 -124.5 31zM255 626.498
c-10.667 11.667 -15.999 25.501 -15.999 41.501s5.5 30 16.5 42s23.5 18 37.5 18c15.333 0 28.166 -5.83301 38.499 -17.5s15.5 -25.834 15.5 -42.501c0 -16 -5.5 -29.833 -16.5 -41.5s-23.833 -17.5 -38.5 -17.5c-14 0 -26.333 5.83301 -37 17.5z" />
    <glyph glyph-name="Ccaron" unicode="&#x10c;" horiz-adv-x="699" 
d="M210.5 31c-51.667 31.333 -91.998 74 -120.998 128s-43.5 114 -43.5 180c0 65.333 13.167 126.666 39.5 183.999s65.666 103.833 117.999 139.5s115.5 53.5 189.5 53.5c73.333 0 140.666 -20.333 201.999 -61l-5 54h54v-232h-36c-6.66699 62 -28.5 110.5 -65.5 145.5
s-84.5 52.5 -142.5 52.5c-47.333 0 -90.5 -13.167 -129.5 -39.5s-69.833 -63.833 -92.5 -112.5s-34 -105 -34 -169c0 -61.333 12 -116.166 36 -164.499s56.333 -86 97 -113s85.667 -40.5 135 -40.5c44.667 0 87.667 10 129 30s75.333 48.333 102 85l26 -21
c-38.667 -54 -83 -91.833 -133 -113.5s-100 -32.5 -150 -32.5c-65.333 0 -123.833 15.667 -175.5 47zM199.002 921l22 34l168 -88l170 90l20 -32l-194 -145h-2z" />
    <glyph glyph-name="ccaron" unicode="&#x10d;" horiz-adv-x="532" 
d="M163.5 15c-37.667 20.667 -67.5 50.332 -89.5 88.999s-33 84.334 -33 137.001c0 46.667 11.167 91.167 33.5 133.5s53.333 76.5 93 102.5s84.5 39 134.5 39c36 0 68 -5.66699 96 -17s49.833 -26.333 65.5 -45s23.5 -39 23.5 -61c0 -15.333 -4.33301 -28 -13 -38
s-20.667 -15 -36 -15c-14.667 0 -25.667 4.83301 -33 14.5s-11 19.834 -11 30.501c0 16.667 5 30 15 40c-7.33301 20.667 -21.5 34.834 -42.5 42.501s-41.833 11.5 -62.5 11.5c-30.667 0 -58.167 -8.33301 -82.5 -25s-43.5 -41 -57.5 -73s-21 -70.333 -21 -115
s7.16699 -84.334 21.5 -119.001s34.5 -61.834 60.5 -81.501s56 -29.5 90 -29.5c30 0 59.5 8.16699 88.5 24.5s51.833 36.833 68.5 61.5l26 -20c-24.667 -38.667 -56.5 -68 -95.5 -88s-77.167 -30 -114.5 -30c-45.333 0 -86.833 10.333 -124.5 31zM137 735.998l27 32
l127 -109h2l129 111l25 -29l-159 -168h-2z" />
    <glyph glyph-name="Dcaron" unicode="&#x10e;" horiz-adv-x="745" 
d="M55 33c23.333 0.666992 40 5.99902 50 15.999s15.667 21.833 17 35.5s2 37.5 2 71.5v432c0 28 1 52 3 72l-72 -4v44l236 1c125.333 0.666992 224.666 -28.666 297.999 -87.999s110 -147.333 110 -264c0 -62.667 -14.667 -120.667 -44 -174
s-72.666 -95.833 -129.999 -127.5s-126.333 -47.5 -207 -47.5h-263v33zM464 78.999c43.333 27.333 76.999 65 100.999 113s36 101.667 36 161c0 97.333 -26.667 173.5 -80 228.5s-133.666 82.5 -240.999 82.5c-23.333 0 -40 -4.66699 -50 -14s-15.667 -20.833 -17 -34.5
s-2 -37.5 -2 -71.5v-426c0 -34.667 -1 -60.667 -3 -78c23.333 -1.33301 59 -2 107 -2c56 0 105.667 13.667 149 41zM155.999 920.999l22 34l168 -88l170 90l20 -32l-194 -145h-2z" />
    <glyph glyph-name="dcaron" unicode="&#x10f;" horiz-adv-x="663" 
d="M564 574c24.667 47.333 37 91.668 37 133.001c0 23.333 -3 46 -9 68l69 -13c8 -16.667 12 -31.334 12 -44.001c0 -28 -7.66699 -56.167 -23 -84.5s-35.333 -54.833 -60 -79.5zM147 15.002c-32.667 20.667 -58.335 49.999 -77.002 87.999s-28 82.333 -28 133
c0 53.333 11 101.333 33 144s52.5 76 91.5 100s83.167 36 132.5 36c20.667 0 41.834 -2.83301 63.501 -8.5s39.5 -12.167 53.5 -19.5v137c0 25.333 1 47 3 65l-71 -4v42c39.333 0 67.5 2.33301 84.5 7s30.167 11.334 39.5 20.001h29v-649c0 -21.333 -1.33301 -44 -4 -68
l71 4v-42h-143c-3.33301 18 -5.66602 35.333 -6.99902 52c-19.333 -21.333 -42.833 -38 -70.5 -50s-57.5 -18 -89.5 -18c-41.333 0 -78.333 10.333 -111 31zM359.499 51.501c22.333 12.333 41.168 28.167 56.501 47.5c-0.666992 10.667 -1 29 -1 55l1 288
c-31.333 23.333 -68.333 35 -111 35c-48 0 -86.667 -19.833 -116 -59.5s-44 -92.167 -44 -157.5c0 -68 13 -122.833 39 -164.5s62.667 -62.5 110 -62.5c21.333 0 43.166 6.16699 65.499 18.5z" />
    <glyph glyph-name="Dcroat" unicode="&#x110;" horiz-adv-x="746" 
d="M590 613c73.333 -59.333 110 -147.334 110 -264.001c0 -62.667 -14.667 -120.667 -44 -174s-72.666 -95.833 -129.999 -127.5s-126.333 -47.5 -207 -47.5h-263v33c23.333 0.666992 40 6 50 16s15.667 21.833 17 35.5s2 37.5 2 71.5v179h-106v42h106v211c0 28 1 52 3 72
l-72 -4v44l236 1c125.333 0.666992 224.666 -28.666 297.999 -87.999zM465 78.999c43.333 27.333 76.999 65 100.999 113s36 101.667 36 161c0 97.333 -26.667 173.5 -80 228.5s-133.666 82.5 -240.999 82.5c-23.333 0 -40 -4.66699 -50 -14s-15.667 -20.833 -17 -34.5
s-2 -37.5 -2 -71.5v-167h181v-42h-181v-217c0 -34.667 -1 -60.667 -3 -78c23.333 -1.33301 59 -2 107 -2c56 0 105.667 13.667 149 41z" />
    <glyph glyph-name="dcroat" unicode="&#x111;" horiz-adv-x="598" 
d="M501 106c0 -21.333 -1.33398 -44.001 -4.00098 -68.001l71 4v-42h-143c-3.33301 18 -5.66602 35.333 -6.99902 52c-19.333 -21.333 -42.833 -38 -70.5 -50s-57.5 -18 -89.5 -18c-41.333 0 -78.333 10.333 -111 31s-58.334 50 -77.001 88s-28 82.333 -28 133
c0 53.333 11 101.333 33 144s52.5 76 91.5 100s83.167 36 132.5 36c20.667 0 41.834 -2.83301 63.501 -8.5s39.5 -12.167 53.5 -19.5v96l-161 -1v45h161c0 24 1 44.667 3 62l-71 -4v42c39.333 0 67.5 2.33301 84.5 7s30.167 11.334 39.5 20.001h29v-127h78v-42l-78 -1v-479z
M414.999 153.999l1.00195 288.001c-31.333 23.333 -68.333 35 -111 35c-48 0 -86.667 -19.833 -116 -59.5s-44 -92.167 -44 -157.5c0 -68 13 -122.833 39 -164.5s62.667 -62.5 110 -62.5c21.333 0 43.166 6.16699 65.499 18.5s41.166 28.166 56.499 47.499
c-0.666992 10.667 -1 29 -1 55z" />
    <glyph glyph-name="Emacron" unicode="&#x112;" horiz-adv-x="622" 
d="M55 33c23.333 0.666992 40.001 6 50.001 16s15.667 21.833 17 35.5s2 37.5 2 71.5v432c0 28 1 52 3 72l-72 -4v44h481l5 -175h-33c0 54.667 -11.833 92 -35.5 112s-56.834 29.333 -99.501 28l-86 -2c-24 -0.666992 -41.333 -5.16699 -52 -13.5s-17.334 -20 -20.001 -35
s-4 -38.5 -4 -70.5v-160l188 -1l-7 86h44v-210h-33c0 24.667 -3 43.5 -9 56.5s-15.167 21.667 -27.5 26s-29.5 6.5 -51.5 6.5l-31 -1l-73 -3v-229c0 -34.667 -1 -60.667 -3 -78l191 3c46.667 0.666992 82.334 12.5 107.001 35.5s37 62.833 37 119.5h34l-6 -195h-516v33z
M194.001 900h265v-56l-265 -4v60z" />
    <glyph glyph-name="emacron" unicode="&#x113;" horiz-adv-x="542" 
d="M161.5 16.5c-37 21.667 -66.166 52.668 -87.499 93.001s-32 86.833 -32 139.5c0 46.667 10.667 90.5 32 131.5s51.166 73.833 89.499 98.5s81.833 37 130.5 37c38 0 72.333 -8.33301 103 -25s55 -41.5 73 -74.5s27 -73.5 27 -121.5l-352 -6
c-0.666992 -80 12.5 -142.333 39.5 -187s68.833 -67 125.5 -67c30.667 0 62.167 8 94.5 24s57.166 35.667 74.499 59l24 -20c-25.333 -38.667 -58.166 -67.334 -98.499 -86.001s-79.833 -28 -118.5 -28c-46 0 -87.5 10.833 -124.5 32.5zM403.001 331.001
c0 40 -9 74.333 -27 103s-45 43 -81 43c-82.667 0 -131.667 -48.667 -147 -146h255zM147.001 700.001h265v-56l-265 -4v60z" />
    <glyph glyph-name="Ebreve" unicode="&#x114;" horiz-adv-x="622" 
d="M55 33c23.333 0.666992 40.001 6 50.001 16s15.667 21.833 17 35.5s2 37.5 2 71.5v432c0 28 1 52 3 72l-72 -4v44h481l5 -175h-33c0 54.667 -11.833 92 -35.5 112s-56.834 29.333 -99.501 28l-86 -2c-24 -0.666992 -41.333 -5.16699 -52 -13.5s-17.334 -20 -20.001 -35
s-4 -38.5 -4 -70.5v-160l188 -1l-7 86h44v-210h-33c0 24.667 -3 43.5 -9 56.5s-15.167 21.667 -27.5 26s-29.5 6.5 -51.5 6.5l-31 -1l-73 -3v-229c0 -34.667 -1 -60.667 -3 -78l191 3c46.667 0.666992 82.334 12.5 107.001 35.5s37 62.833 37 119.5h34l-6 -195h-516v33z
M242.001 835.5c-26 17.667 -46.333 43.167 -61 76.5l26 12c11.333 -14.667 28 -27.334 50 -38.001s45.333 -16 70 -16s48 5.33301 70 16s38.667 23.334 50 38.001l27 -12c-15.333 -33.333 -36 -58.833 -62 -76.5s-54.333 -26.5 -85 -26.5s-59 8.83301 -85 26.5z" />
    <glyph glyph-name="ebreve" unicode="&#x115;" horiz-adv-x="542" 
d="M161.5 16.5c-37 21.667 -66.166 52.668 -87.499 93.001s-32 86.833 -32 139.5c0 46.667 10.667 90.5 32 131.5s51.166 73.833 89.499 98.5s81.833 37 130.5 37c38 0 72.333 -8.33301 103 -25s55 -41.5 73 -74.5s27 -73.5 27 -121.5l-352 -6
c-0.666992 -80 12.5 -142.333 39.5 -187s68.833 -67 125.5 -67c30.667 0 62.167 8 94.5 24s57.166 35.667 74.499 59l24 -20c-25.333 -38.667 -58.166 -67.334 -98.499 -86.001s-79.833 -28 -118.5 -28c-46 0 -87.5 10.833 -124.5 32.5zM403.001 331.001
c0 40 -9 74.333 -27 103s-45 43 -81 43c-82.667 0 -131.667 -48.667 -147 -146h255zM198.501 634.001c-25 20 -43.5 48.667 -55.5 86l29 15c10.667 -19.333 26 -35.833 46 -49.5s41 -20.5 63 -20.5s43 7 63 21s35 31 45 51l27 -12c-29.333 -80.667 -75.333 -121 -138 -121
c-28 0 -54.5 10 -79.5 30z" />
    <glyph glyph-name="Edotaccent" unicode="&#x116;" horiz-adv-x="622" 
d="M55 33c23.333 0.666992 40.001 6 50.001 16s15.667 21.833 17 35.5s2 37.5 2 71.5v432c0 28 1 52 3 72l-72 -4v44h481l5 -175h-33c0 54.667 -11.833 92 -35.5 112s-56.834 29.333 -99.501 28l-86 -2c-24 -0.666992 -41.333 -5.16699 -52 -13.5s-17.334 -20 -20.001 -35
s-4 -38.5 -4 -70.5v-160l188 -1l-7 86h44v-210h-33c0 24.667 -3 43.5 -9 56.5s-15.167 21.667 -27.5 26s-29.5 6.5 -51.5 6.5l-31 -1l-73 -3v-229c0 -34.667 -1 -60.667 -3 -78l191 3c46.667 0.666992 82.334 12.5 107.001 35.5s37 62.833 37 119.5h34l-6 -195h-516v33z
M290.001 826.5c-10.667 11.667 -15.999 25.501 -15.999 41.501s5.5 30 16.5 42s23.5 18 37.5 18c15.333 0 28.166 -5.83301 38.499 -17.5s15.5 -25.834 15.5 -42.501c0 -16 -5.5 -29.833 -16.5 -41.5s-23.833 -17.5 -38.5 -17.5c-14 0 -26.333 5.83301 -37 17.5z" />
    <glyph glyph-name="edotaccent" unicode="&#x117;" horiz-adv-x="542" 
d="M161.5 16.5c-37 21.667 -66.166 52.668 -87.499 93.001s-32 86.833 -32 139.5c0 46.667 10.667 90.5 32 131.5s51.166 73.833 89.499 98.5s81.833 37 130.5 37c38 0 72.333 -8.33301 103 -25s55 -41.5 73 -74.5s27 -73.5 27 -121.5l-352 -6
c-0.666992 -80 12.5 -142.333 39.5 -187s68.833 -67 125.5 -67c30.667 0 62.167 8 94.5 24s57.166 35.667 74.499 59l24 -20c-25.333 -38.667 -58.166 -67.334 -98.499 -86.001s-79.833 -28 -118.5 -28c-46 0 -87.5 10.833 -124.5 32.5zM403.001 331.001
c0 40 -9 74.333 -27 103s-45 43 -81 43c-82.667 0 -131.667 -48.667 -147 -146h255zM243.001 626.501c-10.667 11.667 -15.999 25.501 -15.999 41.501s5.5 30 16.5 42s23.5 18 37.5 18c15.333 0 28.166 -5.83301 38.499 -17.5s15.5 -25.834 15.5 -42.501
c0 -16 -5.5 -29.833 -16.5 -41.5s-23.833 -17.5 -38.5 -17.5c-14 0 -26.333 5.83301 -37 17.5z" />
    <glyph glyph-name="Eogonek" unicode="&#x118;" horiz-adv-x="622" 
d="M55 33c23.333 0.666992 40.001 6 50.001 16s15.667 21.833 17 35.5s2 37.5 2 71.5v432c0 28 1 52 3 72l-72 -4v44h481l5 -175h-33c0 54.667 -11.833 92 -35.5 112s-56.834 29.333 -99.501 28l-86 -2c-24 -0.666992 -41.333 -5.16699 -52 -13.5s-17.334 -20 -20.001 -35
s-4 -38.5 -4 -70.5v-160l188 -1l-7 86h44v-210h-33c0 24.667 -3 43.5 -9 56.5s-15.167 21.667 -27.5 26s-29.5 6.5 -51.5 6.5l-31 -1l-73 -3v-229c0 -34.667 -1 -60.667 -3 -78l191 3c46.667 0.666992 82.334 12.5 107.001 35.5s37 62.833 37 119.5h34l-6 -195h-516v33z
M377.001 -225.5c-19.333 19 -28.998 43.498 -28.998 73.498c0 40 21.167 76.5 63.5 109.5s92.166 57.5 149.499 73.5v-26c-38.667 -13.333 -70.334 -31.666 -95.001 -54.999s-37 -50.666 -37 -81.999c0 -20.667 6 -37.334 18 -50.001s26.667 -19 44 -19
c21.333 0 43 9.33301 65 28l17 -18c-14 -17.333 -31.667 -32.166 -53 -44.499s-43.333 -18.5 -66 -18.5c-32 0 -57.667 9.5 -77 28.5z" />
    <glyph glyph-name="eogonek" unicode="&#x119;" horiz-adv-x="542" 
d="M161.5 16.5c-37 21.667 -66.166 52.668 -87.499 93.001s-32 86.833 -32 139.5c0 46.667 10.667 90.5 32 131.5s51.166 73.833 89.499 98.5s81.833 37 130.5 37c38 0 72.333 -8.33301 103 -25s55 -41.5 73 -74.5s27 -73.5 27 -121.5l-352 -6
c-0.666992 -80 12.5 -142.333 39.5 -187s68.833 -67 125.5 -67c30.667 0 62.167 8 94.5 24s57.166 35.667 74.499 59l24 -20c-25.333 -38.667 -58.166 -67.334 -98.499 -86.001s-79.833 -28 -118.5 -28c-46 0 -87.5 10.833 -124.5 32.5zM403.001 331.001
c0 40 -9 74.333 -27 103s-45 43 -81 43c-82.667 0 -131.667 -48.667 -147 -146h255zM206.001 -225.499c-19.333 19 -28.998 43.498 -28.998 73.498c0 40 21.167 76.5 63.5 109.5s92.166 57.5 149.499 73.5v-26c-38.667 -13.333 -70.334 -31.666 -95.001 -54.999
s-37 -50.666 -37 -81.999c0 -20.667 6 -37.334 18 -50.001s26.667 -19 44 -19c21.333 0 43 9.33301 65 28l17 -18c-14 -17.333 -31.667 -32.166 -53 -44.499s-43.333 -18.5 -66 -18.5c-32 0 -57.667 9.5 -77 28.5z" />
    <glyph glyph-name="Ecaron" unicode="&#x11a;" horiz-adv-x="622" 
d="M55 33c23.333 0.666992 40.001 6 50.001 16s15.667 21.833 17 35.5s2 37.5 2 71.5v432c0 28 1 52 3 72l-72 -4v44h481l5 -175h-33c0 54.667 -11.833 92 -35.5 112s-56.834 29.333 -99.501 28l-86 -2c-24 -0.666992 -41.333 -5.16699 -52 -13.5s-17.334 -20 -20.001 -35
s-4 -38.5 -4 -70.5v-160l188 -1l-7 86h44v-210h-33c0 24.667 -3 43.5 -9 56.5s-15.167 21.667 -27.5 26s-29.5 6.5 -51.5 6.5l-31 -1l-73 -3v-229c0 -34.667 -1 -60.667 -3 -78l191 3c46.667 0.666992 82.334 12.5 107.001 35.5s37 62.833 37 119.5h34l-6 -195h-516v33z
M137.001 921l22 34l168 -88l170 90l20 -32l-194 -145h-2z" />
    <glyph glyph-name="ecaron" unicode="&#x11b;" horiz-adv-x="542" 
d="M161.5 16.5c-37 21.667 -66.166 52.668 -87.499 93.001s-32 86.833 -32 139.5c0 46.667 10.667 90.5 32 131.5s51.166 73.833 89.499 98.5s81.833 37 130.5 37c38 0 72.333 -8.33301 103 -25s55 -41.5 73 -74.5s27 -73.5 27 -121.5l-352 -6
c-0.666992 -80 12.5 -142.333 39.5 -187s68.833 -67 125.5 -67c30.667 0 62.167 8 94.5 24s57.166 35.667 74.499 59l24 -20c-25.333 -38.667 -58.166 -67.334 -98.499 -86.001s-79.833 -28 -118.5 -28c-46 0 -87.5 10.833 -124.5 32.5zM403.001 331.001
c0 40 -9 74.333 -27 103s-45 43 -81 43c-82.667 0 -131.667 -48.667 -147 -146h255zM125.001 736.001l27 32l127 -109h2l129 111l25 -29l-159 -168h-2z" />
    <glyph glyph-name="Gcircumflex" unicode="&#x11c;" horiz-adv-x="761" 
d="M210 26.5c-51.333 28.333 -91.333 68.832 -120 121.499s-43 115 -43 187c0 65.333 13.167 127 39.5 185s65.833 105.167 118.5 141.5s116 54.5 190 54.5c36 0 72.5 -4.83301 109.5 -14.5s69.5 -23.167 97.5 -40.5l-4 48h55v-229h-36
c-4.66699 61.333 -26.834 109.333 -66.501 144s-89.167 52 -148.5 52c-47.333 0 -90.5 -13.667 -129.5 -41s-70 -65.166 -93 -113.499s-34.5 -102.833 -34.5 -163.5c0 -62.667 11.333 -118.667 34 -168s54.334 -88 95.001 -116s87 -42 139 -42
c28.667 0 58.167 4.16699 88.5 12.5s57.833 20.833 82.5 37.5v219l-70 -4v44h226v-33c-32 0 -52 -12.167 -60 -36.5s-12 -51.833 -12 -82.5v-153h-27c-28 0 -64 -8.66699 -108 -26c-20 -8 -43.667 -14.333 -71 -19s-52.333 -7 -75 -7c-66.667 0 -125.667 14.167 -177 42.5z
M398 843.999h-2l-170 -87l-20 32l194 142h2l184 -141l-22 -34z" />
    <glyph glyph-name="gcircumflex" unicode="&#x11d;" horiz-adv-x="553" 
d="M143 -252c-37.333 12.667 -64.6641 29.3301 -81.9971 49.9971s-26 42.667 -26 66c0 28 9.33301 52.5 28 73.5s40 36.5 64 46.5c-22.667 7.33301 -39.834 17.333 -51.501 30s-17.5 29 -17.5 49c0 24 9.5 46 28.5 66s42.833 32.333 71.5 37
c-31.333 14.667 -56 35.167 -74 61.5s-27 56.5 -27 90.5c0 38.667 10.167 73 30.5 103s46.666 53.333 78.999 70s66.166 25 101.499 25c45.333 0 87.666 -12.333 126.999 -37c10 28.667 26.167 52 48.5 70s46.5 27 72.5 27c16.667 0 29.667 -4.5 39 -13.5
s14 -21.167 14 -36.5c0 -9.33301 -3.5 -18.5 -10.5 -27.5s-17.167 -13.5 -30.5 -13.5c-11.333 0 -21 3.33301 -29 10s-13 15 -15 25c-16 -2 -28.667 -9.16699 -38 -21.5s-16 -27.166 -20 -44.499c16.667 -15.333 29.667 -33.333 39 -54s14 -42.334 14 -65.001
c0 -36.667 -9.66699 -69.667 -29 -99s-45.166 -52.333 -77.499 -69s-67.166 -25 -104.499 -25c-8.66699 0 -19.667 0.666992 -33 2c-10 2 -21.333 3 -34 3c-22 0 -40.5 -4.83301 -55.5 -14.5s-22.5 -21.5 -22.5 -35.5c0 -19.333 12.167 -32.166 36.5 -38.499
s65.833 -10.5 124.5 -12.5c82 -4 143.5 -17.167 184.5 -39.5s61.5 -59.166 61.5 -110.499c0 -34 -11.833 -63.667 -35.5 -89s-54.334 -44.666 -92.001 -57.999s-76.834 -20 -117.501 -20c-57.333 0 -104.666 6.33301 -141.999 19zM353.502 215.996
c19 25.333 28.5 58.333 28.5 99c0 46.667 -10.167 86 -30.5 118s-48.833 48 -85.5 48c-35.333 0 -63 -13.167 -83 -39.5s-30 -60.166 -30 -101.499c0 -48.667 10.5 -87.834 31.5 -117.501s49.833 -44.5 86.5 -44.5c36 0 63.5 12.667 82.5 38zM380.502 -217.504
c27.667 9.66699 48.8311 22.668 63.498 39.001s22 34.166 22 53.499c0 34 -16.167 57.333 -48.5 70s-80.166 20 -143.499 22c-42 1.33301 -76.333 4 -103 8c-18 -12 -32 -26.667 -42 -44s-15 -35.666 -15 -54.999c0 -32.667 15.5 -58.834 46.5 -78.501
s72.167 -29.5 123.5 -29.5c36.667 0 68.834 4.83301 96.501 14.5zM264.999 691.997h-2l-129 -102l-25 29l159 159h2l149 -163l-27 -32z" />
    <glyph glyph-name="Gbreve" unicode="&#x11e;" horiz-adv-x="761" 
d="M210 26.5c-51.333 28.333 -91.333 68.832 -120 121.499s-43 115 -43 187c0 65.333 13.167 127 39.5 185s65.833 105.167 118.5 141.5s116 54.5 190 54.5c36 0 72.5 -4.83301 109.5 -14.5s69.5 -23.167 97.5 -40.5l-4 48h55v-229h-36
c-4.66699 61.333 -26.834 109.333 -66.501 144s-89.167 52 -148.5 52c-47.333 0 -90.5 -13.667 -129.5 -41s-70 -65.166 -93 -113.499s-34.5 -102.833 -34.5 -163.5c0 -62.667 11.333 -118.667 34 -168s54.334 -88 95.001 -116s87 -42 139 -42
c28.667 0 58.167 4.16699 88.5 12.5s57.833 20.833 82.5 37.5v219l-70 -4v44h226v-33c-32 0 -52 -12.167 -60 -36.5s-12 -51.833 -12 -82.5v-153h-27c-28 0 -64 -8.66699 -108 -26c-20 -8 -43.667 -14.333 -71 -19s-52.333 -7 -75 -7c-66.667 0 -125.667 14.167 -177 42.5z
M311 835.499c-26 17.667 -46.333 43.167 -61 76.5l26 12c11.333 -14.667 28 -27.334 50 -38.001s45.333 -16 70 -16s48 5.33301 70 16s38.667 23.334 50 38.001l27 -12c-15.333 -33.333 -36 -58.833 -62 -76.5s-54.333 -26.5 -85 -26.5s-59 8.83301 -85 26.5z" />
    <glyph glyph-name="gbreve" unicode="&#x11f;" horiz-adv-x="553" 
d="M143 -252c-37.333 12.667 -64.6641 29.3301 -81.9971 49.9971s-26 42.667 -26 66c0 28 9.33301 52.5 28 73.5s40 36.5 64 46.5c-22.667 7.33301 -39.834 17.333 -51.501 30s-17.5 29 -17.5 49c0 24 9.5 46 28.5 66s42.833 32.333 71.5 37
c-31.333 14.667 -56 35.167 -74 61.5s-27 56.5 -27 90.5c0 38.667 10.167 73 30.5 103s46.666 53.333 78.999 70s66.166 25 101.499 25c45.333 0 87.666 -12.333 126.999 -37c10 28.667 26.167 52 48.5 70s46.5 27 72.5 27c16.667 0 29.667 -4.5 39 -13.5
s14 -21.167 14 -36.5c0 -9.33301 -3.5 -18.5 -10.5 -27.5s-17.167 -13.5 -30.5 -13.5c-11.333 0 -21 3.33301 -29 10s-13 15 -15 25c-16 -2 -28.667 -9.16699 -38 -21.5s-16 -27.166 -20 -44.499c16.667 -15.333 29.667 -33.333 39 -54s14 -42.334 14 -65.001
c0 -36.667 -9.66699 -69.667 -29 -99s-45.166 -52.333 -77.499 -69s-67.166 -25 -104.499 -25c-8.66699 0 -19.667 0.666992 -33 2c-10 2 -21.333 3 -34 3c-22 0 -40.5 -4.83301 -55.5 -14.5s-22.5 -21.5 -22.5 -35.5c0 -19.333 12.167 -32.166 36.5 -38.499
s65.833 -10.5 124.5 -12.5c82 -4 143.5 -17.167 184.5 -39.5s61.5 -59.166 61.5 -110.499c0 -34 -11.833 -63.667 -35.5 -89s-54.334 -44.666 -92.001 -57.999s-76.834 -20 -117.501 -20c-57.333 0 -104.666 6.33301 -141.999 19zM353.502 215.996
c19 25.333 28.5 58.333 28.5 99c0 46.667 -10.167 86 -30.5 118s-48.833 48 -85.5 48c-35.333 0 -63 -13.167 -83 -39.5s-30 -60.166 -30 -101.499c0 -48.667 10.5 -87.834 31.5 -117.501s49.833 -44.5 86.5 -44.5c36 0 63.5 12.667 82.5 38zM380.502 -217.504
c27.667 9.66699 48.8311 22.668 63.498 39.001s22 34.166 22 53.499c0 34 -16.167 57.333 -48.5 70s-80.166 20 -143.499 22c-42 1.33301 -76.333 4 -103 8c-18 -12 -32 -26.667 -42 -44s-15 -35.666 -15 -54.999c0 -32.667 15.5 -58.834 46.5 -78.501
s72.167 -29.5 123.5 -29.5c36.667 0 68.834 4.83301 96.501 14.5zM182.499 633.997c-25 20 -43.5 48.667 -55.5 86l29 15c10.667 -19.333 26 -35.833 46 -49.5s41 -20.5 63 -20.5s43 7 63 21s35 31 45 51l27 -12c-29.333 -80.667 -75.333 -121 -138 -121
c-28 0 -54.5 10 -79.5 30z" />
    <glyph glyph-name="Gcommaaccent" unicode="&#x122;" horiz-adv-x="761" 
d="M210 26.5c-51.333 28.333 -91.333 68.832 -120 121.499s-43 115 -43 187c0 65.333 13.167 127 39.5 185s65.833 105.167 118.5 141.5s116 54.5 190 54.5c36 0 72.5 -4.83301 109.5 -14.5s69.5 -23.167 97.5 -40.5l-4 48h55v-229h-36
c-4.66699 61.333 -26.834 109.333 -66.501 144s-89.167 52 -148.5 52c-47.333 0 -90.5 -13.667 -129.5 -41s-70 -65.166 -93 -113.499s-34.5 -102.833 -34.5 -163.5c0 -62.667 11.333 -118.667 34 -168s54.334 -88 95.001 -116s87 -42 139 -42
c28.667 0 58.167 4.16699 88.5 12.5s57.833 20.833 82.5 37.5v219l-70 -4v44h226v-33c-32 0 -52 -12.167 -60 -36.5s-12 -51.833 -12 -82.5v-153h-27c-28 0 -64 -8.66699 -108 -26c-20 -8 -43.667 -14.333 -71 -19s-52.333 -7 -75 -7c-66.667 0 -125.667 14.167 -177 42.5z
M364 -240.001c22.667 42 34 79.333 34 112c0 22 -4 44.667 -12 68l69 20c10.667 -20.667 16 -42 16 -64c0 -49.333 -27 -101 -81 -155z" />
    <glyph glyph-name="gcommaaccent" unicode="&#x123;" horiz-adv-x="553" 
d="M143 -252c-37.333 12.667 -64.6641 29.3301 -81.9971 49.9971s-26 42.667 -26 66c0 28 9.33301 52.5 28 73.5s40 36.5 64 46.5c-22.667 7.33301 -39.834 17.333 -51.501 30s-17.5 29 -17.5 49c0 24 9.5 46 28.5 66s42.833 32.333 71.5 37
c-31.333 14.667 -56 35.167 -74 61.5s-27 56.5 -27 90.5c0 38.667 10.167 73 30.5 103s46.666 53.333 78.999 70s66.166 25 101.499 25c45.333 0 87.666 -12.333 126.999 -37c10 28.667 26.167 52 48.5 70s46.5 27 72.5 27c16.667 0 29.667 -4.5 39 -13.5
s14 -21.167 14 -36.5c0 -9.33301 -3.5 -18.5 -10.5 -27.5s-17.167 -13.5 -30.5 -13.5c-11.333 0 -21 3.33301 -29 10s-13 15 -15 25c-16 -2 -28.667 -9.16699 -38 -21.5s-16 -27.166 -20 -44.499c16.667 -15.333 29.667 -33.333 39 -54s14 -42.334 14 -65.001
c0 -36.667 -9.66699 -69.667 -29 -99s-45.166 -52.333 -77.499 -69s-67.166 -25 -104.499 -25c-8.66699 0 -19.667 0.666992 -33 2c-10 2 -21.333 3 -34 3c-22 0 -40.5 -4.83301 -55.5 -14.5s-22.5 -21.5 -22.5 -35.5c0 -19.333 12.167 -32.166 36.5 -38.499
s65.833 -10.5 124.5 -12.5c82 -4 143.5 -17.167 184.5 -39.5s61.5 -59.166 61.5 -110.499c0 -34 -11.833 -63.667 -35.5 -89s-54.334 -44.666 -92.001 -57.999s-76.834 -20 -117.501 -20c-57.333 0 -104.666 6.33301 -141.999 19zM353.502 215.996
c19 25.333 28.5 58.333 28.5 99c0 46.667 -10.167 86 -30.5 118s-48.833 48 -85.5 48c-35.333 0 -63 -13.167 -83 -39.5s-30 -60.166 -30 -101.499c0 -48.667 10.5 -87.834 31.5 -117.501s49.833 -44.5 86.5 -44.5c36 0 63.5 12.667 82.5 38zM380.502 -217.504
c27.667 9.66699 48.8311 22.668 63.498 39.001s22 34.166 22 53.499c0 34 -16.167 57.333 -48.5 70s-80.166 20 -143.499 22c-42 1.33301 -76.333 4 -103 8c-18 -12 -32 -26.667 -42 -44s-15 -35.666 -15 -54.999c0 -32.667 15.5 -58.834 46.5 -78.501
s72.167 -29.5 123.5 -29.5c36.667 0 68.834 4.83301 96.501 14.5zM318.999 766.997c-22.667 -42 -34 -79.333 -34 -112c0 -22 4 -44.667 12 -68l-69 -20c-10.667 20.667 -16 42 -16 64c0 49.333 27 101 81 155z" />
    <glyph glyph-name="Hcircumflex" unicode="&#x124;" horiz-adv-x="780" 
d="M55 33c23.333 0.666992 40 5.99805 50 15.998s15.667 21.833 17 35.5s2 37.5 2 71.5v432c0 28 1 52 3 72l-72 -4v44h225v-33c-23.333 -0.666992 -40 -6 -50 -16s-15.667 -21.833 -17 -35.5s-2 -37.5 -2 -71.5v-166h358v210c0 28 1 52 3 72l-72 -4v44h225v-33
c-23.333 -0.666992 -40 -6 -50 -16s-15.667 -21.833 -17 -35.5s-2 -37.5 -2 -71.5v-425c0 -35.333 -1 -61.666 -3 -78.999l72 4v-44h-225v33c23.333 0.666992 40 6 50 16s15.667 21.833 17 35.5s2 37.5 2 71.5v182l-358 -4v-215c0 -35.333 -1 -61.666 -3 -78.999l72 4v-44
h-225v33zM392 843.998h-2l-170 -87l-20 32l194 142h2l184 -141l-22 -34z" />
    <glyph glyph-name="hcircumflex" unicode="&#x125;" horiz-adv-x="599" 
d="M34 30c19.333 0 33.335 4.83496 42.002 14.502s13.834 22.167 15.501 37.5s2.5 38.666 2.5 69.999v473c0 25.333 1 47 3 65l-71 -4v42c40 0 68.5 2.33301 85.5 7s30.167 11.334 39.5 20.001h29v-305c23.333 19.333 49.666 35.166 78.999 47.499s57.666 18.5 84.999 18.5
c57.333 0 99 -18 125 -54s39.333 -92.667 40 -170l1 -186c0 -30 -1.33301 -52.667 -4 -68l63 3v-41h-204v30c19.333 0 33.166 4.83301 41.499 14.5s13.333 22 15 37s2.5 38.5 2.5 70.5v140c0 57.333 -9 100.166 -27 128.499s-46.333 42.5 -85 42.5
c-24.667 0 -49.167 -5.83301 -73.5 -17.5s-43.833 -26.5 -58.5 -44.5v-295c0 -26 -1.66699 -48.667 -5 -68l63 3v-41h-204v30zM150.002 895.002h-2l-129 -102l-25 29l159 159h2l149 -163l-27 -32z" />
    <glyph glyph-name="Hbar" unicode="&#x126;" horiz-adv-x="780" 
d="M656 119c0 -35.333 -1 -61.666 -3 -78.999l72 4v-44h-225v33c23.333 0.666992 40 6 50 16s15.667 21.833 17 35.5s2 37.5 2 71.5v182l-358 -4v-215c0 -35.333 -1 -61.666 -3 -78.999l72 4v-44h-225v33c23.333 0.666992 40 6 50 16s15.667 21.833 17 35.5s2 37.5 2 71.5
v359h-87v43h87v30c0 28 1 52 3 72l-72 -4v44h225v-33c-22 -0.666992 -38 -5.5 -48 -14.5s-16 -20.333 -18 -34s-3 -33.834 -3 -60.501h358v30c0 28 1 52 3 72l-72 -4v44h225v-33c-22 -0.666992 -38 -5.5 -48 -14.5s-16 -20.333 -18 -34s-3 -33.834 -3 -60.501h86v-39h-86
v-400zM569 378v140l-358 -2v-138h358z" />
    <glyph glyph-name="hbar" unicode="&#x127;" horiz-adv-x="599" 
d="M569 41l0.00195312 -40.998h-204v30c19.333 0 33.166 4.83301 41.499 14.5s13.333 22 15 37s2.5 38.5 2.5 70.5v140c0 57.333 -9 100.166 -27 128.499s-46.333 42.5 -85 42.5c-24.667 0 -49.167 -5.83301 -73.5 -17.5s-43.833 -26.5 -58.5 -44.5v-295
c0 -26 -1.66699 -48.667 -5 -68l63 3v-41h-204v30c19.333 0 33.333 4.83301 42 14.5s13.834 22.167 15.501 37.5s2.5 38.666 2.5 69.999v424l-83 -1v43h83v7c0 25.333 1 47 3 65l-71 -4v42c40 0 68.5 2.33301 85.5 7s30.167 11.334 39.5 20.001h29v-137h176v-39l-176 -2
v-127c23.333 19.333 49.666 35.166 78.999 47.499s57.666 18.5 84.999 18.5c57.333 0 99 -18 125 -54s39.333 -92.667 40 -170l1 -186c0 -30 -1.33301 -52.667 -4 -68z" />
    <glyph glyph-name="Itilde" unicode="&#x128;" horiz-adv-x="335" 
d="M55 33c23.333 0.666992 40 5.99902 50 15.999s15.667 21.833 17 35.5s2 37.5 2 71.5v432c0 28 1 52 3 72l-72 -4v44h225v-33c-23.333 -0.666992 -40 -6 -50 -16s-15.667 -21.833 -17 -35.5s-2 -37.5 -2 -71.5v-425c0 -35.333 -1 -61.666 -3 -78.999l72 4v-44h-225v33z
M196 819.999c-12 5.33301 -26.002 13.3311 -42.002 23.998c-10.667 7.33301 -19.5 12.833 -26.5 16.5s-14.167 5.5 -21.5 5.5c-13.333 0 -26.666 -3.5 -39.999 -10.5s-24.333 -17.5 -33 -31.5l-30 17c8.66699 24 23.5 44.333 44.5 61s41.167 25 60.5 25
c14.667 0 27.5 -2.66699 38.5 -8s23.5 -12.666 37.5 -21.999c10.667 -8 20 -13.833 28 -17.5s16.333 -5.5 25 -5.5c14.667 0 28.5 4.33301 41.5 13s23.5 20.334 31.5 35.001l29 -15c-10 -30.667 -24.667 -54.167 -44 -70.5s-38.666 -24.5 -57.999 -24.5
c-15.333 0 -29 2.66699 -41 8z" />
    <glyph glyph-name="itilde" unicode="&#x129;" horiz-adv-x="281" 
d="M44 30c19.333 0 33.167 4.83203 41.5 14.499s13.333 22 15 37s2.5 38.5 2.5 70.5v228c0 19.333 1.33301 41 4 65l-71 -4v42c39.333 0 67.5 2.33301 84.5 7s30.167 11.334 39.5 20.001h29v-404c0 -30 -1.33301 -52.667 -4 -68l63 3v-41h-204v30zM166.001 619.999
c-12 5.33301 -26.002 13.3311 -42.002 23.998c-10.667 7.33301 -19.5 12.833 -26.5 16.5s-14.167 5.5 -21.5 5.5c-13.333 0 -26.666 -3.5 -39.999 -10.5s-24.333 -17.5 -33 -31.5l-30 17c8.66699 24 23.5 44.333 44.5 61s41.167 25 60.5 25c14.667 0 27.5 -2.66699 38.5 -8
s23.5 -12.666 37.5 -21.999c10.667 -8 20 -13.833 28 -17.5s16.333 -5.5 25 -5.5c14.667 0 28.5 4.33301 41.5 13s23.5 20.334 31.5 35.001l29 -15c-10 -30.667 -24.667 -54.167 -44 -70.5s-38.666 -24.5 -57.999 -24.5c-15.333 0 -29 2.66699 -41 8z" />
    <glyph glyph-name="Imacron" unicode="&#x12a;" horiz-adv-x="335" 
d="M55 33c23.333 0.666992 40 5.99902 50 15.999s15.667 21.833 17 35.5s2 37.5 2 71.5v432c0 28 1 52 3 72l-72 -4v44h225v-33c-23.333 -0.666992 -40 -6 -50 -16s-15.667 -21.833 -17 -35.5s-2 -37.5 -2 -71.5v-425c0 -35.333 -1 -61.666 -3 -78.999l72 4v-44h-225v33z
M38 899.999h265v-56l-265 -4v60z" />
    <glyph glyph-name="imacron" unicode="&#x12b;" horiz-adv-x="281" 
d="M44 30c19.333 0 33.167 4.83203 41.5 14.499s13.333 22 15 37s2.5 38.5 2.5 70.5v228c0 19.333 1.33301 41 4 65l-71 -4v42c39.333 0 67.5 2.33301 84.5 7s30.167 11.334 39.5 20.001h29v-404c0 -30 -1.33301 -52.667 -4 -68l63 3v-41h-204v30zM8.00098 699.999h265v-56
l-265 -4v60z" />
    <glyph glyph-name="Ibreve" unicode="&#x12c;" horiz-adv-x="335" 
d="M55 33c23.333 0.666992 40 5.99902 50 15.999s15.667 21.833 17 35.5s2 37.5 2 71.5v432c0 28 1 52 3 72l-72 -4v44h225v-33c-23.333 -0.666992 -40 -6 -50 -16s-15.667 -21.833 -17 -35.5s-2 -37.5 -2 -71.5v-425c0 -35.333 -1 -61.666 -3 -78.999l72 4v-44h-225v33z
M86 835.499c-26 17.667 -46.333 43.167 -61 76.5l26 12c11.333 -14.667 28 -27.334 50 -38.001s45.333 -16 70 -16s48 5.33301 70 16s38.667 23.334 50 38.001l27 -12c-15.333 -33.333 -36 -58.833 -62 -76.5s-54.333 -26.5 -85 -26.5s-59 8.83301 -85 26.5z" />
    <glyph glyph-name="ibreve" unicode="&#x12d;" horiz-adv-x="281" 
d="M44 30c19.333 0 33.167 4.83203 41.5 14.499s13.333 22 15 37s2.5 38.5 2.5 70.5v228c0 19.333 1.33301 41 4 65l-71 -4v42c39.333 0 67.5 2.33301 84.5 7s30.167 11.334 39.5 20.001h29v-404c0 -30 -1.33301 -52.667 -4 -68l63 3v-41h-204v30zM59.501 633.999
c-25 20 -43.5 48.667 -55.5 86l29 15c10.667 -19.333 26 -35.833 46 -49.5s41 -20.5 63 -20.5s43 7 63 21s35 31 45 51l27 -12c-29.333 -80.667 -75.333 -121 -138 -121c-28 0 -54.5 10 -79.5 30z" />
    <glyph glyph-name="Iogonek" unicode="&#x12e;" horiz-adv-x="335" 
d="M55 33c23.333 0.666992 40 5.99902 50 15.999s15.667 21.833 17 35.5s2 37.5 2 71.5v432c0 28 1 52 3 72l-72 -4v44h225v-33c-23.333 -0.666992 -40 -6 -50 -16s-15.667 -21.833 -17 -35.5s-2 -37.5 -2 -71.5v-425c0 -35.333 -1 -61.666 -3 -78.999l72 4v-44h-225v33z
M91 -230.501c-19.333 19 -28.998 43.498 -28.998 73.498c0 40 21.167 76.5 63.5 109.5s92.166 57.5 149.499 73.5v-26c-38.667 -13.333 -70.334 -31.666 -95.001 -54.999s-37 -50.666 -37 -81.999c0 -20.667 6 -37.334 18 -50.001s26.667 -19 44 -19
c21.333 0 43 9.33301 65 28l17 -18c-14 -17.333 -31.667 -32.166 -53 -44.499s-43.333 -18.5 -66 -18.5c-32 0 -57.667 9.5 -77 28.5z" />
    <glyph glyph-name="iogonek" unicode="&#x12f;" horiz-adv-x="281" 
d="M64 -230.5c-19.333 19 -28.998 43.498 -28.998 73.498c0 40 21.167 76.5 63.5 109.5s92.166 57.5 149.499 73.5v-26c-38.667 -13.333 -70.334 -31.666 -95.001 -54.999s-37 -50.666 -37 -81.999c0 -20.667 6 -37.334 18 -50.001s26.667 -19 44 -19
c21.333 0 43 9.33301 65 28l17 -18c-14 -17.333 -31.667 -32.166 -53 -44.499s-43.333 -18.5 -66 -18.5c-32 0 -57.667 9.5 -77 28.5zM106.002 626.498c-10.667 11.667 -15.999 25.501 -15.999 41.501s5.5 30 16.5 42s23.5 18 37.5 18
c15.333 0 28.166 -5.83301 38.499 -17.5s15.5 -25.834 15.5 -42.501c0 -16 -5.5 -29.833 -16.5 -41.5s-23.833 -17.5 -38.5 -17.5c-14 0 -26.333 5.83301 -37 17.5zM44.0029 29.999c19.333 0 33.167 4.83203 41.5 14.499s13.333 22 15 37s2.5 38.5 2.5 70.5v228
c0 19.333 1.33301 41 4 65l-71 -4v42c39.333 0 67.5 2.33301 84.5 7s30.167 11.334 39.5 20.001h29v-404c0 -30 -1.33301 -52.667 -4 -68l63 3v-41h-204v30z" />
    <glyph glyph-name="Idotaccent" unicode="&#x130;" horiz-adv-x="335" 
d="M55 33c23.333 0.666992 40 5.99902 50 15.999s15.667 21.833 17 35.5s2 37.5 2 71.5v432c0 28 1 52 3 72l-72 -4v44h225v-33c-23.333 -0.666992 -40 -6 -50 -16s-15.667 -21.833 -17 -35.5s-2 -37.5 -2 -71.5v-425c0 -35.333 -1 -61.666 -3 -78.999l72 4v-44h-225v33z
M134 826.499c-10.667 11.667 -15.999 25.501 -15.999 41.501s5.5 30 16.5 42s23.5 18 37.5 18c15.333 0 28.166 -5.83301 38.499 -17.5s15.5 -25.834 15.5 -42.501c0 -16 -5.5 -29.833 -16.5 -41.5s-23.833 -17.5 -38.5 -17.5c-14 0 -26.333 5.83301 -37 17.5z" />
    <glyph glyph-name="dotlessi" unicode="&#x131;" horiz-adv-x="281" 
d="M44 30c19.333 0 33.167 4.83203 41.5 14.499s13.333 22 15 37s2.5 38.5 2.5 70.5v228c0 19.333 1.33301 41 4 65l-71 -4v42c39.333 0 67.5 2.33301 84.5 7s30.167 11.334 39.5 20.001h29v-404c0 -30 -1.33301 -52.667 -4 -68l63 3v-41h-204v30z" />
    <glyph glyph-name="Jcircumflex" unicode="&#x134;" horiz-adv-x="373" 
d="M58 789l155 142h2l147 -141l-23 -30l-128 84h-1l-127 -84zM29 3.5c-20.667 13 -30.998 30.165 -30.998 51.498c0 14.667 4 27 12 37s19.667 15 35 15c13.333 0 23.333 -4.5 30 -13.5s10 -19.167 10 -30.5c0 -9.33301 -1.33301 -16.666 -4 -21.999
c3.33301 -6 9.16602 -10.333 17.499 -13s15.5 -3.66699 21.5 -3c20.667 0.666992 35.667 9.83398 45 27.501s14 46.5 14 86.5v521l-102 -4v44h266v-33c-30.667 0 -51.167 -8.5 -61.5 -25.5s-15.5 -41.5 -15.5 -73.5v-324c0 -63.333 -5.5 -113.833 -16.5 -151.5
s-28.333 -65.167 -52 -82.5s-54.834 -26 -93.501 -26c-29.333 0 -54.333 6.5 -75 19.5z" />
    <glyph glyph-name="jcircumflex" unicode="&#x135;" horiz-adv-x="257" 
d="M122 683h-1l-100 -93l-32 29l136 159h1l127 -163l-28 -28zM-68 -255c-13.333 10.667 -19.998 23.998 -19.998 39.998c0 13.333 4.16699 24.5 12.5 33.5s19.166 13.5 32.499 13.5c14 0 24.5 -4.5 31.5 -13.5s10.5 -18.5 10.5 -28.5c0 -4 -0.333008 -7 -1 -9
c9.33301 -4 18 -6 26 -6c15.333 0 28.666 5.66699 39.999 17c19.333 18.667 29 59.334 29 122.001l2 466c0 25.333 1 47 3 65l-71 -4v42c40 0 68.5 2.33301 85.5 7s30.167 11.334 39.5 20.001h29v-513c0 -89.333 -17.333 -156.333 -52 -201s-80.667 -67 -138 -67
c-26 0 -45.667 5.33301 -59 16z" />
    <glyph glyph-name="Kcommaaccent" unicode="&#x136;" horiz-adv-x="683" 
d="M55 33c23.333 0.666992 39.999 5.99902 49.999 15.999s15.667 21.833 17 35.5s2 37.5 2 71.5v432c0 28 1 52 3 72l-72 -4v44h225v-33c-23.333 -0.666992 -40 -6 -50 -16s-15.667 -21.833 -17 -35.5s-2 -37.5 -2 -71.5v-164h75l125 197
c24.667 37.333 48.334 65.333 71.001 84l-61 -2v41h215v-33c-30.667 -2.66699 -56.5 -7.66699 -77.5 -15s-41.5 -20.333 -61.5 -39s-41 -45.667 -63 -81l-98 -156c14.667 -9.33301 27.334 -19.5 38.001 -30.5s20.167 -22 28.5 -33l16.5 -21.5l112 -149
c24.667 -32.667 45.167 -56.667 61.5 -72s30.5 -25.333 42.5 -30s26.333 -7 43 -7v-33h-122c-17.333 0 -51 32.667 -101 98l-120 162c-16 20.667 -29.833 37.667 -41.5 51s-22.834 23.333 -33.501 30l-49 -1v-221c0 -35.333 -1 -61.666 -3 -78.999l72 4v-44h-225v33z
M314.999 -240.001c22.667 42 34 79.333 34 112c0 22 -4 44.667 -12 68l69 20c10.667 -20.667 16 -42 16 -64c0 -49.333 -27 -101 -81 -155z" />
    <glyph glyph-name="kcommaaccent" unicode="&#x137;" horiz-adv-x="537" 
d="M35 30c19.333 0 33.168 4.82812 41.501 14.4951s13.166 21.834 14.499 36.501s2 38.334 2 71.001c0 6.66699 0.166992 43 0.5 109s0.5 187.333 0.5 364c0 25.333 1 47 3 65l-71 -4v42c39.333 0 67.5 2.33301 84.5 7s30.167 11.334 39.5 20.001h29v-473h40l122 128
c25.333 26.667 45 44.334 59 53.001l-68 -3v40h182v-30c-29.333 -3.33301 -56 -14 -80 -32s-50.667 -42.333 -80 -73l-78 -82c12 -5.33301 22.5 -12.166 31.5 -20.499s19.167 -19.5 30.5 -33.5l71 -91c1.33301 -1.33301 8.83301 -11.5 22.5 -30.5s30 -36.667 49 -53
s35.5 -24.5 49.5 -24.5v-30h-91c-16 0 -31 7 -45 21s-34.333 38.333 -61 73l-39 55l-41.5 57.5c-13 17.667 -23.833 30.5 -32.5 38.5l-41 -2v-137c0 -30 -1.33301 -52.667 -4 -68l64 3v-41h-204v30zM206.002 -240.005c22.667 42 34 79.333 34 112c0 22 -4 44.667 -12 68
l69 20c10.667 -20.667 16 -42 16 -64c0 -49.333 -27 -101 -81 -155z" />
    <glyph glyph-name="Lacute" unicode="&#x139;" horiz-adv-x="578" 
d="M55 33c23.333 0.666992 40 6 50 16s15.667 21.833 17 35.5s2 37.5 2 71.5v432c0 28 1 52 3 72l-72 -4v44h225v-33c-23.333 -0.666992 -40 -6 -50 -16s-15.667 -21.833 -17 -35.5s-2 -37.5 -2 -71.5v-429c0 -34.667 -1 -60.667 -3 -78l187 3
c42.667 0.666992 74.667 14.167 96 40.5s32 68.5 32 126.5h34l-6 -207h-496v33zM124 789l126 120c14 12 27 18 39 18c6.66699 0 12.5 -1.5 17.5 -4.5s8.5 -5.83301 10.5 -8.5c4 -5.33301 6 -12.333 6 -21c0 -16 -10.667 -30.667 -32 -44l-145 -89z" />
    <glyph glyph-name="lacute" unicode="&#x13a;" horiz-adv-x="272" 
d="M34 30c19.333 0 33.167 4.83203 41.5 14.499s13.333 22 15 37s2.5 38.5 2.5 70.5v473c0 25.333 1 47 3 65l-71 -4v42c40 0 68.5 2.33301 85.5 7s30.167 11.334 39.5 20.001h29l1 -649c0 -26 -1.66699 -48.667 -5 -68l63 3v-41h-204v30zM56.001 804.999l83.999 135
c12.667 18 26.334 27 41.001 27c8 0 16 -2.66699 24 -8c8 -8 12 -17.333 12 -28c0 -14 -7 -28.333 -21 -43l-112 -106z" />
    <glyph glyph-name="Lcommaaccent" unicode="&#x13b;" horiz-adv-x="578" 
d="M55 33c23.333 0.666992 40 6 50 16s15.667 21.833 17 35.5s2 37.5 2 71.5v432c0 28 1 52 3 72l-72 -4v44h225v-33c-23.333 -0.666992 -40 -6 -50 -16s-15.667 -21.833 -17 -35.5s-2 -37.5 -2 -71.5v-429c0 -34.667 -1 -60.667 -3 -78l187 3
c42.667 0.666992 74.667 14.167 96 40.5s32 68.5 32 126.5h34l-6 -207h-496v33zM256 -240c22.667 42 34 79.333 34 112c0 22 -4 44.667 -12 68l69 20c10.667 -20.667 16 -42 16 -64c0 -49.333 -27 -101 -81 -155z" />
    <glyph glyph-name="lcommaaccent" unicode="&#x13c;" horiz-adv-x="272" 
d="M34 30c19.333 0 33.167 4.83203 41.5 14.499s13.333 22 15 37s2.5 38.5 2.5 70.5v473c0 25.333 1 47 3 65l-71 -4v42c40 0 68.5 2.33301 85.5 7s30.167 11.334 39.5 20.001h29l1 -649c0 -26 -1.66699 -48.667 -5 -68l63 3v-41h-204v30zM73.001 -240.001
c22.667 42 34 79.333 34 112c0 22 -4 44.667 -12 68l69 20c10.667 -20.667 16 -42 16 -64c0 -49.333 -27 -101 -81 -155z" />
    <glyph glyph-name="Lcaron" unicode="&#x13d;" horiz-adv-x="578" 
d="M389 508c24.667 47.333 37 91.668 37 133.001c0 23.333 -3 46 -9 68l69 -13c8 -16.667 12 -31.334 12 -44.001c0 -28 -7.66699 -56.167 -23 -84.5s-35.333 -54.833 -60 -79.5zM55 33.002c23.333 0.666992 40 6 50 16s15.667 21.833 17 35.5s2 37.5 2 71.5v432
c0 28 1 52 3 72l-72 -4v44h225v-33c-23.333 -0.666992 -40 -6 -50 -16s-15.667 -21.833 -17 -35.5s-2 -37.5 -2 -71.5v-429c0 -34.667 -1 -60.667 -3 -78l187 3c42.667 0.666992 74.667 14.167 96 40.5s32 68.5 32 126.5h34l-6 -207h-496v33z" />
    <glyph glyph-name="lcaron" unicode="&#x13e;" horiz-adv-x="341" 
d="M241 574c24.667 47.333 37 91.668 37 133.001c0 23.333 -3 46 -9 68l69 -13c8 -16.667 12 -31.334 12 -44.001c0 -28 -7.66699 -56.167 -23 -84.5s-35.333 -54.833 -60 -79.5zM34 30.002c19.333 0 33.167 4.83203 41.5 14.499s13.333 22 15 37s2.5 38.5 2.5 70.5v473
c0 25.333 1 47 3 65l-71 -4v42c40 0 68.5 2.33301 85.5 7s30.167 11.334 39.5 20.001h29l1 -649c0 -26 -1.66699 -48.667 -5 -68l63 3v-41h-204v30z" />
    <glyph glyph-name="Ldot" unicode="&#x13f;" horiz-adv-x="600" 
d="M55 33c23.333 0.666992 40 6 50 16s15.667 21.833 17 35.5s2 37.5 2 71.5v432c0 28 1 52 3 72l-72 -4v44h225v-33c-23.333 -0.666992 -40 -6 -50 -16s-15.667 -21.833 -17 -35.5s-2 -37.5 -2 -71.5v-429c0 -34.667 -1 -60.667 -3 -78l187 3
c42.667 0.666992 74.667 14.167 96 40.5s32 68.5 32 126.5h34l-6 -207h-496v33zM324 282.5c-11.333 12.333 -17 27.5 -17 45.5s5.83301 33.333 17.5 46s25.5 19 41.5 19c16.667 0 30.5 -6.33301 41.5 -19s16.5 -28 16.5 -46s-5.83301 -33.167 -17.5 -45.5
s-25.5 -18.5 -41.5 -18.5s-29.667 6.16699 -41 18.5z" />
    <glyph glyph-name="ldot" unicode="&#x140;" horiz-adv-x="406" 
d="M34 30c19.333 0 33.167 4.83203 41.5 14.499s13.333 22 15 37s2.5 38.5 2.5 70.5v473c0 25.333 1 47 3 65l-71 -4v42c40 0 68.5 2.33301 85.5 7s30.167 11.334 39.5 20.001h29l1 -649c0 -26 -1.66699 -48.667 -5 -68l63 3v-41h-204v30zM256.001 282.499
c-11.333 12.333 -17 27.5 -17 45.5s5.83301 33.333 17.5 46s25.5 19 41.5 19c16.667 0 30.5 -6.33301 41.5 -19s16.5 -28 16.5 -46s-5.83301 -33.167 -17.5 -45.5s-25.5 -18.5 -41.5 -18.5s-29.667 6.16699 -41 18.5z" />
    <glyph glyph-name="Lslash" unicode="&#x141;" horiz-adv-x="578" 
d="M557 207l-6 -207h-496v33c23.333 0.666992 40 6 50 16s15.667 21.833 17 35.5s2 37.5 2 71.5v128l-76 -56v56l76 56v248c0 28 1 52 3 72l-72 -4v44h225v-33c-23.333 -0.666992 -40 -6 -50 -16s-15.667 -21.833 -17 -35.5s-2 -37.5 -2 -71.5v-140l179 132v-55l-179 -132
v-234c0 -34.667 -1 -60.667 -3 -78l187 3c42.667 0.666992 74.667 14.167 96 40.5s32 68.5 32 126.5h34z" />
    <glyph glyph-name="lslash" unicode="&#x142;" horiz-adv-x="293" 
d="M276 408l-75.999 -56.001v-246c0 -26 -1.66699 -48.667 -5 -68l63 3v-41h-204v30c19.333 0 33.166 4.83301 41.499 14.5s13.333 22 15 37s2.5 38.5 2.5 70.5v137l-87 -63v59l87 63v277c0 25.333 1 47 3 65l-71 -4v42c40 0 68.5 2.33301 85.5 7s30.167 11.334 39.5 20.001
h29l1 -345l76 55v-57z" />
    <glyph glyph-name="Nacute" unicode="&#x143;" horiz-adv-x="762" 
d="M168 567h-1l3 -428c0 -44.667 -0.666992 -77.667 -2 -99l72 4v-44h-183v33c26.667 0 44.334 7.66699 53.001 23s13 34 13 56l1 548l-67 -4v44h119l426 -570h1l1 458c0 28 1 52 3 72l-72 -4v44h184v-33c-20 -0.666992 -34.833 -4.5 -44.5 -11.5
s-15.834 -16.5 -18.501 -28.5s-4 -28 -4 -48v-35l-2 -560h-48zM338 789l126 120c14 12 27 18 39 18c6.66699 0 12.5 -1.5 17.5 -4.5s8.5 -5.83301 10.5 -8.5c4 -5.33301 6 -12.333 6 -21c0 -16 -10.667 -30.667 -32 -44l-145 -89z" />
    <glyph glyph-name="nacute" unicode="&#x144;" horiz-adv-x="607" 
d="M44 30c19.333 0 33.1699 4.83496 41.5029 14.502s13.166 21.667 14.499 36s2.33301 38.166 3 71.499l1 228c0 28 1.33301 49.667 4 65l-71 -4v42c39.333 0 66.333 2.16699 81 6.5s27 11.166 37 20.499h29c1.33301 -12.667 2.66602 -33 3.99902 -61
c22.667 20 48.5 36.167 77.5 48.5s57.5 18.5 85.5 18.5c58 0 100.333 -18.167 127 -54.5s40 -92.833 40 -169.5v-186c0 -30 -1.33301 -52.667 -4 -68l63 3v-41h-204v30c19.333 0 33.166 4.83301 41.499 14.5s13.333 22 15 37s2.5 38.5 2.5 70.5v140
c-0.666992 57.333 -10 100.5 -28 129.5s-46.333 43.5 -85 43.5c-24 0 -47.833 -6 -71.5 -18s-43.167 -27.667 -58.5 -47c0.666992 -7.33301 1 -20.333 1 -39l-1 -255c0 -30 -1.33301 -52.667 -4 -68l63 3v-41h-204v30zM239.004 603.002l83.999 135
c12.667 18 26.334 27 41.001 27c8 0 16 -2.66699 24 -8c8 -8 12 -17.333 12 -28c0 -14 -7 -28.333 -21 -43l-112 -106z" />
    <glyph glyph-name="Ncommaaccent" unicode="&#x145;" horiz-adv-x="762" 
d="M168 567h-1l3 -428c0 -44.667 -0.666992 -77.667 -2 -99l72 4v-44h-183v33c26.667 0 44.334 7.66699 53.001 23s13 34 13 56l1 548l-67 -4v44h119l426 -570h1l1 458c0 28 1 52 3 72l-72 -4v44h184v-33c-20 -0.666992 -34.833 -4.5 -44.5 -11.5
s-15.834 -16.5 -18.501 -28.5s-4 -28 -4 -48v-35l-2 -560h-48zM318 -240c22.667 42 34 79.333 34 112c0 22 -4 44.667 -12 68l69 20c10.667 -20.667 16 -42 16 -64c0 -49.333 -27 -101 -81 -155z" />
    <glyph glyph-name="ncommaaccent" unicode="&#x146;" horiz-adv-x="607" 
d="M44 30c19.333 0 33.1699 4.83496 41.5029 14.502s13.166 21.667 14.499 36s2.33301 38.166 3 71.499l1 228c0 28 1.33301 49.667 4 65l-71 -4v42c39.333 0 66.333 2.16699 81 6.5s27 11.166 37 20.499h29c1.33301 -12.667 2.66602 -33 3.99902 -61
c22.667 20 48.5 36.167 77.5 48.5s57.5 18.5 85.5 18.5c58 0 100.333 -18.167 127 -54.5s40 -92.833 40 -169.5v-186c0 -30 -1.33301 -52.667 -4 -68l63 3v-41h-204v30c19.333 0 33.166 4.83301 41.499 14.5s13.333 22 15 37s2.5 38.5 2.5 70.5v140
c-0.666992 57.333 -10 100.5 -28 129.5s-46.333 43.5 -85 43.5c-24 0 -47.833 -6 -71.5 -18s-43.167 -27.667 -58.5 -47c0.666992 -7.33301 1 -20.333 1 -39l-1 -255c0 -30 -1.33301 -52.667 -4 -68l63 3v-41h-204v30zM241.004 -239.998c22.667 42 34 79.333 34 112
c0 22 -4 44.667 -12 68l69 20c10.667 -20.667 16 -42 16 -64c0 -49.333 -27 -101 -81 -155z" />
    <glyph glyph-name="Ncaron" unicode="&#x147;" horiz-adv-x="762" 
d="M168 567h-1l3 -428c0 -44.667 -0.666992 -77.667 -2 -99l72 4v-44h-183v33c26.667 0 44.334 7.66699 53.001 23s13 34 13 56l1 548l-67 -4v44h119l426 -570h1l1 458c0 28 1 52 3 72l-72 -4v44h184v-33c-20 -0.666992 -34.833 -4.5 -44.5 -11.5
s-15.834 -16.5 -18.501 -28.5s-4 -28 -4 -48v-35l-2 -560h-48zM205 921l22 34l168 -88l170 90l20 -32l-194 -145h-2z" />
    <glyph glyph-name="ncaron" unicode="&#x148;" horiz-adv-x="607" 
d="M44 30c19.333 0 33.1699 4.83496 41.5029 14.502s13.166 21.667 14.499 36s2.33301 38.166 3 71.499l1 228c0 28 1.33301 49.667 4 65l-71 -4v42c39.333 0 66.333 2.16699 81 6.5s27 11.166 37 20.499h29c1.33301 -12.667 2.66602 -33 3.99902 -61
c22.667 20 48.5 36.167 77.5 48.5s57.5 18.5 85.5 18.5c58 0 100.333 -18.167 127 -54.5s40 -92.833 40 -169.5v-186c0 -30 -1.33301 -52.667 -4 -68l63 3v-41h-204v30c19.333 0 33.166 4.83301 41.499 14.5s13.333 22 15 37s2.5 38.5 2.5 70.5v140
c-0.666992 57.333 -10 100.5 -28 129.5s-46.333 43.5 -85 43.5c-24 0 -47.833 -6 -71.5 -18s-43.167 -27.667 -58.5 -47c0.666992 -7.33301 1 -20.333 1 -39l-1 -255c0 -30 -1.33301 -52.667 -4 -68l63 3v-41h-204v30zM164.004 736.002l27 32l127 -109h2l129 111l25 -29
l-159 -168h-2z" />
    <glyph glyph-name="napostrophe" unicode="&#x149;" horiz-adv-x="607" 
d="M44 30c19.333 0 33.1699 4.83496 41.5029 14.502s13.166 21.667 14.499 36s2.33301 38.166 3 71.499l1 228c0 28 1.33301 49.667 4 65l-71 -4v42c39.333 0 66.333 2.16699 81 6.5s27 11.166 37 20.499h29c1.33301 -12.667 2.66602 -33 3.99902 -61
c22.667 20 48.5 36.167 77.5 48.5s57.5 18.5 85.5 18.5c58 0 100.333 -18.167 127 -54.5s40 -92.833 40 -169.5v-186c0 -30 -1.33301 -52.667 -4 -68l63 3v-41h-204v30c19.333 0 33.166 4.83301 41.499 14.5s13.333 22 15 37s2.5 38.5 2.5 70.5v140
c-0.666992 57.333 -10 100.5 -28 129.5s-46.333 43.5 -85 43.5c-24 0 -47.833 -6 -71.5 -18s-43.167 -27.667 -58.5 -47c0.666992 -7.33301 1 -20.333 1 -39l-1 -255c0 -30 -1.33301 -52.667 -4 -68l63 3v-41h-204v30zM64.0039 602.002c11.333 14.667 22 35.333 32 62
s15 53 15 79c0 8 -0.333008 14 -1 18c-8.66699 -4 -17 -6 -25 -6c-13.333 0 -24.333 4.66699 -33 14s-13 21 -13 35c0 18 5.33301 32.167 16 42.5s23.667 15.5 39 15.5c22 0 39.333 -8.5 52 -25.5s19 -38.833 19 -65.5c0 -27.333 -7.16699 -60.333 -21.5 -99
s-31.833 -68.667 -52.5 -90z" />
    <glyph glyph-name="Eng" unicode="&#x14a;" horiz-adv-x="762" 
d="M719 700l-0.000976562 -33c-20 -0.666992 -34.833 -4.5 -44.5 -11.5s-15.834 -16.5 -18.501 -28.5s-4 -28 -4 -48v-35l-2 -560v-67c0 -61.333 -11.667 -108 -35 -140s-55.666 -48 -96.999 -48c-25.333 0 -46.166 5.5 -62.499 16.5s-24.5 24.167 -24.5 39.5
c0 13.333 4.16699 24.5 12.5 33.5s19.166 13.5 32.499 13.5c14 0 24.5 -4.5 31.5 -13.5s10.5 -18.5 10.5 -28.5c0 -4 -0.333008 -7 -1 -9c9.33301 -4 17 -6 23 -6c12 0 23 5.66699 33 17c19.333 19.333 29 60 29 122v70l-434 583h-1l3 -428
c0 -44.667 -0.666992 -77.667 -2 -99l72 4v-44h-183v33c26.667 0 44.334 7.66699 53.001 23s13 34 13 56l1 548l-67 -4v44h119l426 -570h1l1 458c0 28 1 52 3 72l-72 -4v44h184z" />
    <glyph glyph-name="eng" unicode="&#x14b;" horiz-adv-x="588" 
d="M270 -255c-13.333 10.667 -19.9961 24.002 -19.9961 40.002c0 13.333 4.16699 24.5 12.5 33.5s19.166 13.5 32.499 13.5c14 0 24.5 -4.5 31.5 -13.5s10.5 -18.5 10.5 -28.5c0 -4 -0.333008 -7 -1 -9c9.33301 -4 18 -6 26 -6c15.333 0 28.666 5.66699 39.999 17
c19.333 19.333 29 60 29 122l1 378c-0.666992 57.333 -10 100.5 -28 129.5s-46.333 43.5 -85 43.5c-24 0 -47.833 -6 -71.5 -18s-43.167 -27.667 -58.5 -47c0.666992 -7.33301 1 -20.333 1 -39l-1 -255c0 -30 -1.33301 -52.667 -4 -68l63 3v-41h-204v30
c19.333 0 33.166 4.83301 41.499 14.5s13.166 21.667 14.499 36s2.33301 38.166 3 71.499l1 228c0 28 1.33301 49.667 4 65l-71 -4v42c39.333 0 66.333 2.16699 81 6.5s27 11.166 37 20.499h29c1.33301 -12.667 2.66602 -33 3.99902 -61c22.667 20 48.5 36.167 77.5 48.5
s57.5 18.5 85.5 18.5c58 0 100.333 -18.167 127 -54.5s40 -92.833 40 -169.5v-295c0 -89.333 -17.167 -156.333 -51.5 -201s-80.166 -67 -137.499 -67c-26 0 -45.667 5.33301 -59 16z" />
    <glyph glyph-name="Omacron" unicode="&#x14c;" horiz-adv-x="794" 
d="M202 37c-53.333 35.333 -92.6689 80.832 -118.002 136.499s-38 114.5 -38 176.5c0 59.333 13.167 117 39.5 173s65.666 102.167 117.999 138.5s115.833 54.5 190.5 54.5c76.667 0 141.834 -18.167 195.501 -54.5s93.834 -82.5 120.501 -138.5s40 -113.667 40 -173
c0 -58.667 -13.167 -116.167 -39.5 -172.5s-65.666 -102.666 -117.999 -138.999s-115.833 -54.5 -190.5 -54.5c-80 0 -146.667 17.667 -200 53zM537.497 69.499c37 29.667 65.001 67.832 84.001 114.499s28.5 95.667 28.5 147c0 56.667 -10.333 111.5 -31 164.5
s-50.667 96.333 -90 130s-85.333 50.5 -138 50.5c-52 0 -96.667 -14.833 -134 -44.5s-65.5 -68.167 -84.5 -115.5s-28.5 -96.666 -28.5 -147.999c0 -52.667 9.66699 -105.5 29 -158.5s48.666 -97 87.999 -132s87 -52.5 143 -52.5c52 0 96.5 14.833 133.5 44.5z
M255.998 899.997h265v-56l-265 -4v60z" />
    <glyph glyph-name="omacron" unicode="&#x14d;" horiz-adv-x="585" 
d="M165.5 16.5c-38.333 21.667 -68.668 51.835 -91.001 90.502s-33.5 82.334 -33.5 131.001c0 52 11 99.167 33 141.5s52.167 75.666 90.5 99.999s80.833 36.5 127.5 36.5c46 0 88.333 -11.167 127 -33.5s69.167 -52.833 91.5 -91.5s33.5 -81.667 33.5 -129
c0 -50.667 -11.167 -97.334 -33.5 -140.001s-52.666 -76.334 -90.999 -101.001s-80.833 -37 -127.5 -37c-46 0 -88.167 10.833 -126.5 32.5zM407.498 84.001c23 40 34.499 89.667 34.499 149c0 67.333 -12.5 125 -37.5 173s-62.5 72 -112.5 72
c-49.333 0 -86.5 -20.333 -111.5 -61s-37.5 -90.667 -37.5 -150c0 -42.667 5.83301 -82.5 17.5 -119.5s29.334 -66.833 53.001 -89.5s52.5 -34 86.5 -34c48.667 0 84.5 20 107.5 60zM158.997 700.001h265v-56l-265 -4v60z" />
    <glyph glyph-name="Obreve" unicode="&#x14e;" horiz-adv-x="794" 
d="M202 37c-53.333 35.333 -92.6689 80.832 -118.002 136.499s-38 114.5 -38 176.5c0 59.333 13.167 117 39.5 173s65.666 102.167 117.999 138.5s115.833 54.5 190.5 54.5c76.667 0 141.834 -18.167 195.501 -54.5s93.834 -82.5 120.501 -138.5s40 -113.667 40 -173
c0 -58.667 -13.167 -116.167 -39.5 -172.5s-65.666 -102.666 -117.999 -138.999s-115.833 -54.5 -190.5 -54.5c-80 0 -146.667 17.667 -200 53zM537.497 69.499c37 29.667 65.001 67.832 84.001 114.499s28.5 95.667 28.5 147c0 56.667 -10.333 111.5 -31 164.5
s-50.667 96.333 -90 130s-85.333 50.5 -138 50.5c-52 0 -96.667 -14.833 -134 -44.5s-65.5 -68.167 -84.5 -115.5s-28.5 -96.666 -28.5 -147.999c0 -52.667 9.66699 -105.5 29 -158.5s48.666 -97 87.999 -132s87 -52.5 143 -52.5c52 0 96.5 14.833 133.5 44.5z
M303.998 835.497c-26 17.667 -46.333 43.167 -61 76.5l26 12c11.333 -14.667 28 -27.334 50 -38.001s45.333 -16 70 -16s48 5.33301 70 16s38.667 23.334 50 38.001l27 -12c-15.333 -33.333 -36 -58.833 -62 -76.5s-54.333 -26.5 -85 -26.5s-59 8.83301 -85 26.5z" />
    <glyph glyph-name="obreve" unicode="&#x14f;" horiz-adv-x="585" 
d="M165.5 16.5c-38.333 21.667 -68.668 51.835 -91.001 90.502s-33.5 82.334 -33.5 131.001c0 52 11 99.167 33 141.5s52.167 75.666 90.5 99.999s80.833 36.5 127.5 36.5c46 0 88.333 -11.167 127 -33.5s69.167 -52.833 91.5 -91.5s33.5 -81.667 33.5 -129
c0 -50.667 -11.167 -97.334 -33.5 -140.001s-52.666 -76.334 -90.999 -101.001s-80.833 -37 -127.5 -37c-46 0 -88.167 10.833 -126.5 32.5zM407.498 84.001c23 40 34.499 89.667 34.499 149c0 67.333 -12.5 125 -37.5 173s-62.5 72 -112.5 72
c-49.333 0 -86.5 -20.333 -111.5 -61s-37.5 -90.667 -37.5 -150c0 -42.667 5.83301 -82.5 17.5 -119.5s29.334 -66.833 53.001 -89.5s52.5 -34 86.5 -34c48.667 0 84.5 20 107.5 60zM210.497 634.001c-25 20 -43.5 48.667 -55.5 86l29 15
c10.667 -19.333 26 -35.833 46 -49.5s41 -20.5 63 -20.5s43 7 63 21s35 31 45 51l27 -12c-29.333 -80.667 -75.333 -121 -138 -121c-28 0 -54.5 10 -79.5 30z" />
    <glyph glyph-name="Ohungarumlaut" unicode="&#x150;" horiz-adv-x="794" 
d="M202 37c-53.333 35.333 -92.6689 80.832 -118.002 136.499s-38 114.5 -38 176.5c0 59.333 13.167 117 39.5 173s65.666 102.167 117.999 138.5s115.833 54.5 190.5 54.5c76.667 0 141.834 -18.167 195.501 -54.5s93.834 -82.5 120.501 -138.5s40 -113.667 40 -173
c0 -58.667 -13.167 -116.167 -39.5 -172.5s-65.666 -102.666 -117.999 -138.999s-115.833 -54.5 -190.5 -54.5c-80 0 -146.667 17.667 -200 53zM537.497 69.499c37 29.667 65.001 67.832 84.001 114.499s28.5 95.667 28.5 147c0 56.667 -10.333 111.5 -31 164.5
s-50.667 96.333 -90 130s-85.333 50.5 -138 50.5c-52 0 -96.667 -14.833 -134 -44.5s-65.5 -68.167 -84.5 -115.5s-28.5 -96.666 -28.5 -147.999c0 -52.667 9.66699 -105.5 29 -158.5s48.666 -97 87.999 -132s87 -52.5 143 -52.5c52 0 96.5 14.833 133.5 44.5z
M308.998 790.997l60.999 107c10.667 18 23.667 27 39 27c8.66699 0 16.334 -3.33301 23.001 -10c8 -8 12 -17 12 -27c0 -12.667 -5.66699 -23.667 -17 -33l-92 -83zM429.997 797.997l110 102.001c8 8 17.333 12 28 12c12.667 0 23 -6.33301 31 -19
c3.33301 -6.66699 5 -13.334 5 -20.001c0 -8 -2.16699 -15.5 -6.5 -22.5s-9.83301 -11.833 -16.5 -14.5l-137 -64z" />
    <glyph glyph-name="ohungarumlaut" unicode="&#x151;" horiz-adv-x="585" 
d="M165.5 16.5c-38.333 21.667 -68.668 51.835 -91.001 90.502s-33.5 82.334 -33.5 131.001c0 52 11 99.167 33 141.5s52.167 75.666 90.5 99.999s80.833 36.5 127.5 36.5c46 0 88.333 -11.167 127 -33.5s69.167 -52.833 91.5 -91.5s33.5 -81.667 33.5 -129
c0 -50.667 -11.167 -97.334 -33.5 -140.001s-52.666 -76.334 -90.999 -101.001s-80.833 -37 -127.5 -37c-46 0 -88.167 10.833 -126.5 32.5zM407.498 84.001c23 40 34.499 89.667 34.499 149c0 67.333 -12.5 125 -37.5 173s-62.5 72 -112.5 72
c-49.333 0 -86.5 -20.333 -111.5 -61s-37.5 -90.667 -37.5 -150c0 -42.667 5.83301 -82.5 17.5 -119.5s29.334 -66.833 53.001 -89.5s52.5 -34 86.5 -34c48.667 0 84.5 20 107.5 60zM182.997 613.001l55.999 128c10.667 22.667 24.334 34 41.001 34
c6.66699 0 13.667 -2.33301 21 -7c9.33301 -6.66699 14 -15.667 14 -27s-5.33301 -24.333 -16 -39l-87 -107zM285.996 614.001l121 132.001c10.667 10.667 22 16 34 16c10.667 0 19.667 -4.66699 27 -14c4 -6 6 -12.333 6 -19c0 -16.667 -7.66699 -30.334 -23 -41.001
l-146 -100z" />
    </font>
</defs>
</svg>
